<svg xmlns="http://www.w3.org/2000/svg" version="1.1" xmlns:xlink="http://www.w3.org/1999/xlink" xmlns:svgjs="http://svgjs.com/svgjs" width="512" height="512" x="0" y="0" viewBox="0 0 8.467 8.467" style="enable-background:new 0 0 512 512" xml:space="preserve" class=""><g><path d="M1.291.53a.798.798 0 0 0-.794.794v1.857c0 .436.359.794.794.794h1.857a.797.797 0 0 0 .794-.794V1.324A.798.798 0 0 0 3.148.53zm3.975 0a.798.798 0 0 0-.794.794v1.857c0 .436.359.794.794.794h1.857a.797.797 0 0 0 .794-.794V1.324A.798.798 0 0 0 7.123.53zm-3.975.53h1.857c.151 0 .264.113.264.264v1.857a.257.257 0 0 1-.264.264H1.291a.258.258 0 0 1-.264-.264V1.324c0-.15.113-.263.264-.263zm3.975 0h1.857c.151 0 .264.113.264.264v1.857a.257.257 0 0 1-.264.264H5.266a.258.258 0 0 1-.264-.264V1.324c0-.15.113-.263.264-.263zM1.291 4.506a.798.798 0 0 0-.794.794v1.857c0 .436.359.794.794.794h1.857a.797.797 0 0 0 .794-.794V5.299a.798.798 0 0 0-.794-.794zm3.975 0a.798.798 0 0 0-.794.794v1.857c0 .436.359.794.794.794h1.857a.797.797 0 0 0 .794-.794V5.299a.798.798 0 0 0-.794-.794zm-3.975.53h1.857c.151 0 .264.113.264.264v1.857a.257.257 0 0 1-.264.264H1.291a.258.258 0 0 1-.264-.264V5.299c0-.15.113-.263.264-.263zm3.975 0h1.857c.151 0 .264.113.264.264v1.857a.257.257 0 0 1-.264.264H5.266a.258.258 0 0 1-.264-.264V5.299c0-.15.113-.263.264-.263z" paint-order="stroke fill markers" fill="#ffffff" data-original="#000000" class=""></path></g></svg>