<svg xmlns="http://www.w3.org/2000/svg" version="1.1" xmlns:xlink="http://www.w3.org/1999/xlink" xmlns:svgjs="http://svgjs.com/svgjs" width="512" height="512" x="0" y="0" viewBox="0 0 64 64" style="enable-background:new 0 0 512 512" xml:space="preserve"><g><path d="M41 42a9 9 0 1 0-9 9 9.01 9.01 0 0 0 9-9zm-9 5a5 5 0 1 1 5-5 5.006 5.006 0 0 1-5 5zM37 51H27a5.006 5.006 0 0 0-5 5v2a2 2 0 0 0 4 0v-2a1.001 1.001 0 0 1 1-1h10a1.001 1.001 0 0 1 1 1v2a2 2 0 0 0 4 0v-2a5.006 5.006 0 0 0-5-5zM63 42a9 9 0 1 0-9 9 9.01 9.01 0 0 0 9-9zm-9 5a5 5 0 1 1 5-5 5.006 5.006 0 0 1-5 5zM59 51H49a5.006 5.006 0 0 0-5 5v2a2 2 0 0 0 4 0v-2a1.001 1.001 0 0 1 1-1h10a1.001 1.001 0 0 1 1 1v2a2 2 0 0 0 4 0v-2a5.006 5.006 0 0 0-5-5zM30 13a9 9 0 1 0-9 9 9.01 9.01 0 0 0 9-9zm-9 5a5 5 0 1 1 5-5 5.006 5.006 0 0 1-5 5zM13 31a2 2 0 0 0 2-2v-2a1.001 1.001 0 0 1 1-1h10a1.001 1.001 0 0 1 1 1v2a2 2 0 0 0 4 0v-2a5.006 5.006 0 0 0-5-5H16a5.006 5.006 0 0 0-5 5v2a2 2 0 0 0 2 2zM52 13a9 9 0 1 0-9 9 9.01 9.01 0 0 0 9-9zm-9 5a5 5 0 1 1 5-5 5.006 5.006 0 0 1-5 5zM35 31a2 2 0 0 0 2-2v-2a1.001 1.001 0 0 1 1-1h10a1.001 1.001 0 0 1 1 1v2a2 2 0 0 0 4 0v-2a5.006 5.006 0 0 0-5-5H38a5.006 5.006 0 0 0-5 5v2a2 2 0 0 0 2 2zM19 42a9 9 0 1 0-9 9 9.01 9.01 0 0 0 9-9zm-9 5a5 5 0 1 1 5-5 5.006 5.006 0 0 1-5 5zM15 51H5a5.006 5.006 0 0 0-5 5v2a2 2 0 0 0 4 0v-2a1.001 1.001 0 0 1 1-1h10a1.001 1.001 0 0 1 1 1v2a2 2 0 0 0 4 0v-2a5.006 5.006 0 0 0-5-5z" fill="#ffffff" data-original="#000000"></path><circle cx="21" cy="32" r="2" fill="#ffffff" data-original="#000000"></circle></g></svg>