<svg id="Capa_1" enable-background="new 0 0 512 512" height="512" viewBox="0 0 512 512" width="512" xmlns="http://www.w3.org/2000/svg" xmlns:xlink="http://www.w3.org/1999/xlink"><linearGradient id="SVGID_1_" gradientUnits="userSpaceOnUse" x1="111.414" x2="477.691" y1="468.778" y2="32.266"><stop offset="0" stop-color="#fff" stop-opacity="0"/><stop offset=".2532" stop-color="#eef" stop-opacity=".403"/><stop offset=".629" stop-color="#d9d9ff"/></linearGradient><g><g><path d="m484.98 48.101c-17.871-56.187-72.42.267-104.338-13.089-29.982-12.546-76.39-67.516-87.741-7.451-30.667 162.283-294.893 54.411-265.924 268.85 10.297 76.226 52.209 171.863 130.662 199.069 102.755 35.634 245.361 17.552 298.262-93.047 49.761-104.033-83.315-217.352 16.209-303.96 13.695-11.918 18.371-33.077 12.87-50.372z" fill="url(#SVGID_1_)"/></g><g><g fill="#00c" opacity=".1"><path d="m484.53 456.101-68.607-118.83c-2.603-4.509-8-6.392-12.741-4.737l-20.217-35.017c44.524-33.004 58.179-94.879 29.802-144.029-26.855-46.514-82.401-66.126-131.376-49.403v-16.931c0-5.523-4.477-10-10-10h-207.118c-5.523 0-10 4.477-10 10v139.02h-18.238c-5.523 0-10 4.477-10 10v153.486c0 5.523 4.477 10 10 10h69.731v29.397c0 2.761 2.239 5 5 5h143.315c2.761 0 5-2.239 5-5v-99.959c0-2.761-2.239-5-5-5h-98.522v-76.924h57.759c2.136 5.747 4.772 11.394 7.94 16.881 28.377 49.15 88.789 68.262 139.633 46.205l20.217 35.017c-3.804 3.279-4.871 8.894-2.268 13.403l68.607 118.83c2.946 5.102 9.47 6.85 14.572 3.904l18.606-10.742c5.102-2.945 6.85-9.469 3.905-14.571z"/><path d="m287.012 396.174h18.583c2.761 0 5-2.239 5-5s-2.239-5-5-5h-18.583c-2.761 0-5 2.239-5 5s2.239 5 5 5z"/><path d="m345.595 406.555h-58.583c-2.761 0-5 2.239-5 5s2.239 5 5 5h58.583c2.761 0 5-2.239 5-5s-2.239-5-5-5z"/><path d="m345.595 426.937h-58.583c-2.761 0-5 2.239-5 5s2.239 5 5 5h58.583c2.761 0 5-2.239 5-5s-2.239-5-5-5z"/></g><g><path d="m259.078 305.1v99.96c0 2.76-2.23 5-5 5h-143.31c-2.76 0-5-2.24-5-5v-99.96c0-2.76 2.24-5 5-5h143.31c2.77 0 5 2.24 5 5z" fill="#9494ff"/><path d="m155.558 300.1v89.56c0 5.52-4.48 10-10 10h-39.79v-94.56c0-2.76 2.24-5 5-5z" fill="#8383ff"/><g><path d="m271.39 223.174h-207.117c-5.523 0-10-4.477-10-10v-150.02c0-5.523 4.477-10 10-10h207.117c5.523 0 10 4.477 10 10v150.02c0 5.523-4.477 10-10 10z" fill="#ff6c6c"/><path d="m103.822 45.605h128.02v185.118h-128.02z" fill="#ffe8dc" transform="matrix(0 1 -1 0 305.995 -29.667)"/><circle cx="193.471" cy="142.513" fill="#ffc599" r="46.389"/><path d="m244.209 202.174-33.056-54.658c-1.945-3.217-6.611-3.217-8.557 0l-19.588 32.389-42.855-70.861c-1.945-3.217-6.611-3.217-8.557 0l-56.323 93.13z" fill="#ff9d33"/></g><g><g><path d="m370.355 272.59h25.487v53.293h-25.487z" fill="#d9d9ff" transform="matrix(.866 -.5 .5 .866 -98.293 231.64)"/><path d="m392.336 289.747c-5.98 5.55-12.67 10.53-20.04 14.78-.22.12-.43.25-.65.37l-12.91-22.37 22.08-12.74z" fill="#b3b3ff"/></g><g><circle cx="317.012" cy="184.771" fill="#9494ff" r="110.567"/><path d="m362.528 263.6c-42.16 24.34-95.69 11.13-121.87-29.26l69.83-140.38c33.67-2.4 67.35 14.11 85.36 45.3 25.13 43.54 10.22 99.21-33.32 124.34z" fill="#d9d9ff"/><path d="m372.993 198.015h-10.025v-10.025c0-2.761-2.239-5-5-5h-10.115c-2.761 0-5 2.239-5 5v10.025h-10.025c-2.761 0-5 2.239-5 5v10.115c0 2.761 2.239 5 5 5h10.025v10.025c0 2.761 2.239 5 5 5h10.115c2.761 0 5-2.239 5-5v-10.025h10.025c2.761 0 5-2.239 5-5v-10.115c0-2.761-2.238-5-5-5z" fill="#ff6c6c"/></g><g><path d="m480.625 446.673-18.606 10.742c-5.102 2.946-11.626 1.198-14.572-3.904l-68.607-118.83c-2.946-5.102-1.198-11.626 3.904-14.572l18.606-10.742c5.102-2.946 11.626-1.198 14.572 3.904l68.607 118.83c2.946 5.102 1.198 11.626-3.904 14.572z" fill="#ffab66"/><g fill="#ffd6bb"><path d="m418.713 388.725h42.818v18.557h-42.818z" transform="matrix(.866 -.5 .5 .866 -140.037 273.384)"/><path d="m433.566 429.466 13.882 24.044c2.946 5.102 9.47 6.85 14.572 3.904l18.606-10.742c5.102-2.946 6.85-9.47 3.904-14.572l-13.882-24.044z"/></g></g></g><path d="m145.559 375.66h-109.524c-5.523 0-10-4.477-10-10v-153.486c0-5.523 4.477-10 10-10h109.524c5.523 0 10 4.477 10 10v153.486c0 5.523-4.477 10-10 10z" fill="#fff"/><g><g><path d="m80.088 242.668h-18.583c-2.761 0-5-2.239-5-5s2.239-5 5-5h18.583c2.761 0 5 2.239 5 5s-2.239 5-5 5z" fill="#ff6c6c"/></g><g><path d="m120.088 263.049h-58.583c-2.761 0-5-2.239-5-5s2.239-5 5-5h58.583c2.761 0 5 2.239 5 5 0 2.762-2.239 5-5 5z" fill="#ffab66"/></g><g><path d="m120.088 283.431h-58.583c-2.761 0-5-2.239-5-5s2.239-5 5-5h58.583c2.761 0 5 2.239 5 5s-2.239 5-5 5z" fill="#ffab66"/></g><g><path d="m120.088 324.601h-40.583c-2.761 0-5-2.239-5-5s2.239-5 5-5h40.583c2.761 0 5 2.239 5 5s-2.239 5-5 5z" fill="#ffab66"/><g fill="#ff6c6c"><circle cx="61.505" cy="319.601" r="5"/><circle cx="61.505" cy="339.983" r="5"/></g></g><g><path d="m120.088 344.983h-40.583c-2.761 0-5-2.239-5-5s2.239-5 5-5h40.583c2.761 0 5 2.239 5 5s-2.239 5-5 5z" fill="#ffab66"/></g></g><g fill="#00c"><path d="m488.859 429.601-68.606-118.83c-3.06-5.301-8.773-8.121-14.504-7.787l-16.271-28.178c43.639-35.08 56.464-97.855 27.618-147.818-26.819-46.453-81.241-67.245-130.708-53.661v-10.177c0-8.271-6.729-15-15-15h-207.111c-8.271 0-15 6.729-15 15v111.04c0 2.761 2.239 5 5 5s5-2.239 5-5v-111.04c0-2.757 2.243-5 5-5h207.11c2.757 0 5 2.243 5 5v13.428c-5.841 2.197-11.581 4.889-17.159 8.109-47.323 27.322-68.016 83.29-52.862 133.482h-45.807v-5.996c0-8.271-6.729-15-15-15h-109.524c-8.271 0-15 6.729-15 15v153.487c0 8.271 6.729 15 15 15h64.733v24.4c0 5.514 4.486 10 10 10h143.31c5.514 0 10-4.486 10-10v-99.96c0-5.514-4.486-10-10-10h-93.519v-66.93h49.344c1.983 4.885 4.316 9.692 7.025 14.385 21.382 37.035 60.306 57.761 100.278 57.761 13.952 0 28.029-2.541 41.536-7.78l16.268 28.182c-.915 1.388-1.622 2.921-2.065 4.574-1.083 4.042-.527 8.265 1.565 11.889l9.396 16.274c1.381 2.392 4.439 3.211 6.83 1.83 2.392-1.381 3.211-4.438 1.83-6.83l-9.396-16.274c-.757-1.311-.958-2.838-.566-4.3s1.33-2.685 2.641-3.441l18.605-10.742c2.707-1.56 6.179-.631 7.742 2.075l68.606 118.83c.757 1.311.958 2.838.566 4.301-.392 1.462-1.33 2.684-2.641 3.441l-18.605 10.742c-1.311.756-2.839.957-4.3.566-1.462-.392-2.685-1.33-3.441-2.641l-44.807-77.607c-1.38-2.391-4.438-3.21-6.83-1.83-2.392 1.381-3.211 4.438-1.83 6.83l44.807 77.607c2.092 3.624 5.471 6.217 9.513 7.3 1.35.362 2.719.541 4.081.541 2.714 0 5.394-.712 7.808-2.105l18.605-10.742c3.624-2.092 6.217-5.471 7.3-9.513s.528-8.268-1.565-11.892zm-457.824-63.941v-153.486c0-2.757 2.243-5 5-5h109.524c2.757 0 5 2.243 5 5v153.486c0 2.757-2.243 5-5 5h-109.524c-2.757 0-5-2.243-5-5zm223.043-60.56v99.96h-143.31v-24.4h34.792c8.271 0 15-6.729 15-15v-60.56zm63.111-14.783c-36.51-.002-72.071-18.936-91.601-52.763-29.105-50.411-11.771-115.102 38.64-144.207 16.584-9.575 34.707-14.123 52.606-14.123 36.51 0 72.071 18.936 91.601 52.763 29.105 50.411 11.771 115.102-38.64 144.207-16.584 9.576-34.706 14.124-52.606 14.123zm57.607-5.462c2.253-1.301 4.439-2.673 6.57-4.1l14.887 25.781-13.413 7.744-14.88-25.776c2.302-1.132 4.582-2.348 6.836-3.649z"/><path d="m287.012 372.174h18.583c2.761 0 5-2.239 5-5s-2.239-5-5-5h-18.583c-2.761 0-5 2.239-5 5s2.239 5 5 5z"/><path d="m345.595 382.555h-58.583c-2.761 0-5 2.239-5 5s2.239 5 5 5h58.583c2.761 0 5-2.239 5-5s-2.239-5-5-5z"/><path d="m345.595 402.937h-58.583c-2.761 0-5 2.239-5 5s2.239 5 5 5h58.583c2.761 0 5-2.239 5-5s-2.239-5-5-5z"/></g><path d="m223.322 345.019h-10.025v-10.025c0-2.761-2.239-5-5-5h-10.115c-2.761 0-5 2.239-5 5v10.025h-10.025c-2.761 0-5 2.239-5 5v10.115c0 2.761 2.239 5 5 5h10.025v10.025c0 2.761 2.239 5 5 5h10.115c2.761 0 5-2.239 5-5v-10.025h10.025c2.761 0 5-2.239 5-5v-10.115c0-2.761-2.238-5-5-5z" fill="#fff"/><g><path d="m310.488 93.96v129.73c0 5.88-4.77 10.65-10.66 10.65h-59.17c-.86-1.32-1.68-2.67-2.48-4.05-3.42-5.92-6.09-12.07-8.06-18.33l57.99-113.52c7.35-2.47 14.86-3.94 22.38-4.48z" fill="#ff9494"/><path d="m288.108 98.44v113.52h-17.24l-18.01-29.78c8.29-8.84 13.37-20.72 13.37-33.8 0-11.62-4.01-22.3-10.72-30.74 4.79-4.38 10.13-8.32 15.99-11.7 5.38-3.1 10.94-5.6 16.61-7.5z" fill="#fff3ee"/><path d="m266.228 148.38c0 13.08-5.07 24.97-13.37 33.81l-17.22-28.47c-.78-1.3-1.98-2.1-3.28-2.42 4.98-12.62 12.79-24.18 23.15-33.66 6.71 8.44 10.72 19.12 10.72 30.74z" fill="#ffd6bb"/><path d="m270.866 211.956h-40.75c-6.34-20.2-5.27-41.63 2.24-60.66 1.3.32 2.5 1.12 3.28 2.42z" fill="#ffab66"/></g></g><g><path d="m74.505 462.271c-2.761 0-5-2.239-5-5 0-3.492-2.841-6.333-6.333-6.333-2.761 0-5-2.239-5-5s2.239-5 5-5c3.492 0 6.333-2.841 6.333-6.333 0-2.761 2.239-5 5-5s5 2.239 5 5c0 3.492 2.841 6.333 6.333 6.333 2.761 0 5 2.239 5 5s-2.239 5-5 5c-3.492 0-6.333 2.841-6.333 6.333 0 2.761-2.238 5-5 5z" fill="#ffab66"/></g><g><path d="m130.663 473.604c-2.761 0-5-2.239-5-5 0-3.492-2.841-6.333-6.333-6.333-2.761 0-5-2.239-5-5s2.239-5 5-5c3.492 0 6.333-2.841 6.333-6.333 0-2.761 2.239-5 5-5s5 2.239 5 5c0 3.492 2.841 6.333 6.333 6.333 2.761 0 5 2.239 5 5s-2.239 5-5 5c-3.492 0-6.333 2.841-6.333 6.333 0 2.761-2.239 5-5 5z" fill="#8383ff"/></g><g><path d="m334.194 60.798c-2.761 0-5-2.239-5-5 0-3.492-2.841-6.333-6.333-6.333-2.761 0-5-2.239-5-5s2.239-5 5-5c3.492 0 6.333-2.841 6.333-6.333 0-2.761 2.239-5 5-5s5 2.239 5 5c0 3.492 2.841 6.333 6.333 6.333 2.761 0 5 2.239 5 5s-2.239 5-5 5c-3.492 0-6.333 2.841-6.333 6.333 0 2.761-2.239 5-5 5z" fill="#ff6c6c"/></g><g><path d="m436.598 77.822c-1.28 0-2.559-.488-3.536-1.464l-5.464-5.464-5.464 5.464c-1.953 1.952-5.118 1.952-7.071 0-1.953-1.953-1.953-5.119 0-7.071l9-9c1.953-1.952 5.118-1.952 7.071 0l9 9c1.953 1.953 1.953 5.119 0 7.071-.977.976-2.257 1.464-3.536 1.464z" fill="#8383ff"/></g><g><path d="m392.782 446.437c-1.28 0-2.559-.488-3.536-1.464l-5.464-5.464-5.464 5.464c-1.953 1.952-5.118 1.952-7.071 0-1.953-1.953-1.953-5.119 0-7.071l9-9c1.953-1.952 5.118-1.952 7.071 0l9 9c1.953 1.953 1.953 5.119 0 7.071-.977.976-2.256 1.464-3.536 1.464z" fill="#ff6c6c"/></g></g></g></svg>