<?xml version="1.0" encoding="UTF-8" standalone="no"?>
<!-- Created with Inkscape (http://www.inkscape.org/) -->

<svg
   version="1.1"
   id="svg2556"
   xml:space="preserve"
   width="682.66669"
   height="682.66669"
   viewBox="0 0 682.66669 682.66669"
   xmlns="http://www.w3.org/2000/svg"
   xmlns:svg="http://www.w3.org/2000/svg"><defs
     id="defs2560"><linearGradient
       x1="0"
       y1="0"
       x2="1"
       y2="0"
       gradientUnits="userSpaceOnUse"
       gradientTransform="matrix(370.42746,370.42746,370.42746,-370.42746,56.637032,93.297394)"
       spreadMethod="pad"
       id="linearGradient2586"><stop
         style="stop-opacity:1;stop-color:#ffdbed"
         offset="0"
         id="stop2576" /><stop
         style="stop-opacity:1;stop-color:#ffdbed"
         offset="0.048501"
         id="stop2578" /><stop
         style="stop-opacity:1;stop-color:#d2deff"
         offset="0.97145136"
         id="stop2580" /><stop
         style="stop-opacity:1;stop-color:#d2deff"
         offset="0.999306"
         id="stop2582" /><stop
         style="stop-opacity:1;stop-color:#d2deff"
         offset="1"
         id="stop2584" /></linearGradient><clipPath
       clipPathUnits="userSpaceOnUse"
       id="clipPath2596"><path
         d="M 0,512 H 512 V 0 H 0 Z"
         id="path2594" /></clipPath><clipPath
       clipPathUnits="userSpaceOnUse"
       id="clipPath2604"><path
         d="M 45.2245,440.54 H 490.744 V 65.3036 H 45.2245 Z"
         id="path2602" /></clipPath><clipPath
       clipPathUnits="userSpaceOnUse"
       id="clipPath2836"><path
         d="M 0,512 H 512 V 0 H 0 Z"
         id="path2834" /></clipPath><linearGradient
       x1="0"
       y1="0"
       x2="1"
       y2="0"
       gradientUnits="userSpaceOnUse"
       gradientTransform="matrix(335.24353,335.24353,335.24353,-335.24353,-410.08865,99.600609)"
       spreadMethod="pad"
       id="linearGradient2860"><stop
         style="stop-opacity:1;stop-color:#d2deff"
         offset="0"
         id="stop2850" /><stop
         style="stop-opacity:1;stop-color:#d2deff"
         offset="0.048501"
         id="stop2852" /><stop
         style="stop-opacity:1;stop-color:#dcfdee"
         offset="0.97145136"
         id="stop2854" /><stop
         style="stop-opacity:1;stop-color:#dcfdee"
         offset="0.999306"
         id="stop2856" /><stop
         style="stop-opacity:1;stop-color:#dcfdee"
         offset="1"
         id="stop2858" /></linearGradient></defs><g
     id="g2562"
     transform="matrix(1.3333333,0,0,-1.3333333,0,682.66667)"><g
       id="g2564"><g
         id="g2566"><g
           id="g2572"><g
             id="g2574"><path
               d="M 336.32,511.734 C 289.906,508.689 257.843,470.84 220.065,448.507 v 0 c -41.658,-24.629 -67.159,-14.112 -104.433,4.684 v 0 C 69.605,476.402 11.968,440.359 4.691,390.442 v 0 C -5.711,319.101 133.652,305.239 90.024,195.223 v 0 C 63.404,128.092 87.484,15.651 176.343,1.665 v 0 C 183.39,0.556 190.351,0.017 197.195,0 v 0 h 0.62 c 70.97,0.152 130.287,56.467 163.803,116.33 v 0 c 7.82,13.969 15.912,29.663 30.642,35.935 v 0 c 14.464,6.159 32.04,3.745 49.075,1.333 v 0 c 34.907,-4.945 67.545,-9.891 66.507,58.934 v 0 c -0.892,59.11 -49.072,87.106 -95.16,113.424 v 0 c -20.925,11.949 -20.438,29.1 -9.685,48.676 v 0 C 436.094,434.881 420.896,511.997 344.271,512 v 0 c -2.581,0 -5.229,-0.088 -7.951,-0.266"
               style="fill:url(#linearGradient2586);stroke:none"
               id="path2588" /></g></g></g></g><g
       id="g2590"><g
         id="g2592"
         clip-path="url(#clipPath2596)"><g
           id="g2598"><g
             id="g2600" /><g
             id="g2612"><g
               clip-path="url(#clipPath2604)"
               opacity="0.100006"
               id="g2610"><g
                 transform="translate(423.1704,158.5729)"
                 id="g2608"><path
                   d="m 0,0 c -5.329,5.329 -11.745,9.448 -18.81,12.074 -6.521,2.425 -12.443,6.227 -17.363,11.146 l -8.228,8.228 c 10.455,13.385 16.901,28.88 19.307,44.875 l 4.719,1.265 8.405,31.367 31.367,8.405 8.405,31.367 31.367,8.405 8.405,31.367 -22.963,22.963 -31.367,-8.405 -22.962,22.962 8.405,31.368 -22.963,22.962 -31.367,-8.405 -8.405,-31.367 -28.049,-7.516 c -0.564,12.183 -2.083,24.33 -4.603,36.312 -0.813,3.87 -3.847,6.904 -7.716,7.719 -72.435,15.246 -150.891,-5.271 -207.137,-61.518 -56.247,-56.246 -76.764,-134.702 -61.518,-207.137 0.815,-3.869 3.849,-6.903 7.718,-7.716 31.566,-6.637 64.273,-6.482 95.787,0.455 -1.105,-1.122 -1.727,-2.632 -1.727,-4.208 v -44.077 c 0,-1.592 0.633,-3.118 1.758,-4.243 l 31.167,-31.167 c 1.125,-1.125 2.651,-1.757 4.242,-1.757 h 44.077 c 1.592,0 3.118,0.632 4.243,1.757 l 31.167,31.167 c 1.125,1.125 1.757,2.651 1.757,4.243 v 44.077 c 0,1.151 -0.335,2.266 -0.944,3.222 30.663,-11.26 65.874,-6.439 92.625,14.459 l 8.228,-8.228 c 4.92,-4.92 8.722,-10.842 11.146,-17.364 2.627,-7.064 6.745,-13.48 12.075,-18.809 l 57.355,-57.355 c 8.216,-8.216 21.536,-8.216 29.752,0 v 0 c 8.216,8.216 8.216,21.536 0,29.752 z"
                   style="fill:#2626bc;fill-opacity:1;fill-rule:nonzero;stroke:none"
                   id="path2606" /></g></g></g></g><g
           id="g2614"
           transform="translate(264.9455,244.8187)"><path
             d="m 0,0 c -56.247,-56.247 -134.693,-76.755 -207.128,-61.525 -3.869,0.813 -6.903,3.847 -7.718,7.716 -15.247,72.435 5.271,150.891 61.517,207.138 56.247,56.246 134.703,76.763 207.138,61.517 3.869,-0.815 6.903,-3.849 7.716,-7.719 C 76.755,134.693 56.246,56.246 0,0"
             style="fill:#02ffb3;fill-opacity:1;fill-rule:nonzero;stroke:none"
             id="path2616" /></g><g
           id="g2618"
           transform="translate(52.814,186.006)"><path
             d="M 0,0 C -2.182,2.182 -2.182,5.72 0,7.902 L 229.628,237.53 c 2.182,2.182 5.72,2.182 7.902,0 2.182,-2.182 2.182,-5.72 0,-7.902 L 7.902,0 C 5.72,-2.182 2.182,-2.182 0,0"
             style="fill:#00d890;fill-opacity:1;fill-rule:nonzero;stroke:none"
             id="path2620" /></g><g
           id="g2622"
           transform="translate(330.9654,418.1327)"><path
             d="m 0,0 c -0.649,11.345 -2.148,22.651 -4.495,33.813 -0.813,3.87 -3.847,6.904 -7.716,7.719 -72.435,15.246 -150.891,-5.271 -207.137,-61.517 -56.247,-56.247 -76.764,-134.703 -61.518,-207.138 0.815,-3.869 3.849,-6.903 7.718,-7.716 21.436,-4.507 43.396,-5.858 65.153,-4.106"
             style="fill:none;stroke:#2626bc;stroke-width:10;stroke-linecap:round;stroke-linejoin:round;stroke-miterlimit:10;stroke-dasharray:none;stroke-opacity:1"
             id="path2624" /></g><g
           id="g2626"
           transform="translate(110.1218,243.3138)"><path
             d="m 0,0 c -0.803,0.803 -1.362,1.851 -1.559,3.026 l -13.99,83.333 c -0.511,3.043 1.542,5.924 4.585,6.435 3.043,0.511 5.924,-1.541 6.436,-4.585 L 8.802,8.802 88.209,-4.528 c 3.041,-0.512 5.096,-3.392 4.585,-6.436 -0.511,-3.043 -3.392,-5.096 -6.435,-4.585 L 3.026,-1.559 C 1.851,-1.362 0.803,-0.803 0,0"
             style="fill:#00d890;fill-opacity:1;fill-rule:nonzero;stroke:none"
             id="path2628" /></g><g
           id="g2630"
           transform="translate(151.6419,284.8339)"><path
             d="M 0,0 C -0.803,0.803 -1.362,1.851 -1.559,3.026 L -14.312,78.99 c -0.511,3.043 1.542,5.924 4.585,6.436 3.043,0.51 5.925,-1.543 6.436,-4.586 L 8.802,8.802 80.84,-3.291 c 3.043,-0.512 5.096,-3.393 4.586,-6.436 -0.511,-3.043 -3.393,-5.096 -6.436,-4.585 L 3.026,-1.56 C 1.851,-1.362 0.803,-0.803 0,0"
             style="fill:#00d890;fill-opacity:1;fill-rule:nonzero;stroke:none"
             id="path2632" /></g><g
           id="g2634"
           transform="translate(193.1615,326.3535)"><path
             d="m 0,0 c -0.803,0.803 -1.362,1.851 -1.559,3.026 l -11.516,68.597 c -0.511,3.043 1.542,5.924 4.585,6.435 3.044,0.511 5.924,-1.541 6.436,-4.585 L 8.802,8.802 73.473,-2.054 c 3.044,-0.512 5.096,-3.392 4.585,-6.436 -0.511,-3.043 -3.392,-5.096 -6.435,-4.585 L 3.026,-1.56 C 1.851,-1.362 0.803,-0.803 0,0"
             style="fill:#00d890;fill-opacity:1;fill-rule:nonzero;stroke:none"
             id="path2636" /></g><g
           id="g2638"
           transform="translate(234.6815,367.8736)"><path
             d="m 0,0 c -0.803,0.803 -1.362,1.851 -1.559,3.026 l -10.279,61.229 c -0.511,3.043 1.542,5.924 4.585,6.435 3.044,0.511 5.925,-1.542 6.435,-4.585 l 9.62,-57.303 57.303,-9.62 c 3.043,-0.511 5.096,-3.392 4.585,-6.435 -0.511,-3.043 -3.392,-5.096 -6.435,-4.585 L 3.026,-1.56 C 1.851,-1.362 0.803,-0.803 0,0"
             style="fill:#00d890;fill-opacity:1;fill-rule:nonzero;stroke:none"
             id="path2640" /></g><g
           id="g2642"
           transform="translate(386.9974,205.7931)"><path
             d="M 0,0 -30.338,30.338 -47.138,13.539 -16.8,-16.8 c 4.92,-4.919 8.722,-10.842 11.146,-17.363 v 0 c 2.627,-7.065 6.745,-13.48 12.075,-18.81 l 57.355,-57.355 c 8.216,-8.216 21.536,-8.216 29.752,0 v 0 c 8.216,8.216 8.216,21.537 0,29.753 L 36.173,-23.22 c -5.33,5.329 -11.745,9.447 -18.81,12.074 v 0 C 10.842,-8.721 4.92,-4.92 0,0"
             style="fill:#ffc4df;fill-opacity:1;fill-rule:nonzero;stroke:none"
             id="path2644" /></g><g
           id="g2646"
           transform="translate(466.6288,139.1145)"><path
             d="m 0,0 -43.458,43.458 c -5.33,5.33 -11.745,9.448 -18.81,12.075 -6.521,2.424 -12.444,6.226 -17.363,11.146 l -30.339,30.338 -16.799,-16.8 30.338,-30.338 c 4.92,-4.92 8.721,-10.842 11.146,-17.363 2.627,-7.065 6.745,-13.481 12.074,-18.81 l 43.459,-43.458 z"
             style="fill:#ff7eb8;fill-opacity:1;fill-rule:nonzero;stroke:none"
             id="path2648" /></g><g
           id="g2650"
           transform="translate(396.7123,198.2793)"><path
             d="M 0,0 C -2.666,-3.543 -5.614,-6.944 -8.839,-10.168 -12.063,-13.393 -15.457,-16.334 -19,-19 c -2.079,3.536 -4.596,6.802 -7.51,9.716 L -56.851,21.058 -40.058,37.851 -9.716,7.509 C -6.802,4.596 -3.536,2.079 0,0"
             style="fill:#ff5ba8;fill-opacity:1;fill-rule:nonzero;stroke:none"
             id="path2652" /></g><g
           id="g2654"
           transform="translate(386.9974,205.7931)"><path
             d="M 0,0 -30.338,30.338 -47.138,13.539 -16.8,-16.8 c 4.92,-4.919 8.722,-10.842 11.146,-17.363 v 0 c 2.627,-7.065 6.745,-13.48 12.075,-18.81 l 57.355,-57.355 c 8.216,-8.216 21.536,-8.216 29.752,0 v 0 c 8.216,8.216 8.216,21.537 0,29.753 L 36.173,-23.22 c -5.33,5.329 -11.745,9.447 -18.81,12.074 v 0 C 10.842,-8.721 4.92,-4.92 0,0 Z"
             style="fill:none;stroke:#2626bc;stroke-width:10;stroke-linecap:round;stroke-linejoin:round;stroke-miterlimit:10;stroke-dasharray:none;stroke-opacity:1"
             id="path2656" /></g><g
           id="g2658"
           transform="translate(440.133,135.8579)"><path
             d="m 0,0 v 0 c -2.54,-2.54 -6.659,-2.54 -9.199,0 l -22.567,22.567 c -2.54,2.54 -2.54,6.659 0,9.199 v 0 c 2.54,2.54 6.659,2.54 9.199,0 L 0,9.199 C 2.54,6.659 2.54,2.54 0,0"
             style="fill:#ffa8cf;fill-opacity:1;fill-rule:nonzero;stroke:none"
             id="path2660" /></g><g
           id="g2662"
           transform="translate(370.9026,341.5576)"><path
             d="m 0,0 c 37.685,-37.685 37.685,-98.784 0,-136.469 -37.685,-37.685 -98.784,-37.685 -136.469,0 -37.685,37.685 -37.685,98.784 0,136.469 C -98.784,37.685 -37.685,37.685 0,0"
             style="fill:#8399fe;fill-opacity:1;fill-rule:nonzero;stroke:none"
             id="path2664" /></g><g
           id="g2666"
           transform="translate(390.27,232.8101)"><path
             d="M 0,0 -18.84,-5.05 -41.8,17.91 -73.17,9.5 l -5.07,5.07 5.07,18.93 -17.89,17.9 3.33,12.43 31.37,8.41 17.89,-17.89 5.07,-5.07 31.37,8.4 L 8.68,46.97 C 9.75,31 6.86,14.81 0,0"
             style="fill:#6583fe;fill-opacity:1;fill-rule:nonzero;stroke:none"
             id="path2668" /></g><g
           id="g2670"
           transform="translate(283.6987,367.9489)"><path
             d="m 0,0 c -18.052,-3.602 -35.273,-12.399 -49.265,-26.391 -37.685,-37.685 -37.685,-98.785 0,-136.47 37.685,-37.685 98.784,-37.685 136.469,0 7.804,7.804 13.965,16.621 18.537,26.017"
             style="fill:none;stroke:#2626bc;stroke-width:10;stroke-linecap:round;stroke-linejoin:round;stroke-miterlimit:10;stroke-dasharray:none;stroke-opacity:1"
             id="path2672" /></g><g
           id="g2674"
           transform="translate(354.7452,325.4001)"><path
             d="m 0,0 c 28.761,-28.761 28.761,-75.393 0,-104.154 -28.761,-28.762 -75.393,-28.762 -104.154,0 -28.762,28.761 -28.762,75.393 0,104.154 C -75.393,28.761 -28.761,28.761 0,0"
             style="fill:#02ffb3;fill-opacity:1;fill-rule:nonzero;stroke:none"
             id="path2676" /></g><g
           id="g2678"
           transform="translate(365.05,234.14)"><path
             d="m 0,0 -16.58,16.58 -31.37,-8.41 -5.07,5.07 5.07,18.93 -17.89,17.9 3.33,12.43 31.37,8.41 17.89,-17.89 5.07,-5.07 L 10,52.82 C 13.37,34.89 10.03,15.94 0,0"
             style="fill:#01eca5;fill-opacity:1;fill-rule:nonzero;stroke:none"
             id="path2680" /></g><g
           id="g2682"
           transform="translate(233.1217,216.7075)"><path
             d="m 0,0 h -44.077 c -1.591,0 -3.117,-0.632 -4.243,-1.757 l -31.167,-31.167 c -1.125,-1.126 -1.757,-2.652 -1.757,-4.243 v -44.077 c 0,-1.591 0.632,-3.117 1.757,-4.243 l 31.167,-31.167 c 1.126,-1.125 2.652,-1.757 4.243,-1.757 H 0 c 1.591,0 3.117,0.632 4.243,1.757 l 31.167,31.167 c 1.125,1.126 1.757,2.652 1.757,4.243 v 44.077 c 0,1.591 -0.632,3.117 -1.757,4.243 L 4.243,-1.757 C 3.117,-0.632 1.591,0 0,0"
             style="fill:#ffa8cf;fill-opacity:1;fill-rule:nonzero;stroke:none"
             id="path2684" /></g><g
           id="g2686"
           transform="translate(256.2096,157.502)"><path
             d="m 0,0 c 0,-24.923 -20.204,-45.126 -45.126,-45.126 -24.923,0 -45.127,20.203 -45.127,45.126 0,24.923 20.204,45.126 45.127,45.126 C -20.204,45.126 0,24.923 0,0"
             style="fill:#ff5ba8;fill-opacity:1;fill-rule:nonzero;stroke:none"
             id="path2688" /></g><g
           id="g2690"
           transform="translate(233.1217,216.7075)"><path
             d="m 0,0 h -44.077 c -1.591,0 -3.117,-0.632 -4.243,-1.757 l -31.167,-31.167 c -1.125,-1.126 -1.757,-2.652 -1.757,-4.243 v -44.077 c 0,-1.591 0.632,-3.117 1.757,-4.243 l 31.167,-31.167 c 1.126,-1.125 2.652,-1.757 4.243,-1.757 H 0 c 1.591,0 3.117,0.632 4.243,1.757 l 31.167,31.167 c 1.125,1.126 1.757,2.652 1.757,4.243 v 44.077 c 0,1.591 -0.632,3.117 -1.757,4.243 L 4.243,-1.757 C 3.117,-0.632 1.591,0 0,0 Z"
             style="fill:none;stroke:#2626bc;stroke-width:10;stroke-linecap:round;stroke-linejoin:round;stroke-miterlimit:10;stroke-dasharray:none;stroke-opacity:1"
             id="path2692" /></g><g
           id="g2694"
           transform="translate(198.4036,156.3485)"><path
             d="M 0,0 3.411,8.689 6.822,0 Z M 8.142,24.005 C 7.39,25.919 5.543,27.178 3.487,27.178 H 3.335 c -2.056,0 -3.903,-1.259 -4.654,-3.173 l -14.937,-38.049 c -1.009,-2.571 0.256,-5.473 2.827,-6.482 2.569,-1.007 5.471,0.257 6.481,2.827 L -3.926,-10 h 14.674 l 3.022,-7.699 c 0.773,-1.97 2.66,-3.174 4.656,-3.174 0.607,0 1.225,0.112 1.825,0.347 2.571,1.009 3.836,3.911 2.828,6.482 z"
             style="fill:#ffffff;fill-opacity:1;fill-rule:nonzero;stroke:none"
             id="path2696" /></g><g
           id="g2698"
           transform="translate(235.3651,176.6684)"><path
             d="m 0,0 h -1.859 v 1.858 c 0,2.762 -2.239,5 -5,5 -2.761,0 -5,-2.238 -5,-5 V 0 h -1.858 c -2.762,0 -5,-2.239 -5,-5 0,-2.761 2.238,-5 5,-5 h 1.858 v -1.859 c 0,-2.761 2.239,-5 5,-5 2.761,0 5,2.239 5,5 V -10 H 0 c 2.761,0 5,2.239 5,5 0,2.761 -2.239,5 -5,5"
             style="fill:#ffffff;fill-opacity:1;fill-rule:nonzero;stroke:none"
             id="path2700" /></g><g
           id="g2702"
           transform="translate(421.8571,439.9596)"><path
             d="m 0,0 -22.962,22.962 -31.368,-8.404 -8.404,-31.368 22.962,-22.962 31.367,8.405 z"
             style="fill:#97ffd2;fill-opacity:1;fill-rule:nonzero;stroke:none"
             id="path2704" /></g><g
           id="g2706"
           transform="translate(436.4146,385.6299)"><path
             d="m 0,0 -22.962,22.962 -31.368,-8.404 -8.404,-31.368 22.962,-22.962 31.367,8.405 z"
             style="fill:#00d890;fill-opacity:1;fill-rule:nonzero;stroke:none"
             id="path2708" /></g><g
           id="g2710"
           transform="translate(382.085,400.1875)"><path
             d="m 0,0 -22.962,22.962 -31.368,-8.404 -8.404,-31.368 22.962,-22.962 31.367,8.405 z"
             style="fill:#02ffb3;fill-opacity:1;fill-rule:nonzero;stroke:none"
             id="path2712" /></g><g
           id="g2714"
           transform="translate(396.6426,345.8578)"><path
             d="m 0,0 -22.962,22.962 -31.368,-8.404 -8.404,-31.368 22.962,-22.962 31.367,8.405 z"
             style="fill:#97ffd2;fill-opacity:1;fill-rule:nonzero;stroke:none"
             id="path2716" /></g><g
           id="g2718"
           transform="translate(342.3129,360.4154)"><path
             d="m 0,0 -22.962,22.962 -31.368,-8.404 -8.404,-31.368 22.962,-22.962 31.367,8.405 z"
             style="fill:#00d890;fill-opacity:1;fill-rule:nonzero;stroke:none"
             id="path2720" /></g><g
           id="g2722"
           transform="translate(490.7443,371.0723)"><path
             d="m 0,0 -22.962,22.962 -31.368,-8.404 -8.404,-31.368 22.962,-22.962 31.367,8.405 z"
             style="fill:#97ffd2;fill-opacity:1;fill-rule:nonzero;stroke:none"
             id="path2724" /></g><g
           id="g2726"
           transform="translate(450.9722,331.3002)"><path
             d="m 0,0 -22.962,22.962 -31.368,-8.404 -8.404,-31.368 22.962,-22.962 31.367,8.405 z"
             style="fill:#02ffb3;fill-opacity:1;fill-rule:nonzero;stroke:none"
             id="path2728" /></g><g
           id="g2730"
           transform="translate(411.2002,291.5282)"><path
             d="m 0,0 -22.962,22.962 -31.368,-8.404 -8.404,-31.368 22.962,-22.962 31.367,8.405 z"
             style="fill:#00d890;fill-opacity:1;fill-rule:nonzero;stroke:none"
             id="path2732" /></g><g
           id="g2734"
           transform="translate(356.8705,306.0858)"><path
             d="m 0,0 -22.962,22.962 -31.368,-8.404 -8.404,-31.368 22.962,-22.962 31.367,8.405 z"
             style="fill:#02ffb3;fill-opacity:1;fill-rule:nonzero;stroke:none"
             id="path2736" /></g><g
           id="g2738"
           transform="translate(421.8571,439.9596)"><path
             d="m 0,0 -22.962,22.962 -31.368,-8.404 -8.404,-31.368 22.962,-22.962 31.367,8.405 z"
             style="fill:none;stroke:#2626bc;stroke-width:10;stroke-linecap:round;stroke-linejoin:round;stroke-miterlimit:10;stroke-dasharray:none;stroke-opacity:1"
             id="path2740" /></g><g
           id="g2742"
           transform="translate(436.4146,385.6299)"><path
             d="m 0,0 -22.962,22.962 -31.368,-8.404 -8.404,-31.368 22.962,-22.962 31.367,8.405 z"
             style="fill:none;stroke:#2626bc;stroke-width:10;stroke-linecap:round;stroke-linejoin:round;stroke-miterlimit:10;stroke-dasharray:none;stroke-opacity:1"
             id="path2744" /></g><g
           id="g2746"
           transform="translate(382.085,400.1875)"><path
             d="m 0,0 -22.962,22.962 -31.368,-8.404 -8.404,-31.368 22.962,-22.962 31.367,8.405 z"
             style="fill:none;stroke:#2626bc;stroke-width:10;stroke-linecap:round;stroke-linejoin:round;stroke-miterlimit:10;stroke-dasharray:none;stroke-opacity:1"
             id="path2748" /></g><g
           id="g2750"
           transform="translate(396.6426,345.8578)"><path
             d="m 0,0 -22.962,22.962 -31.368,-8.404 -8.404,-31.368 22.962,-22.962 31.367,8.405 z"
             style="fill:none;stroke:#2626bc;stroke-width:10;stroke-linecap:round;stroke-linejoin:round;stroke-miterlimit:10;stroke-dasharray:none;stroke-opacity:1"
             id="path2752" /></g><g
           id="g2754"
           transform="translate(302.5408,320.6433)"><path
             d="M 0,0 31.367,8.405 39.772,39.772 16.81,62.734 -14.558,54.33 -22.962,22.962 Z"
             style="fill:none;stroke:#2626bc;stroke-width:10;stroke-linecap:round;stroke-linejoin:round;stroke-miterlimit:10;stroke-dasharray:none;stroke-opacity:1"
             id="path2756" /></g><g
           id="g2758"
           transform="translate(490.7443,371.0723)"><path
             d="m 0,0 -22.962,22.962 -31.368,-8.404 -8.404,-31.368 22.962,-22.962 31.367,8.405 z"
             style="fill:none;stroke:#2626bc;stroke-width:10;stroke-linecap:round;stroke-linejoin:round;stroke-miterlimit:10;stroke-dasharray:none;stroke-opacity:1"
             id="path2760" /></g><g
           id="g2762"
           transform="translate(450.9722,331.3002)"><path
             d="m 0,0 -22.962,22.962 -31.368,-8.404 -8.404,-31.368 22.962,-22.962 31.367,8.405 z"
             style="fill:none;stroke:#2626bc;stroke-width:10;stroke-linecap:round;stroke-linejoin:round;stroke-miterlimit:10;stroke-dasharray:none;stroke-opacity:1"
             id="path2764" /></g><g
           id="g2766"
           transform="translate(371.4281,251.7561)"><path
             d="M 0,0 31.367,8.405 39.772,39.772 16.81,62.734 -14.558,54.33 -22.962,22.962 Z"
             style="fill:none;stroke:#2626bc;stroke-width:10;stroke-linecap:round;stroke-linejoin:round;stroke-miterlimit:10;stroke-dasharray:none;stroke-opacity:1"
             id="path2768" /></g><g
           id="g2770"
           transform="translate(356.87,306.0901)"><path
             d="m 0,0 -5.07,-18.93 -3.33,-12.44 -31.37,-8.41 -17.89,17.9 -5.07,5.07 8.4,31.36 31.37,8.41 z"
             style="fill:none;stroke:#2626bc;stroke-width:10;stroke-linecap:round;stroke-linejoin:round;stroke-miterlimit:10;stroke-dasharray:none;stroke-opacity:1"
             id="path2772" /></g><g
           id="g2774"
           transform="translate(281.4463,218.3834)"><path
             d="m 0,0 c -16.699,0 -30.237,10.06 -30.237,22.47 0,12.409 13.538,22.469 30.237,22.469 16.699,0 30.237,-10.06 30.237,-22.469 C 30.237,10.06 16.699,0 0,0"
             style="fill:#00d890;fill-opacity:1;fill-rule:nonzero;stroke:none"
             id="path2776" /></g><g
           id="g2778"
           transform="translate(281.4463,241.9645)"><path
             d="m 0,0 c 0,-5.277 -4.278,-9.555 -9.555,-9.555 -5.277,0 -9.556,4.278 -9.556,9.555 0,5.277 4.279,9.555 9.556,9.555 C -4.278,9.555 0,5.277 0,0"
             style="fill:#97ffd2;fill-opacity:1;fill-rule:nonzero;stroke:none"
             id="path2780" /></g><g
           id="g2782"
           transform="translate(277.8261,243.2655)"><path
             d="m 0,0 c 0,-2.761 -2.239,-5 -5,-5 -2.761,0 -5,2.239 -5,5 0,2.761 2.239,5 5,5 2.761,0 5,-2.239 5,-5"
             style="fill:#8399fe;fill-opacity:1;fill-rule:nonzero;stroke:none"
             id="path2784" /></g><g
           id="g2786"
           transform="translate(327.1,218.3834)"><path
             d="m 0,0 c 0,-2.761 -2.239,-5 -5,-5 -2.761,0 -5,2.239 -5,5 0,2.761 2.239,5 5,5 2.761,0 5,-2.239 5,-5"
             style="fill:#dcfdee;fill-opacity:1;fill-rule:nonzero;stroke:none"
             id="path2788" /></g><g
           id="g2790"
           transform="translate(332.1,232.4093)"><path
             d="m 0,0 c 0,-2.761 -2.239,-5 -5,-5 -2.761,0 -5,2.239 -5,5 0,2.761 2.239,5 5,5 2.761,0 5,-2.239 5,-5"
             style="fill:#00d890;fill-opacity:1;fill-rule:nonzero;stroke:none"
             id="path2792" /></g><g
           id="g2794"
           transform="translate(254.3056,269.595)"><path
             d="m 0,0 c 0,-2.761 -2.239,-5 -5,-5 -2.761,0 -5,2.239 -5,5 0,2.761 2.239,5 5,5 2.761,0 5,-2.239 5,-5"
             style="fill:#00d890;fill-opacity:1;fill-rule:nonzero;stroke:none"
             id="path2796" /></g><g
           id="g2798"
           transform="translate(281.2978,304.7709)"><path
             d="m 0,0 c 0,-2.761 -2.239,-5 -5,-5 -2.761,0 -5,2.239 -5,5 0,2.761 2.239,5 5,5 2.761,0 5,-2.239 5,-5"
             style="fill:#01eca5;fill-opacity:1;fill-rule:nonzero;stroke:none"
             id="path2800" /></g><g
           id="g2802"
           transform="translate(317.1,266.31)"><path
             d="m 0,0 -5.07,-18.93 -2.37,-8.84"
             style="fill:none;stroke:#2626bc;stroke-width:10;stroke-linecap:round;stroke-linejoin:round;stroke-miterlimit:10;stroke-dasharray:none;stroke-opacity:1"
             id="path2804" /></g><g
           id="g2806"
           transform="translate(294.136,289.2761)"><path
             d="M 0,0 -30.028,-8.046"
             style="fill:none;stroke:#2626bc;stroke-width:10;stroke-linecap:round;stroke-linejoin:round;stroke-miterlimit:10;stroke-dasharray:none;stroke-opacity:1"
             id="path2808" /></g><g
           id="g2810"
           transform="translate(371.5393,104.8914)"><path
             d="M 0,0 2.597,-7.992 H 11 l -6.798,-4.939 2.596,-7.992 -6.798,4.939 -6.798,-4.939 2.596,7.992 -6.798,4.939 h 8.403 z"
             style="fill:none;stroke:#01eca5;stroke-width:10;stroke-linecap:round;stroke-linejoin:round;stroke-miterlimit:10;stroke-dasharray:none;stroke-opacity:1"
             id="path2812" /></g><g
           id="g2814"
           transform="translate(435.2672,254.4616)"><path
             d="M 0,0 2.597,-7.992 H 11 l -6.798,-4.939 2.596,-7.992 -6.798,4.939 -6.798,-4.939 2.596,7.992 -6.798,4.939 h 8.403 z"
             style="fill:none;stroke:#ff7eb8;stroke-width:10;stroke-linecap:round;stroke-linejoin:round;stroke-miterlimit:10;stroke-dasharray:none;stroke-opacity:1"
             id="path2816" /></g><g
           id="g2818"
           transform="translate(118.7585,431.9158)"><path
             d="M 0,0 -10.5,10.5 0,21 10.5,10.5 Z"
             style="fill:none;stroke:#8399fe;stroke-width:10;stroke-linecap:round;stroke-linejoin:round;stroke-miterlimit:10;stroke-dasharray:none;stroke-opacity:1"
             id="path2820" /></g><g
           id="g2822"
           transform="translate(463.2816,189.1747)"><path
             d="M 0,0 -10.5,10.5 0,21 10.5,10.5 Z"
             style="fill:none;stroke:#8399fe;stroke-width:10;stroke-linecap:round;stroke-linejoin:round;stroke-miterlimit:10;stroke-dasharray:none;stroke-opacity:1"
             id="path2824" /></g><g
           id="g2826"
           transform="translate(51.1776,120.4286)"><path
             d="M 0,0 -10.5,10.5 0,21 10.5,10.5 Z"
             style="fill:none;stroke:#01eca5;stroke-width:10;stroke-linecap:round;stroke-linejoin:round;stroke-miterlimit:10;stroke-dasharray:none;stroke-opacity:1"
             id="path2828" /></g></g></g><g
       id="g2830"><g
         id="g2832"
         clip-path="url(#clipPath2836)"><g
           id="g2838"><g
             id="g2840"><g
               id="g2846"><g
                 id="g2848"><path
                   d="m -32.079,95.038 c -23.423,54.774 -46.584,75.804 -124.145,135.196 -52.998,40.584 -29.401,92.717 -9.407,112.711 58.876,58.876 83.995,82.063 59.47,119.965 -78.449,121.24 -254.135,-97.439 -328.768,5.2 C -492.37,533.048 -532.014,429.467 -532,305.357 -531.976,88.234 -276.588,95.781 -120.004,26.852 -49.757,-4.072 5.315,7.59 -32.079,95.038"
                   style="fill:url(#linearGradient2860);stroke:none"
                   id="path2862" /></g></g></g></g></g></g></g></svg>
