<?xml version="1.0" encoding="UTF-8"?>
<svg xmlns="http://www.w3.org/2000/svg" xmlns:xlink="http://www.w3.org/1999/xlink" version="1.1" id="Capa_1" x="0px" y="0px" viewBox="0 0 512 512" style="enable-background:new 0 0 512 512;" xml:space="preserve" width="512" height="512">
<g>
	<g>
		<linearGradient id="SVGID_1_" gradientUnits="userSpaceOnUse" x1="117.9346" y1="407.333" x2="439.9112" y2="85.3565">
			<stop offset="0" style="stop-color:#FFFFFF;stop-opacity:0"/>
			<stop offset="0.2617" style="stop-color:#EDEDFF;stop-opacity:0.4161"/>
			<stop offset="0.629" style="stop-color:#D8D8FF"/>
		</linearGradient>
		<path style="fill:url(#SVGID_1_);" d="M20.337,133.512C-3.63,172.91-6.156,241.125,11.4,283.768&#10;&#9;&#9;&#9;c15.377,37.351,45.966,72.409,86.12,76.801c14.766,1.615,29.858-1.024,44.472,1.638c50.257,9.152,68.952,71.09,108.01,104.014&#10;&#9;&#9;&#9;c27.182,22.913,64.898,31.021,100.174,26.607c35.276-4.414,68.302-20.363,97.376-40.824&#10;&#9;&#9;&#9;c22.957-16.157,44.436-36.022,55.764-61.707c23.744-53.839-4.19-118.501-47.587-158.239&#10;&#9;&#9;&#9;c-13.516-12.377-28.581-23.294-39.875-37.727s-18.48-33.695-13.099-51.214c4.293-13.977,15.849-24.812,20.227-38.763&#10;&#9;&#9;&#9;c5.958-18.984-3.035-40.281-17.802-53.616s-34.308-20.039-53.666-24.64C270.411,6.818,92.691,14.574,20.337,133.512z"/>
	</g>
	<g>
		<g>
			<g style="opacity:0.1;">
				<g>
					<g>
						<path style="fill:#0000CB;" d="M358.923,316.467c-1.28,0-2.559-0.488-3.536-1.464c-1.953-1.953-1.953-5.119,0-7.071&#10;&#9;&#9;&#9;&#9;&#9;&#9;&#9;l6.753-6.754c1.952-1.953,5.118-1.952,7.071-0.001c1.953,1.953,1.953,5.119,0,7.071l-6.753,6.754&#10;&#9;&#9;&#9;&#9;&#9;&#9;&#9;C361.482,315.979,360.203,316.467,358.923,316.467z"/>
					</g>
					<g>
						<g>
							<path style="fill:#0000CB;" d="M343.444,304.932c-0.428,0-0.864-0.056-1.297-0.171c-2.667-0.715-4.25-3.457-3.536-6.124&#10;&#9;&#9;&#9;&#9;&#9;&#9;&#9;&#9;l2.472-9.226c0.715-2.668,3.457-4.242,6.124-3.536c2.667,0.715,4.25,3.457,3.536,6.124l-2.472,9.226&#10;&#9;&#9;&#9;&#9;&#9;&#9;&#9;&#9;C347.672,303.459,345.652,304.932,343.444,304.932z"/>
						</g>
						<g>
							<path style="fill:#0000CB;" d="M370.456,331.949c-2.208,0-4.228-1.473-4.827-3.707c-0.715-2.667,0.868-5.408,3.535-6.123&#10;&#9;&#9;&#9;&#9;&#9;&#9;&#9;&#9;l9.226-2.473c2.669-0.714,5.41,0.867,6.124,3.535c0.715,2.667-0.868,5.408-3.535,6.123l-9.226,2.473&#10;&#9;&#9;&#9;&#9;&#9;&#9;&#9;&#9;C371.32,331.894,370.884,331.949,370.456,331.949z"/>
						</g>
					</g>
				</g>
				<g>
					<g>
						<path style="fill:#0000CB;" d="M284.513,442.994h-9.551c-2.761,0-5-2.238-5-5s2.239-5,5-5h9.551c2.761,0,5,2.238,5,5&#10;&#9;&#9;&#9;&#9;&#9;&#9;&#9;S287.274,442.994,284.513,442.994z"/>
					</g>
					<g>
						<g>
							<path style="fill:#0000CB;" d="M272.177,423.891c-1.729,0-3.409-0.896-4.335-2.501c-1.381-2.392-0.562-5.449,1.83-6.83&#10;&#9;&#9;&#9;&#9;&#9;&#9;&#9;&#9;l8.271-4.775c2.394-1.382,5.449-0.562,6.83,1.83s0.562,5.449-1.83,6.83l-8.271,4.775&#10;&#9;&#9;&#9;&#9;&#9;&#9;&#9;&#9;C273.884,423.675,273.025,423.891,272.177,423.891z"/>
						</g>
						<g>
							<path style="fill:#0000CB;" d="M280.438,466.875c-0.848,0-1.708-0.216-2.496-0.671l-8.271-4.776&#10;&#9;&#9;&#9;&#9;&#9;&#9;&#9;&#9;c-2.391-1.381-3.21-4.439-1.83-6.83c1.38-2.393,4.438-3.212,6.831-1.83l8.271,4.776c2.391,1.381,3.21,4.439,1.83,6.83&#10;&#9;&#9;&#9;&#9;&#9;&#9;&#9;&#9;C283.847,465.979,282.167,466.875,280.438,466.875z"/>
						</g>
					</g>
				</g>
			</g>
			<g style="opacity:0.1;">
				<g>
					<path style="fill:#0000CB;" d="M319.51,259.031c-1.071,0-2.16-0.169-3.231-0.524l-6.02-1.998&#10;&#9;&#9;&#9;&#9;&#9;&#9;c-2.621-0.869-4.041-3.699-3.171-6.32c0.87-2.621,3.703-4.04,6.32-3.17l6.021,1.998c0.149,0.05,0.308-0.033,0.357-0.18&#10;&#9;&#9;&#9;&#9;&#9;&#9;l10.328-31.115c0.637-1.919,2.368-3.266,4.385-3.412c2.016-0.141,3.923,0.938,4.83,2.745l6.749,13.454&#10;&#9;&#9;&#9;&#9;&#9;&#9;c1.238,2.469,0.241,5.474-2.228,6.712c-2.469,1.236-5.472,0.239-6.711-2.228l-1.336-2.665l-6.525,19.66&#10;&#9;&#9;&#9;&#9;&#9;&#9;C327.846,256.298,323.82,259.031,319.51,259.031z"/>
				</g>
				<g>
					<g>
						<path style="fill:#0000CB;" d="M138.208,340.019c-1.832,0-3.596-1.011-4.473-2.76c-1.238-2.468-0.241-5.473,2.228-6.711&#10;&#9;&#9;&#9;&#9;&#9;&#9;&#9;l5.67-2.844c0.028-0.014,0.104-0.052,0.141-0.163c0.037-0.11-0.001-0.187-0.016-0.215l-14.699-29.306&#10;&#9;&#9;&#9;&#9;&#9;&#9;&#9;c-0.907-1.809-0.635-3.984,0.688-5.514c1.323-1.529,3.438-2.112,5.356-1.474l14.286,4.742c2.621,0.87,4.04,3.699,3.17,6.32&#10;&#9;&#9;&#9;&#9;&#9;&#9;&#9;c-0.871,2.62-3.701,4.042-6.321,3.17l-2.829-0.938l9.287,18.515c1.231,2.455,1.433,5.242,0.568,7.85&#10;&#9;&#9;&#9;&#9;&#9;&#9;&#9;c-0.865,2.606-2.694,4.721-5.149,5.952l-5.67,2.844C139.727,339.848,138.962,340.019,138.208,340.019z"/>
					</g>
					<g>
						<g>
							<path style="fill:#0000CB;" d="M87.839,280.996h-6.343c-2.761,0-5-2.238-5-5s2.239-5,5-5h6.343&#10;&#9;&#9;&#9;&#9;&#9;&#9;&#9;&#9;c0.156,0,0.282-0.127,0.282-0.282v-32.785c0-2.26,1.515-4.238,3.696-4.827l28.321-7.648c1.502-0.404,3.108-0.089,4.344,0.857&#10;&#9;&#9;&#9;&#9;&#9;&#9;&#9;&#9;c1.235,0.946,1.96,2.413,1.96,3.97v32.785c0,5.67-4.613,10.282-10.282,10.282h-6.343c-2.761,0-5-2.238-5-5s2.239-5,5-5h6.343&#10;&#9;&#9;&#9;&#9;&#9;&#9;&#9;&#9;c0.156,0,0.282-0.127,0.282-0.282V236.81l-18.321,4.948v28.956C98.121,276.384,93.508,280.996,87.839,280.996z"/>
						</g>
					</g>
				</g>
			</g>
			<path style="opacity:0.1;fill:#0000CB;" d="M321.716,169.366c23.868-7.558,47.371-18.655,59.273-34.643&#10;&#9;&#9;&#9;&#9;c0.935-1.256,0.924-2.978-0.006-4.238c-6.376-8.65-31.065-42.674-43.421-67.416H160.476l-29.95,83.67&#10;&#9;&#9;&#9;&#9;c-0.61,1.703,0.148,3.589,1.764,4.403c3.948,1.987,11.97,5.713,23.366,9.546l0.225,36.671c0.007,1.153,0.076,2.304,0.208,3.449&#10;&#9;&#9;&#9;&#9;l1.529,13.343c0.139,1.215,0.348,2.422,0.625,3.613l42.784,183.883c2.924,12.569,1.762,25.742-3.317,37.605L187.422,466.5&#10;&#9;&#9;&#9;&#9;l4.083-1.062l-28.765,11.431c-2.183,0.867-3.616,2.979-3.616,5.328c0,3.167,2.567,5.734,5.734,5.734h30.168&#10;&#9;&#9;&#9;&#9;c12.35,0,23.33-7.862,27.309-19.553l13.616-22.381l2.564-0.442c0.43-0.074,0.841-0.184,1.252-0.294v42.67c0,2.762,2.239,5,5,5&#10;&#9;&#9;&#9;&#9;s5-2.238,5-5v-45.217c0-1.539-0.71-2.897-1.803-3.815c2.147-3.777,2.509-8.549,0.307-12.855l-5.937-11.608&#10;&#9;&#9;&#9;&#9;c-2.174-4.251-7.888-4.779-10.86-1.323L218.75,269.597l78.32,85.231c5.463,5.945,9.463,13.084,11.681,20.847l8.098,28.342&#10;&#9;&#9;&#9;&#9;l-7.222,16.748c-0.93,2.157-0.451,4.664,1.211,6.325c2.239,2.239,5.87,2.239,8.109,0l21.332-21.332&#10;&#9;&#9;&#9;&#9;c8.733-8.733,10.938-22.056,5.484-33.136l-6.197-25.454l1.5-2.125c0.252-0.356,0.465-0.725,0.677-1.094l30.173,30.173&#10;&#9;&#9;&#9;&#9;c0.977,0.977,2.256,1.465,3.536,1.465c1.279,0,2.559-0.488,3.536-1.465c1.953-1.952,1.953-5.118,0-7.07l-31.973-31.974&#10;&#9;&#9;&#9;&#9;c-1.088-1.088-2.551-1.547-3.972-1.422c-1.153-4.189-4.271-7.82-8.873-9.307l-12.406-4.01c-4.117-1.331-8.118,1.559-8.581,5.494&#10;&#9;&#9;&#9;&#9;l-68.297-104.765l53.717-27.834C308.798,187.948,316.847,179.514,321.716,169.366z M324.276,385.415&#10;&#9;&#9;&#9;&#9;c-0.242,1.225-0.576,2.432-1.003,3.615L324.276,385.415z"/>
			<g>
				<g>
					<g>
						<path style="fill:#FFC498;" d="M155.56,121.079l0.321,52.28c0.007,1.153,0.076,2.304,0.208,3.449l1.529,13.343&#10;&#9;&#9;&#9;&#9;&#9;&#9;&#9;c0.139,1.215,0.348,2.422,0.625,3.613l42.784,183.883c2.924,12.569,1.762,25.742-3.317,37.605L187.422,442.5l26.178-6.81&#10;&#9;&#9;&#9;&#9;&#9;&#9;&#9;l18.161-43.328l-17.199-194.005l5.663-84.686L155.56,121.079z"/>
						<path style="fill:#FFAA66;" d="M214.562,198.356l2.327-34.791l-32.564,37.255c-3.027,3.463-4.42,8.059-3.825,12.62&#10;&#9;&#9;&#9;&#9;&#9;&#9;&#9;l1.553,11.905c0.431,3.306,1.883,6.396,4.154,8.837l34.898,37.977L214.562,198.356z"/>
						<path style="fill:#FFAA66;" d="M220.225,113.67l-64.665,7.409l0.243,39.659c4.363,1.464,9.202,2.942,14.517,4.344&#10;&#9;&#9;&#9;&#9;&#9;&#9;&#9;l-0.622,2.268c-0.482,1.755,0.428,3.587,2.116,4.266c6.212,2.499,21.936,7.919,43.925,9.131L220.225,113.67z"/>
						
							<path style="fill:none;stroke:#0000CB;stroke-width:10;stroke-linecap:round;stroke-linejoin:round;stroke-miterlimit:10;" d="&#10;&#9;&#9;&#9;&#9;&#9;&#9;&#9;M155.84,166.6l0.042,6.76c0.007,1.152,0.076,2.304,0.208,3.449l1.529,13.343c0.139,1.215,0.348,2.422,0.625,3.613&#10;&#9;&#9;&#9;&#9;&#9;&#9;&#9;l42.784,183.883c2.924,12.568,1.762,25.742-3.317,37.605L187.422,442.5l26.178-6.81l18.161-43.328l-12.896-145.468"/>
					</g>
					<g>
						<path style="fill:#8282FF;" d="M230.855,389.944l-25.488,40.802c-2.617,4.19-6.422,7.506-10.931,9.527l-31.696,12.596&#10;&#9;&#9;&#9;&#9;&#9;&#9;&#9;c-2.183,0.868-3.616,2.979-3.616,5.328l0,0c0,3.167,2.567,5.734,5.734,5.734l30.168,0c12.35,0,23.33-7.862,27.309-19.553&#10;&#9;&#9;&#9;&#9;&#9;&#9;&#9;l13.616-22.381l2.564-0.442c8.998-1.551,13.914-11.381,9.756-19.51l-5.937-11.609&#10;&#9;&#9;&#9;&#9;&#9;&#9;&#9;C239.997,385.869,233.572,385.593,230.855,389.944z"/>
						
							<path style="fill:none;stroke:#0000CB;stroke-width:10;stroke-linecap:round;stroke-linejoin:round;stroke-miterlimit:10;" d="&#10;&#9;&#9;&#9;&#9;&#9;&#9;&#9;M230.855,389.944l-25.488,40.802c-2.617,4.19-6.422,7.506-10.931,9.527l-31.696,12.596c-2.183,0.868-3.616,2.979-3.616,5.328&#10;&#9;&#9;&#9;&#9;&#9;&#9;&#9;l0,0c0,3.167,2.567,5.734,5.734,5.734l30.168,0c12.35,0,23.33-7.862,27.309-19.553l13.616-22.381l2.564-0.442&#10;&#9;&#9;&#9;&#9;&#9;&#9;&#9;c8.998-1.551,13.914-11.381,9.756-19.51l-5.937-11.609C239.997,385.869,233.572,385.593,230.855,389.944z"/>
						
							<line style="fill:none;stroke:#0000CB;stroke-width:10;stroke-linecap:round;stroke-linejoin:round;stroke-miterlimit:10;" x1="244.766" y1="418.714" x2="244.766" y2="463.931"/>
					</g>
				</g>
				<path style="fill:#FFD5BA;" d="M244.883,197.066l53.717-27.834c14.103-7.308,24.129-20.619,27.259-36.191l5.776-28.738h-83.924&#10;&#9;&#9;&#9;&#9;&#9;l-63.386,72.518c-3.027,3.463-4.42,8.059-3.825,12.62l1.553,11.905c0.431,3.306,1.883,6.396,4.154,8.837L297.07,330.828&#10;&#9;&#9;&#9;&#9;&#9;c5.463,5.945,9.463,13.084,11.681,20.847l9.247,32.364l11.358-40.93l-4.487-23.348L244.883,197.066z"/>
				<path style="fill:#FFC498;" d="M325.859,133.041l5.776-28.739h-83.924l-62.626,71.649c14.116,3.756,36.598,7.323,64.057,3.197&#10;&#9;&#9;&#9;&#9;&#9;l0.183,1.41c0.252,1.941,2.013,3.318,3.957,3.093c4.628-0.536,13.505-1.682,24.59-3.678l20.729-10.741&#10;&#9;&#9;&#9;&#9;&#9;C312.703,161.925,322.729,148.613,325.859,133.041z"/>
				<path style="fill:none;stroke:#0000CB;stroke-width:10;stroke-linecap:round;stroke-linejoin:round;stroke-miterlimit:10;" d="&#10;&#9;&#9;&#9;&#9;&#9;M244.883,197.066l53.717-27.834c14.103-7.308,24.129-20.619,27.259-36.191l5.776-28.738h-83.924l-63.386,72.518&#10;&#9;&#9;&#9;&#9;&#9;c-3.027,3.463-4.42,8.059-3.825,12.62l1.553,11.905c0.431,3.306,1.883,6.396,4.154,8.837L297.07,330.828&#10;&#9;&#9;&#9;&#9;&#9;c5.463,5.945,9.463,13.084,11.681,20.847l9.247,32.364l11.358-40.93l-4.487-23.348L244.883,197.066z"/>
				<g>
					<path style="fill:#8282FF;" d="M337.562,39.069H160.475l-29.95,83.67c-0.61,1.703,0.148,3.589,1.764,4.403&#10;&#9;&#9;&#9;&#9;&#9;&#9;c5.473,2.755,18.74,8.85,38.033,13.942l-0.622,2.262c-0.482,1.755,0.427,3.588,2.115,4.267&#10;&#9;&#9;&#9;&#9;&#9;&#9;c9.024,3.631,38.111,13.428,77.325,7.536l0.183,1.41c0.252,1.941,2.013,3.318,3.957,3.093&#10;&#9;&#9;&#9;&#9;&#9;&#9;c18.125-2.099,101.356-13.528,127.707-48.928c0.935-1.256,0.924-2.978-0.006-4.238&#10;&#9;&#9;&#9;&#9;&#9;&#9;C374.606,97.836,349.918,63.812,337.562,39.069z"/>
					<path style="fill:#6C6CFF;" d="M249.139,155.145c-39.212,5.895-68.302-3.9-77.325-7.53c-1.688-0.679-2.597-2.511-2.116-4.266&#10;&#9;&#9;&#9;&#9;&#9;&#9;l0.622-2.268c-19.294-5.089-32.559-11.186-38.031-13.941c-1.616-0.814-2.373-2.699-1.763-4.403l29.951-83.666h71.135&#10;&#9;&#9;&#9;&#9;&#9;&#9;C240.376,87.78,249.139,155.145,249.139,155.145z"/>
					<path style="fill:none;stroke:#0000CB;stroke-width:10;stroke-linecap:round;stroke-linejoin:round;stroke-miterlimit:10;" d="&#10;&#9;&#9;&#9;&#9;&#9;&#9;M160.476,39.069l-29.95,83.67c-0.61,1.704,0.148,3.589,1.764,4.403c5.473,2.755,18.74,8.85,38.033,13.942l-0.622,2.262&#10;&#9;&#9;&#9;&#9;&#9;&#9;c-0.482,1.755,0.427,3.588,2.115,4.267c9.024,3.631,38.111,13.428,77.325,7.536l0.183,1.409&#10;&#9;&#9;&#9;&#9;&#9;&#9;c0.252,1.941,2.013,3.318,3.957,3.093c11.75-1.36,50.859-6.646,84.098-19.838"/>
					<path style="fill:none;stroke:#0000CB;stroke-width:10;stroke-linecap:round;stroke-linejoin:round;stroke-miterlimit:10;" d="&#10;&#9;&#9;&#9;&#9;&#9;&#9;M363.809,126.371c6.911-4.606,12.825-9.798,17.18-15.648c0.935-1.256,0.924-2.978-0.006-4.238&#10;&#9;&#9;&#9;&#9;&#9;&#9;c-6.376-8.65-31.065-42.674-43.421-67.416"/>
					<path style="fill:none;stroke:#0000CB;stroke-width:10;stroke-linecap:round;stroke-linejoin:round;stroke-miterlimit:10;" d="&#10;&#9;&#9;&#9;&#9;&#9;&#9;M170.323,141.084c0,0,5.547-19.878,9.742-49.949"/>
					<g>
						
							<path style="fill:none;stroke:#0000CB;stroke-width:10;stroke-linecap:round;stroke-linejoin:round;stroke-miterlimit:10;" d="&#10;&#9;&#9;&#9;&#9;&#9;&#9;&#9;M249.141,155.149c0,0-8.763-67.366-17.525-116.079"/>
					</g>
				</g>
				<g>
					<g>
						<path style="fill:#8282FF;" d="M313.297,304.106l10.829,46.874c1.112,4.814,0.766,9.849-0.993,14.466l-13.506,31.319&#10;&#9;&#9;&#9;&#9;&#9;&#9;&#9;c-0.93,2.157-0.451,4.664,1.211,6.325l0,0c2.239,2.239,5.87,2.239,8.109,0l21.332-21.332&#10;&#9;&#9;&#9;&#9;&#9;&#9;&#9;c8.733-8.733,10.938-22.056,5.484-33.137l-6.198-25.454l1.5-2.125c5.266-7.459,1.791-17.886-6.897-20.695l-12.407-4.01&#10;&#9;&#9;&#9;&#9;&#9;&#9;&#9;C316.879,294.759,312.142,299.108,313.297,304.106z"/>
						
							<path style="fill:none;stroke:#0000CB;stroke-width:10;stroke-linecap:round;stroke-linejoin:round;stroke-miterlimit:10;" d="&#10;&#9;&#9;&#9;&#9;&#9;&#9;&#9;M313.297,304.106l10.829,46.874c1.112,4.814,0.766,9.849-0.993,14.466l-13.506,31.319c-0.93,2.157-0.451,4.664,1.211,6.325&#10;&#9;&#9;&#9;&#9;&#9;&#9;&#9;l0,0c2.239,2.239,5.87,2.239,8.109,0l21.332-21.332c8.733-8.733,10.938-22.056,5.484-33.137l-6.198-25.454l1.5-2.125&#10;&#9;&#9;&#9;&#9;&#9;&#9;&#9;c5.266-7.459,1.791-17.886-6.897-20.695l-12.407-4.01C316.879,294.759,312.142,299.108,313.297,304.106z"/>
						
							<line style="fill:none;stroke:#0000CB;stroke-width:10;stroke-linecap:round;stroke-linejoin:round;stroke-miterlimit:10;" x1="343.477" y1="314.613" x2="375.45" y2="346.586"/>
						<g>
							<g>
								
									<line style="fill:none;stroke:#0000CB;stroke-width:10;stroke-linecap:round;stroke-linejoin:round;stroke-miterlimit:10;" x1="358.923" y1="287.467" x2="365.676" y2="280.713"/>
								<g>
									
										<line style="fill:none;stroke:#0000CB;stroke-width:10;stroke-linecap:round;stroke-linejoin:round;stroke-miterlimit:10;" x1="343.442" y1="275.931" x2="345.914" y2="266.705"/>
									<g>
										
											<path style="fill:none;stroke:#0000CB;stroke-width:10;stroke-linecap:round;stroke-linejoin:round;stroke-miterlimit:10;" d="&#10;&#9;&#9;&#9;&#9;&#9;&#9;&#9;&#9;&#9;&#9;&#9;M311.834,227.764l6.02,1.998c2.769,0.919,5.758-0.58,6.677-3.349l10.328-31.116l6.748,13.454"/>
										<g>
											
												<path style="fill:none;stroke:#0000CB;stroke-width:10;stroke-linecap:round;stroke-linejoin:round;stroke-miterlimit:10;" d="&#10;&#9;&#9;&#9;&#9;&#9;&#9;&#9;&#9;&#9;&#9;&#9;&#9;M138.205,311.018l5.67-2.844c2.608-1.308,3.661-4.482,2.353-7.09l-14.699-29.306l14.285,4.742"/>
											<g>
												
													<path style="fill:none;stroke:#0000CB;stroke-width:10;stroke-linecap:round;stroke-linejoin:round;stroke-miterlimit:10;" d="&#10;&#9;&#9;&#9;&#9;&#9;&#9;&#9;&#9;&#9;&#9;&#9;&#9;&#9;M81.495,251.996h6.343c2.917,0,5.282-2.365,5.282-5.282v-32.786l28.321-7.648v32.786c0,2.917-2.365,5.282-5.282,5.282&#10;&#9;&#9;&#9;&#9;&#9;&#9;&#9;&#9;&#9;&#9;&#9;&#9;&#9;h-6.343"/>
											</g>
										</g>
									</g>
									
										<line style="fill:none;stroke:#0000CB;stroke-width:10;stroke-linecap:round;stroke-linejoin:round;stroke-miterlimit:10;" x1="370.459" y1="302.948" x2="379.684" y2="300.476"/>
								</g>
							</g>
							<g>
								
									<line style="fill:none;stroke:#0000CB;stroke-width:10;stroke-linecap:round;stroke-linejoin:round;stroke-miterlimit:10;" x1="274.961" y1="413.994" x2="284.513" y2="413.994"/>
								<g>
									
										<line style="fill:none;stroke:#0000CB;stroke-width:10;stroke-linecap:round;stroke-linejoin:round;stroke-miterlimit:10;" x1="272.172" y1="394.89" x2="280.443" y2="390.114"/>
									
										<line style="fill:none;stroke:#0000CB;stroke-width:10;stroke-linecap:round;stroke-linejoin:round;stroke-miterlimit:10;" x1="272.172" y1="433.098" x2="280.443" y2="437.874"/>
								</g>
							</g>
						</g>
					</g>
				</g>
			</g>
		</g>
		
			<circle style="fill:none;stroke:#FF6C6C;stroke-width:10;stroke-linecap:round;stroke-linejoin:round;stroke-miterlimit:10;" cx="397.898" cy="231.05" r="10"/>
		
			<circle style="fill:none;stroke:#FF9C33;stroke-width:10;stroke-linecap:round;stroke-linejoin:round;stroke-miterlimit:10;" cx="61.281" cy="311.018" r="10"/>
		
			<polygon style="fill:none;stroke:#6C6CFF;stroke-width:10;stroke-linecap:round;stroke-linejoin:round;stroke-miterlimit:10;" points="&#10;&#9;&#9;&#9;101.469,53.387 104.066,61.379 112.469,61.379 105.67,66.318 108.267,74.31 101.469,69.371 94.67,74.31 97.267,66.318 &#10;&#9;&#9;&#9;90.469,61.379 98.872,61.379 &#9;&#9;"/>
		
			<polygon style="fill:none;stroke:#FF6C6C;stroke-width:10;stroke-linecap:round;stroke-linejoin:round;stroke-miterlimit:10;" points="&#10;&#9;&#9;&#9;139.161,351.68 141.758,359.672 150.161,359.672 143.363,364.611 145.96,372.603 139.161,367.664 132.363,372.603 134.96,364.611 &#10;&#9;&#9;&#9;128.161,359.672 136.565,359.672 &#9;&#9;"/>
		
			<polygon style="fill:none;stroke:#FF9C33;stroke-width:10;stroke-linecap:round;stroke-linejoin:round;stroke-miterlimit:10;" points="&#10;&#9;&#9;&#9;387.898,389.67 390.495,397.662 398.898,397.662 392.1,402.602 394.696,410.594 387.898,405.654 381.1,410.594 383.696,402.602 &#10;&#9;&#9;&#9;376.898,397.662 385.301,397.662 &#9;&#9;"/>
	</g>
</g>















</svg>
