<?xml version="1.0" encoding="UTF-8" standalone="no"?>
<!-- Created with Inkscape (http://www.inkscape.org/) -->

<svg
   version="1.1"
   id="svg4629"
   xml:space="preserve"
   width="682.66669"
   height="682.66669"
   viewBox="0 0 682.66669 682.66669"
   xmlns="http://www.w3.org/2000/svg"
   xmlns:svg="http://www.w3.org/2000/svg"><defs
     id="defs4633"><linearGradient
       x1="0"
       y1="0"
       x2="1"
       y2="0"
       gradientUnits="userSpaceOnUse"
       gradientTransform="matrix(317.87042,317.87042,317.87042,-317.87042,76.591316,70.910965)"
       spreadMethod="pad"
       id="linearGradient4659"><stop
         style="stop-opacity:1;stop-color:#ffdbed"
         offset="0"
         id="stop4649" /><stop
         style="stop-opacity:1;stop-color:#ffdbed"
         offset="0.048501"
         id="stop4651" /><stop
         style="stop-opacity:1;stop-color:#d2deff"
         offset="0.97145136"
         id="stop4653" /><stop
         style="stop-opacity:1;stop-color:#d2deff"
         offset="0.999306"
         id="stop4655" /><stop
         style="stop-opacity:1;stop-color:#d2deff"
         offset="1"
         id="stop4657" /></linearGradient><clipPath
       clipPathUnits="userSpaceOnUse"
       id="clipPath4669"><path
         d="M 0,512 H 512 V 0 H 0 Z"
         id="path4667" /></clipPath><clipPath
       clipPathUnits="userSpaceOnUse"
       id="clipPath4677"><path
         d="M 50.6681,432 H 461.332 V 31.7176 H 50.6681 Z"
         id="path4675" /></clipPath><clipPath
       clipPathUnits="userSpaceOnUse"
       id="clipPath4839"><path
         d="M 0,512 H 512 V 0 H 0 Z"
         id="path4837" /></clipPath><linearGradient
       x1="0"
       y1="0"
       x2="1"
       y2="0"
       gradientUnits="userSpaceOnUse"
       gradientTransform="matrix(420.56158,420.56158,420.56158,-420.56158,60.854229,599.25598)"
       spreadMethod="pad"
       id="linearGradient4863"><stop
         style="stop-opacity:1;stop-color:#d2deff"
         offset="0"
         id="stop4853" /><stop
         style="stop-opacity:1;stop-color:#d2deff"
         offset="0.048501"
         id="stop4855" /><stop
         style="stop-opacity:1;stop-color:#dcfdee"
         offset="0.97145136"
         id="stop4857" /><stop
         style="stop-opacity:1;stop-color:#dcfdee"
         offset="0.999306"
         id="stop4859" /><stop
         style="stop-opacity:1;stop-color:#dcfdee"
         offset="1"
         id="stop4861" /></linearGradient></defs><g
     id="g4635"
     transform="matrix(1.3333333,0,0,-1.3333333,0,682.66667)"><g
       id="g4637"><g
         id="g4639"><g
           id="g4645"><g
             id="g4647"><path
               d="M 128.271,512 C 32.568,512 52.843,360.68 79.642,301.356 v 0 C 94.256,269.005 67.571,235.778 56.664,205.154 v 0 C 37.605,151.643 56.448,89.203 97.559,50.003 v 0 c 24.729,-23.578 58.168,-14.401 81.916,7.471 v 0 c 28.862,26.581 37.418,80.901 76.539,90.887 v 0 c 32.85,8.387 54.999,-27.812 61.62,-56.488 v 0 c 4.938,-21.38 8.173,-43.849 20.033,-62.311 v 0 C 350.52,9.555 372.055,0.007 393.622,0 v 0 h 0.03 c 26.882,0.002 53.809,14.826 64.069,42.697 v 0 c 8.19,22.249 4.863,46.841 1.129,70.256 v 0 c -10.558,66.196 -22.229,132.225 -31.674,198.589 v 0 c -4.92,34.57 -16.441,80.787 -56.099,86.815 v 0 c -42.363,6.44 -59.539,-41.955 -93.493,-52.295 v 0 c -35.113,-10.693 -61.021,32.248 -74.519,62.704 v 0 C 187.19,444.585 181.646,512 128.271,512 Z"
               style="fill:url(#linearGradient4659);stroke:none"
               id="path4661" /></g></g></g></g><g
       id="g4663"><g
         id="g4665"
         clip-path="url(#clipPath4669)"><g
           id="g4671"><g
             id="g4673" /><g
             id="g4685"><g
               clip-path="url(#clipPath4677)"
               opacity="0.100006"
               id="g4683"><g
                 transform="translate(456.33,31.7176)"
                 id="g4681"><path
                   d="M 0,0 C 3.19,0 5.564,2.946 4.886,6.063 L -9.029,70.014 c -0.744,3.388 -2.885,6.295 -5.895,8.012 l -53.612,30.412 v 12.424 c 11.879,5.477 20.318,17.216 20.988,31.098 l 1.332,27.61 c 1.032,21.385 -16.028,39.289 -37.439,39.289 v 0 c -21.41,0 -38.47,-17.904 -37.439,-39.289 l 1.333,-27.61 c 0.669,-13.88 9.107,-25.619 20.985,-31.097 v -12.425 l -23.26,-13.195 -6.424,29.522 c -0.717,3.263 -2.778,6.062 -5.677,7.716 l -51.631,29.288 v 11.965 c 11.44,5.275 19.567,16.581 20.212,29.95 l 1.283,26.589 c 0.618,12.806 -5.503,24.313 -15.177,31.187 h 74.475 L -91.7,243.39 c 3.996,-5.439 12.122,-5.439 16.118,0 l 13.276,18.07 h 33.036 c 11.046,0 20,8.954 20,20 v 98.822 c 0,11.046 -8.954,20 -20,20 h -342.12 c -11.046,0 -20,-8.954 -20,-20 V 281.46 c 0,-11.046 8.954,-20 20,-20 h 33.036 l 13.276,-18.07 c 3.996,-5.439 12.122,-5.439 16.118,0 l 13.275,18.07 h 74.478 c -9.674,-6.874 -15.795,-18.381 -15.177,-31.187 l 1.282,-26.589 c 0.645,-13.368 8.771,-24.673 20.211,-29.949 v -11.966 l -51.632,-29.288 c -2.899,-1.654 -4.96,-4.453 -5.677,-7.716 l -6.423,-29.522 -23.261,13.195 v 12.424 c 11.88,5.477 20.319,17.216 20.988,31.098 l 1.333,27.61 c 1.032,21.385 -16.029,39.289 -37.439,39.289 v 0 c -21.411,0 -38.471,-17.904 -37.439,-39.289 l 1.332,-27.61 c 0.67,-13.88 9.107,-25.619 20.985,-31.097 v -12.425 l -53.612,-30.412 c -3.01,-1.717 -5.15,-4.624 -5.894,-8.012 L -405.546,6.063 C -406.224,2.946 -403.85,0 -400.66,0 h 167.312 c 3.19,0 5.564,2.946 4.886,6.063 l -11.157,51.274 h 78.578 L -172.198,6.063 C -172.876,2.946 -170.502,0 -167.312,0 Z"
                   style="fill:#2626bc;fill-opacity:1;fill-rule:nonzero;stroke:none"
                   id="path4679" /></g></g></g></g><g
           id="g4687"
           transform="translate(427.0601,456)"><path
             d="m 0,0 h -342.12 c -11.046,0 -20,-8.954 -20,-20 v -98.822 c 0,-11.046 8.954,-20 20,-20 h 33.036 l 13.276,-18.071 c 3.996,-5.439 12.122,-5.439 16.118,0 l 13.275,18.071 h 190.709 l 13.276,-18.071 c 3.996,-5.439 12.122,-5.439 16.118,0 l 13.276,18.071 H 0 c 11.046,0 20,8.954 20,20 L 20,-20 C 20,-8.954 11.046,0 0,0"
             style="fill:#ffffff;fill-opacity:1;fill-rule:nonzero;stroke:none"
             id="path4689" /></g><path
           d="M 396.782,367.281 H 337.064 V 456 h 59.718 z"
           style="fill:#b7c5ff;fill-opacity:1;fill-rule:nonzero;stroke:none"
           id="path4691" /><path
           d="M 285.859,367.281 H 226.141 V 456 h 59.718 z"
           style="fill:#ffc4df;fill-opacity:1;fill-rule:nonzero;stroke:none"
           id="path4693" /><path
           d="M 174.936,367.281 H 115.218 V 456 h 59.718 z"
           style="fill:#97ffd2;fill-opacity:1;fill-rule:nonzero;stroke:none"
           id="path4695" /><g
           id="g4697"
           transform="translate(306.2081,317.1777)"><path
             d="m 0,0 h 45.146 l 13.276,-18.07 c 3.996,-5.44 12.122,-5.44 16.118,0 L 87.815,0 h 33.037 c 11.046,0 20,8.954 20,20 v 98.822 c 0,11.046 -8.954,20 -20,20 h -342.12 c -11.046,0 -20,-8.954 -20,-20 V 20 c 0,-11.046 8.954,-20 20,-20 h 33.036 l 13.276,-18.07 c 3.996,-5.44 12.122,-5.44 16.118,0 L -145.563,0 h 72.753"
             style="fill:none;stroke:#2626bc;stroke-width:10;stroke-linecap:round;stroke-linejoin:round;stroke-miterlimit:10;stroke-dasharray:none;stroke-opacity:1"
             id="path4699" /></g><g
           id="g4701"
           transform="translate(342.5414,113.0547)"><path
             d="m 0,0 h -173.083 l 14.672,67.428 c 0.716,3.262 2.778,6.062 5.677,7.716 l 51.631,29.288 v 17.603 h 29.123 v -17.603 l 51.632,-29.288 c 2.899,-1.654 4.96,-4.454 5.676,-7.716 z"
             style="fill:#ff7eb8;fill-opacity:1;fill-rule:nonzero;stroke:none"
             id="path4703" /></g><g
           id="g4705"
           transform="translate(313.1101,113.0547)"><path
             d="m 0,0 h -11.111 l -5.666,43.431 c -0.397,3.02 1.731,5.787 4.751,6.183 3.031,0.397 5.787,-1.741 6.184,-4.75 z"
             style="fill:#ff5ba8;fill-opacity:1;fill-rule:nonzero;stroke:none"
             id="path4707" /></g><g
           id="g4709"
           transform="translate(215.6671,156.4853)"><path
             d="m 0,0 -5.666,-43.431 h -11.111 l 5.842,44.864 c 0.397,3.009 3.153,5.137 6.184,4.751 C -1.731,5.787 0.397,3.02 0,0"
             style="fill:#ff5ba8;fill-opacity:1;fill-rule:nonzero;stroke:none"
             id="path4711" /></g><g
           id="g4713"
           transform="translate(342.5399,113.0575)"><path
             d="m 0,0 -14.673,67.428 c -0.709,3.26 -2.773,6.064 -5.675,7.71 l -51.631,29.288 v 17.609 h -29.119 v -17.609 l -51.631,-29.288 c -2.902,-1.646 -4.966,-4.45 -5.675,-7.71 L -173.077,0"
             style="fill:none;stroke:#2626bc;stroke-width:10;stroke-linecap:round;stroke-linejoin:round;stroke-miterlimit:10;stroke-dasharray:none;stroke-opacity:1"
             id="path4715" /></g><g
           id="g4717"
           transform="translate(219.9455,285.9908)"><path
             d="m 0,0 1.283,-26.589 c 0.895,-18.553 16.198,-33.136 34.773,-33.136 v 0 c 18.575,0 33.878,14.583 34.773,33.136 L 72.112,0 C 73.106,20.595 56.675,37.837 36.056,37.837 v 0 C 15.437,37.837 -0.994,20.595 0,0"
             style="fill:#ffa8cf;fill-opacity:1;fill-rule:nonzero;stroke:none"
             id="path4719" /></g><g
           id="g4721"
           transform="translate(219.9455,285.9908)"><path
             d="m 0,0 1.283,-26.589 c 0.895,-18.553 16.198,-33.136 34.773,-33.136 v 0 c 18.575,0 33.878,14.583 34.773,33.136 L 72.112,0 C 73.106,20.595 56.675,37.837 36.056,37.837 v 0 C 15.437,37.837 -0.994,20.595 0,0 Z"
             style="fill:none;stroke:#2626bc;stroke-width:10;stroke-linecap:round;stroke-linejoin:round;stroke-miterlimit:10;stroke-dasharray:none;stroke-opacity:1"
             id="path4723" /></g><g
           id="g4725"
           transform="translate(229.1872,55.7176)"><path
             d="m 0,0 h -179.722 l 15.234,70.014 c 0.744,3.388 2.885,6.295 5.895,8.012 l 53.612,30.412 v 18.279 h 30.24 v -18.279 l 53.612,-30.412 c 3.01,-1.717 5.151,-4.624 5.895,-8.012 z"
             style="fill:#01eca5;fill-opacity:1;fill-rule:nonzero;stroke:none"
             id="path4727" /></g><g
           id="g4729"
           transform="translate(198.6269,55.7176)"><path
             d="m 0,0 h -11.537 l -5.883,45.096 c -0.413,3.137 1.797,6.01 4.933,6.422 3.147,0.412 6.009,-1.809 6.421,-4.934 z"
             style="fill:#00d890;fill-opacity:1;fill-rule:nonzero;stroke:none"
             id="path4731" /></g><g
           id="g4733"
           transform="translate(97.4461,100.8141)"><path
             d="m 0,0 -5.883,-45.096 h -11.538 l 6.067,46.584 c 0.412,3.125 3.273,5.334 6.421,4.933 C -1.797,6.009 0.412,3.136 0,0"
             style="fill:#00d890;fill-opacity:1;fill-rule:nonzero;stroke:none"
             id="path4735" /></g><g
           id="g4737"
           transform="translate(229.1856,55.7205)"><path
             d="m 0,0 -15.235,70.014 c -0.737,3.385 -2.88,6.297 -5.893,8.006 l -53.612,30.412 v 18.284 h -30.236 V 108.432 L -158.588,78.02 c -3.013,-1.709 -5.156,-4.621 -5.893,-8.006 l -2.829,-13.001"
             style="fill:none;stroke:#2626bc;stroke-width:10;stroke-linecap:round;stroke-linejoin:round;stroke-miterlimit:10;stroke-dasharray:none;stroke-opacity:1"
             id="path4739" /></g><g
           id="g4741"
           transform="translate(55.7703,84.6752)"><path
             d="M 0,0 -6.301,-28.955"
             style="fill:none;stroke:#2626bc;stroke-width:10;stroke-linecap:round;stroke-linejoin:round;stroke-miterlimit:10;stroke-dasharray:none;stroke-opacity:1"
             id="path4743" /></g><g
           id="g4745"
           transform="translate(101.8886,235.2872)"><path
             d="m 0,0 1.332,-27.609 c 0.93,-19.265 16.82,-34.407 36.107,-34.407 v 0 c 19.287,0 35.177,15.142 36.107,34.407 L 74.878,0 C 75.91,21.385 58.849,39.289 37.439,39.289 v 0 C 16.029,39.289 -1.032,21.385 0,0"
             style="fill:#02ffb3;fill-opacity:1;fill-rule:nonzero;stroke:none"
             id="path4747" /></g><g
           id="g4749"
           transform="translate(101.8886,235.2872)"><path
             d="m 0,0 1.332,-27.609 c 0.93,-19.265 16.82,-34.407 36.107,-34.407 v 0 c 19.287,0 35.177,15.142 36.107,34.407 L 74.878,0 C 75.91,21.385 58.849,39.289 37.439,39.289 v 0 C 16.029,39.289 -1.032,21.385 0,0 Z"
             style="fill:none;stroke:#2626bc;stroke-width:10;stroke-linecap:round;stroke-linejoin:round;stroke-miterlimit:10;stroke-dasharray:none;stroke-opacity:1"
             id="path4751" /></g><g
           id="g4753"
           transform="translate(462.5349,55.7176)"><path
             d="m 0,0 h -179.722 l 15.234,70.014 c 0.744,3.388 2.885,6.295 5.895,8.012 l 53.612,30.412 v 18.279 h 30.24 v -18.279 l 53.612,-30.412 c 3.01,-1.717 5.151,-4.624 5.895,-8.012 z"
             style="fill:#8399fe;fill-opacity:1;fill-rule:nonzero;stroke:none"
             id="path4755" /></g><g
           id="g4757"
           transform="translate(431.9746,55.7176)"><path
             d="m 0,0 h -11.537 l -5.883,45.096 c -0.413,3.137 1.797,6.01 4.933,6.422 3.147,0.412 6.009,-1.809 6.421,-4.934 z"
             style="fill:#6583fe;fill-opacity:1;fill-rule:nonzero;stroke:none"
             id="path4759" /></g><g
           id="g4761"
           transform="translate(330.7938,100.8141)"><path
             d="m 0,0 -5.883,-45.096 h -11.538 l 6.067,46.584 c 0.412,3.125 3.273,5.334 6.421,4.933 C -1.797,6.009 0.412,3.136 0,0"
             style="fill:#6583fe;fill-opacity:1;fill-rule:nonzero;stroke:none"
             id="path4763" /></g><g
           id="g4765"
           transform="translate(462.5334,55.7205)"><path
             d="m 0,0 -15.235,70.014 c -0.737,3.385 -2.88,6.297 -5.893,8.006 l -53.612,30.412 v 18.284 h -30.236 V 108.432 L -158.588,78.02 c -3.013,-1.709 -5.156,-4.621 -5.893,-8.006 L -179.716,0"
             style="fill:none;stroke:#2626bc;stroke-width:10;stroke-linecap:round;stroke-linejoin:round;stroke-miterlimit:10;stroke-dasharray:none;stroke-opacity:1"
             id="path4767" /></g><g
           id="g4769"
           transform="translate(335.2364,235.2872)"><path
             d="m 0,0 1.332,-27.609 c 0.93,-19.265 16.82,-34.407 36.107,-34.407 v 0 c 19.287,0 35.177,15.142 36.107,34.407 L 74.878,0 C 75.91,21.385 58.849,39.289 37.439,39.289 v 0 C 16.029,39.289 -1.032,21.385 0,0"
             style="fill:#9fb0fe;fill-opacity:1;fill-rule:nonzero;stroke:none"
             id="path4771" /></g><g
           id="g4773"
           transform="translate(335.2364,235.2872)"><path
             d="m 0,0 1.332,-27.609 c 0.93,-19.265 16.82,-34.407 36.107,-34.407 v 0 c 19.287,0 35.177,15.142 36.107,34.407 L 74.878,0 C 75.91,21.385 58.849,39.289 37.439,39.289 v 0 C 16.029,39.289 -1.032,21.385 0,0 Z"
             style="fill:none;stroke:#2626bc;stroke-width:10;stroke-linecap:round;stroke-linejoin:round;stroke-miterlimit:10;stroke-dasharray:none;stroke-opacity:1"
             id="path4775" /></g><g
           id="g4777"
           transform="translate(219.7085,403.0444)"><path
             d="m 0,0 h 34.583 c 2.761,0 5,2.238 5,5 0,2.762 -2.239,5 -5,5 H 0 C -2.762,10 -5,7.762 -5,5 -5,2.238 -2.762,0 0,0"
             style="fill:#ff7eb8;fill-opacity:1;fill-rule:nonzero;stroke:none"
             id="path4779" /></g><g
           id="g4781"
           transform="translate(219.7085,382.6626)"><path
             d="m 0,0 h 72.583 c 2.761,0 5,2.238 5,5 0,2.762 -2.239,5 -5,5 H 0 C -2.762,10 -5,7.762 -5,5 -5,2.238 -2.762,0 0,0"
             style="fill:#ff7eb8;fill-opacity:1;fill-rule:nonzero;stroke:none"
             id="path4783" /></g><g
           id="g4785"
           transform="translate(219.7085,362.2808)"><path
             d="m 0,0 h 72.583 c 2.761,0 5,2.238 5,5 0,2.762 -2.239,5 -5,5 H 0 C -2.762,10 -5,7.762 -5,5 -5,2.238 -2.762,0 0,0"
             style="fill:#ff7eb8;fill-opacity:1;fill-rule:nonzero;stroke:none"
             id="path4787" /></g><g
           id="g4789"
           transform="translate(108.7856,403.0444)"><path
             d="m 0,0 h 34.583 c 2.761,0 5,2.238 5,5 0,2.762 -2.239,5 -5,5 H 0 C -2.762,10 -5,7.762 -5,5 -5,2.238 -2.762,0 0,0"
             style="fill:#01eca5;fill-opacity:1;fill-rule:nonzero;stroke:none"
             id="path4791" /></g><g
           id="g4793"
           transform="translate(108.7856,382.6626)"><path
             d="m 0,0 h 72.583 c 2.761,0 5,2.238 5,5 0,2.762 -2.239,5 -5,5 H 0 C -2.762,10 -5,7.762 -5,5 -5,2.238 -2.762,0 0,0"
             style="fill:#01eca5;fill-opacity:1;fill-rule:nonzero;stroke:none"
             id="path4795" /></g><g
           id="g4797"
           transform="translate(108.7856,362.2808)"><path
             d="m 0,0 h 72.583 c 2.761,0 5,2.238 5,5 0,2.762 -2.239,5 -5,5 H 0 C -2.762,10 -5,7.762 -5,5 -5,2.238 -2.762,0 0,0"
             style="fill:#01eca5;fill-opacity:1;fill-rule:nonzero;stroke:none"
             id="path4799" /></g><g
           id="g4801"
           transform="translate(330.6314,403.0444)"><path
             d="m 0,0 h 34.583 c 2.761,0 5,2.238 5,5 0,2.762 -2.239,5 -5,5 H 0 C -2.762,10 -5,7.762 -5,5 -5,2.238 -2.762,0 0,0"
             style="fill:#8399fe;fill-opacity:1;fill-rule:nonzero;stroke:none"
             id="path4803" /></g><g
           id="g4805"
           transform="translate(330.6314,382.6626)"><path
             d="m 0,0 h 72.583 c 2.761,0 5,2.238 5,5 0,2.762 -2.239,5 -5,5 H 0 C -2.762,10 -5,7.762 -5,5 -5,2.238 -2.762,0 0,0"
             style="fill:#8399fe;fill-opacity:1;fill-rule:nonzero;stroke:none"
             id="path4807" /></g><g
           id="g4809"
           transform="translate(330.6314,362.2808)"><path
             d="m 0,0 h 72.583 c 2.761,0 5,2.238 5,5 0,2.762 -2.239,5 -5,5 H 0 C -2.762,10 -5,7.762 -5,5 -5,2.238 -2.762,0 0,0"
             style="fill:#8399fe;fill-opacity:1;fill-rule:nonzero;stroke:none"
             id="path4811" /></g><g
           id="g4813"
           transform="translate(342.5414,476)"><path
             d="M 0,0 -10.5,10.5 0,21 10.5,10.5 Z"
             style="fill:none;stroke:#01eca5;stroke-width:10;stroke-linecap:round;stroke-linejoin:round;stroke-miterlimit:10;stroke-dasharray:none;stroke-opacity:1"
             id="path4815" /></g><g
           id="g4817"
           transform="translate(445.0601,173.3473)"><path
             d="M 0,0 -10.5,10.5 0,21 10.5,10.5 Z"
             style="fill:none;stroke:#6583fe;stroke-width:10;stroke-linecap:round;stroke-linejoin:round;stroke-miterlimit:10;stroke-dasharray:none;stroke-opacity:1"
             id="path4819" /></g><g
           id="g4821"
           transform="translate(460.4069,292.5884)"><path
             d="M 0,0 -10,-10"
             style="fill:none;stroke:#ff7eb8;stroke-width:10;stroke-linecap:round;stroke-linejoin:round;stroke-miterlimit:10;stroke-dasharray:none;stroke-opacity:1"
             id="path4823" /></g><g
           id="g4825"
           transform="translate(65.6884,282.7128)"><path
             d="M 0,0 -10,-10"
             style="fill:none;stroke:#6583fe;stroke-width:10;stroke-linecap:round;stroke-linejoin:round;stroke-miterlimit:10;stroke-dasharray:none;stroke-opacity:1"
             id="path4827" /></g><g
           id="g4829"
           transform="translate(251.5775,32.7176)"><path
             d="M 0,0 -10,-10"
             style="fill:none;stroke:#01eca5;stroke-width:10;stroke-linecap:round;stroke-linejoin:round;stroke-miterlimit:10;stroke-dasharray:none;stroke-opacity:1"
             id="path4831" /></g></g></g><g
       id="g4833"><g
         id="g4835"
         clip-path="url(#clipPath4839)"><g
           id="g4841"><g
             id="g4843"><g
               id="g4849"><g
                 id="g4851"><path
                   d="M 468.548,1029.008 C 409.193,1063.086 288.48,1035.148 243.003,984.57 200.265,937.039 232.326,859.11 198.494,836.778 169.66,817.746 102.563,863.503 90.837,791.094 82.415,739.089 66.58,732.838 49.151,734.723 26.049,737.22 7.806,715.16 14.566,692.928 30.287,641.227 63.463,590.714 105.727,556.206 c 73.025,-59.623 147.132,-0.708 147.282,85.561 0.192,111.441 67.136,56.032 123.013,110.667 54.738,53.522 -29.606,55.484 -25.247,103.653 4.423,48.874 64.427,55.973 102.146,69.348 50.518,17.914 64.587,75.464 15.627,103.573"
                   style="fill:url(#linearGradient4863);stroke:none"
                   id="path4865" /></g></g></g></g></g></g></g></svg>
