<svg id="Capa_1" enable-background="new 0 0 512 512" height="512" viewBox="0 0 512 512" width="512" xmlns="http://www.w3.org/2000/svg" xmlns:xlink="http://www.w3.org/1999/xlink"><linearGradient id="SVGID_1_" gradientUnits="userSpaceOnUse" x1="106.056" x2="499.623" y1="431.001" y2="37.434"><stop offset=".0485" stop-color="#d1ddff"/><stop offset=".9993" stop-color="#dbfced"/></linearGradient><g><g><path d="m59.059 161.178c38.783 53.484-21.433 86.197-35.241 135.891-27.956 100.609 79.198 64.386 143.897 60.405 86.247-5.307 100.183 133.759 179.504 152.357 73.908 17.329 130.887-73.005 96.645-134.94-82.55-149.312 55.272-176.476 48.641-300.551-11.26-210.733-238.844 101.51-371.711 24.83-52.084-30.058-90.612 22.184-61.735 62.008z" fill="url(#SVGID_1_)"/></g><g><g><path d="m469.709 206.644c-7.642-.422-15.215-.703-22.697-.868v-12.787c0-5.309-4.15-9.712-9.452-9.989-15.948-.833-31.652-.957-46.75-.593v-33.996l61.039-18.883c4.697-1.453 4.697-8.1 0-9.553l-188.46-58.301c-4.813-1.489-9.964-1.489-14.777 0l-188.46 58.301c-4.696 1.453-4.696 8.1 0 9.553l61.039 18.883v33.996c-15.098-.365-30.802-.24-46.75.593-5.302.277-9.452 4.68-9.452 9.989v12.787c-7.483.165-15.055.446-22.697.868-5.294.292-9.434 4.687-9.434 9.989v240.726c0 5.746 4.831 10.289 10.57 9.982 113.922-6.094 212.572 18.101 212.572 18.101s98.65-24.195 212.573-18.101c5.738.307 10.57-4.236 10.57-9.982v-240.726c0-5.302-4.14-9.696-9.434-9.989z" fill="#2626bb" opacity=".1"/><g><g><g><g><path d="m468.573 443.341c-113.923-6.094-212.573 18.101-212.573 18.101v-260.758s99.307-24.356 213.709-18.04c5.294.292 9.434 4.687 9.434 9.989v240.726c0 5.746-4.831 10.289-10.57 9.982z" fill="#ff5ba7"/><path d="m436.465 429.763c-94.635-4.753-180.465 15.189-180.465 15.189v-210.856s92.306-21.447 191.012-14.558v200.242c0 5.738-4.817 10.271-10.547 9.983z" fill="#fd2c8e"/><path d="m43.427 443.341c113.923-6.094 212.573 18.101 212.573 18.101v-260.758s-99.307-24.356-213.709-18.04c-5.294.292-9.434 4.687-9.434 9.989v240.726c0 5.746 4.831 10.289 10.57 9.982z" fill="#ff7eb7"/><g><path d="m75.535 429.763c94.635-4.753 180.465 15.189 180.465 15.189v-210.856s-92.306-21.447-191.012-14.558v200.242c0 5.738 4.817 10.271 10.547 9.983z" fill="#ff5ba7"/></g></g><g><g><path d="m436.465 405.763c-94.635-4.753-180.465 15.189-180.465 15.189v-35.962l5-5.659 186.012-19.513v35.962c0 5.738-4.817 10.271-10.547 9.983z" fill="#8298fd"/><path d="m75.535 405.763c94.635-4.753 180.465 15.189 180.465 15.189v-35.962l-4.915-5.648-186.097-19.524v35.962c0 5.738 4.817 10.271 10.547 9.983z" fill="#9eaffd"/></g></g><g><g><path d="m436.465 369.801c-94.635-4.753-180.465 15.189-180.465 15.189v-138l4.915-5.648 186.097-19.525v138c0 5.738-4.817 10.271-10.547 9.984z" fill="#d1ddff"/><path d="m356.79 309.333c8.323-2.071 14.5-9.573 14.5-18.537 0-10.562-8.562-19.124-19.124-19.124s-19.124 8.562-19.124 19.124c0 8.964 6.176 16.466 14.5 18.537-13.332 3.344-14.29 21.536-14.442 34.384-.033 2.784 2.217 5.052 5 5.052h28.131c2.784 0 5.033-2.268 5-5.052-.151-12.848-1.109-31.04-14.441-34.384z" fill="#b6c4ff"/><path d="m75.535 369.801c94.635-4.753 180.465 15.189 180.465 15.189v-138l-4.915-5.648-186.097-19.524v138c0 5.737 4.817 10.27 10.547 9.983z" fill="#fff"/><path d="m75.535 231.8c94.635-4.752 180.465 15.19 180.465 15.19v-72.857s-86.493-20.096-181.56-15.133c-5.302.277-9.452 4.68-9.452 9.989v52.828c0 5.738 4.817 10.271 10.547 9.983z" fill="#02ffb2"/><path d="m436.465 231.8c-94.635-4.752-180.465 15.19-180.465 15.19v-72.857s86.493-20.096 181.56-15.133c5.302.277 9.452 4.68 9.452 9.989v52.828c0 5.738-4.817 10.271-10.547 9.983z" fill="#02ffb2"/><path d="m390.81 144.62v115.13c0 4.62-3.17 8.64-7.67 9.72l-121.31 29.11c-3.83.92-7.83.92-11.66 0l-121.31-29.11c-4.5-1.08-7.67-5.1-7.67-9.72v-115.13z" fill="#b6c4ff"/></g></g></g><g><g><g><g><path d="m151.433 286.95c-15.578-1.031-32.147-1.635-49.283-1.544-2.606.014-4.926 1.936-5.162 4.531-.271 2.977 2.065 5.47 4.978 5.47h.029c16.962-.101 33.373.494 48.803 1.515 2.88.191 5.315-2.098 5.315-4.984-.001-2.638-2.049-4.814-4.68-4.988z" fill="#9eaffd"/></g><g><path d="m228.092 328.537c-.275 0-.555-.023-.835-.07-29.358-4.938-74.932-10.764-125.263-10.48-.01 0-.02 0-.029 0-2.748 0-4.983-2.22-4.999-4.972-.016-2.762 2.211-5.013 4.972-5.028 51.043-.317 97.231 5.616 126.978 10.619 2.724.458 4.56 3.037 4.102 5.76-.412 2.442-2.528 4.171-4.926 4.171z" fill="#ff7eb7"/></g></g><g><path d="m228.092 351.117c-.275 0-.555-.023-.835-.07-29.358-4.938-74.932-10.755-125.263-10.48-.01 0-.02 0-.029 0-2.748 0-4.983-2.22-4.999-4.972-.016-2.762 2.211-5.013 4.972-5.028 51.043-.293 97.231 5.615 126.978 10.619 2.724.458 4.56 3.037 4.102 5.76-.412 2.442-2.528 4.171-4.926 4.171z" fill="#ff7eb7"/></g></g><g><g><g><path d="m360.567 286.95c15.578-1.031 32.147-1.635 49.283-1.544 2.606.014 4.926 1.936 5.162 4.531.271 2.977-2.065 5.47-4.978 5.47h-.029c-16.962-.101-33.373.494-48.803 1.515-2.88.191-5.315-2.098-5.315-4.984.001-2.638 2.049-4.814 4.68-4.988z" fill="#9eaffd"/></g><g><path d="m283.908 328.537c.275 0 .555-.023.835-.07 29.358-4.938 74.932-10.764 125.263-10.48h.029c2.748 0 4.983-2.22 4.999-4.972.016-2.762-2.211-5.013-4.972-5.028-51.043-.317-97.231 5.616-126.978 10.619-2.724.458-4.56 3.037-4.102 5.76.412 2.442 2.528 4.171 4.926 4.171z" fill="#ff7eb7"/></g></g><g><path d="m283.908 351.117c.275 0 .555-.023.835-.07 29.358-4.938 74.932-10.755 125.263-10.48h.029c2.748 0 4.983-2.22 4.999-4.972.016-2.762-2.211-5.013-4.972-5.028-51.043-.293-97.231 5.615-126.978 10.619-2.724.458-4.56 3.037-4.102 5.76.412 2.442 2.528 4.171 4.926 4.171z" fill="#ff7eb7"/></g><path d="m371.19 341.5c-13.4.71-26.17 1.75-38.03 2.99-.05-.25-.06-.51-.06-.77.04-2.91.11-6.1.37-9.33 11.62-1.18 24.07-2.19 37.12-2.88.39 3.39.54 6.81.6 9.99z" fill="#ff5ba7"/></g></g></g><g><g><path d="m256 215.21-4 12.43 4 11.87v35.76c-1.96 0-3.92-.23-5.83-.69l-121.31-29.11c-4.5-1.08-7.67-5.1-7.67-9.72v-27.88l5-12.66-5-12.8v-61.79h134.81z" fill="#6582fd"/><g><g><path d="m390.81 183.57v24.3l-128.98 30.95c-3.83.92-7.83.92-11.66 0l-128.98-30.95v-24.3l128.98 30.95c3.83.92 7.83.92 11.66 0z" fill="#ff7eb7"/></g></g><path d="m390.81 120.62v27.79l-127.42 39.42c-4.81 1.49-9.97 1.49-14.78 0l-127.42-39.42v-27.79z" fill="#4369fc"/><path d="m390.81 120.62v61.787l-5 12.807 5 12.656v27.88c0 4.62-3.17 8.64-7.67 9.72l-121.31 29.11c-1.91.46-3.87.69-5.83.69v-35.76l5-11.867-5-12.433v-94.59z" fill="#4369fc"/><g><g><path d="m390.81 183.57v24.3l-128.98 30.95c-1.91.46-3.87.69-5.83.69v-24.3c1.96 0 3.92-.23 5.83-.69z" fill="#ff5ba7"/></g></g><path d="m390.81 120.62h-134.81v68.33c2.49 0 4.98-.37 7.39-1.12l77.117-23.858c4.233 5.441 6.663 12.237 6.663 19.518v70.61l10-2.4v-68.21c0-8.263-2.375-16.053-6.604-22.63l40.244-12.45z" fill="#2d58df"/></g><path d="m248.612 37.675-188.461 58.3c-4.696 1.453-4.696 8.1 0 9.553l188.46 58.301c4.813 1.489 9.964 1.489 14.777 0l188.46-58.301c4.696-1.453 4.696-8.1 0-9.553l-188.46-58.301c-4.813-1.488-9.963-1.488-14.776.001z" fill="#8298fd"/></g></g><g><circle cx="352.166" cy="266.796" fill="#ff7eb7" r="19.124"/><ellipse cx="352.166" cy="266.796" fill="#ffa7ce" rx="6.641" ry="19.124"/><path d="m366.232 325.895c2.784 0 5.033-2.268 5-5.051-.168-14.198-1.318-34.925-19.066-34.925s-18.898 20.727-19.066 34.925c-.033 2.784 2.217 5.051 5.001 5.051z" fill="#ff7eb7"/><path d="m357.925 325.895c-.058-13.632.269-39.976-5.759-39.976s-5.701 26.344-5.759 39.976z" fill="#ffa7ce"/></g><path d="m469.984 177.652c-5.901-.326-11.929-.575-17.975-.75v-7.912c0-7.982-6.231-14.563-14.19-14.983-13.561-.706-27.67-.938-42.01-.698v-25.211l57.517-17.793c4.214-1.304 7.045-5.143 7.045-9.554 0-4.41-2.831-8.25-7.045-9.553l-67.264-20.808c-2.633-.812-5.438.661-6.254 3.299s.66 5.438 3.299 6.254l67.255 20.811-102.939 31.844c-4.399-5.229-10.122-9.408-16.837-12.031l-67.767-26.473c-2.573-1.004-5.472.265-6.477 2.838-1.005 2.572.266 5.472 2.838 6.477l67.767 26.473c3.684 1.439 6.968 3.503 9.773 6.028l-74.809 23.142c-3.867 1.196-7.955 1.196-11.822 0l-188.451-58.302 188.451-58.298c3.867-1.196 7.955-1.197 11.822 0l93 28.77c2.636.813 5.438-.66 6.254-3.299.816-2.638-.66-5.438-3.299-6.254l-93-28.77c-5.8-1.794-11.933-1.795-17.732 0l-188.46 58.3c-4.214 1.303-7.045 5.143-7.045 9.553 0 4.411 2.831 8.25 7.045 9.554l57.517 17.793v25.211c-14.34-.24-28.448-.008-42.014.697-7.955.42-14.187 7.001-14.187 14.983v7.911c-6.045.175-12.071.424-17.975.75-7.939.438-14.158 7.019-14.158 14.981v240.726c0 4.153 1.66 8.014 4.674 10.872 2.981 2.827 7.036 4.322 11.162 4.103 111.82-5.979 210.136 17.725 211.116 17.964.391.096.791.144 1.19.144.4 0 .8-.048 1.191-.144.979-.24 99.216-23.949 211.115-17.964 4.099.221 8.18-1.276 11.162-4.103 3.014-2.857 4.674-6.718 4.674-10.872v-240.725c.002-7.962-6.217-14.543-14.157-14.981zm-84.174-46.46v104.558c0 2.318-1.578 4.316-3.836 4.858l-19.096 4.58c-1.79-.891-3.704-1.568-5.711-1.992v-83.708c0-6.46-1.451-12.634-4.104-18.165zm-33.644 149.727c-7.788 0-14.124-6.336-14.124-14.124s6.336-14.124 14.124-14.124 14.124 6.336 14.124 14.124-6.336 14.124-14.124 14.124zm14.074 39.976-28.141.009c.257-21.578 4.2-29.984 14.066-29.984s13.811 8.406 14.075 29.975zm-119.106-152.289c2.9.897 5.883 1.345 8.866 1.345s5.966-.448 8.866-1.345l78.473-24.276c2.455 4.542 3.827 9.711 3.827 15.157v83.708c-5.837 1.235-10.902 4.585-14.35 9.21l-72.154 17.312c-3.048.732-6.273.733-9.325 0l-121.31-29.11c-2.259-.542-3.837-2.54-3.837-4.858v-104.557zm227.009 264.753c0 1.381-.552 2.665-1.554 3.614-1.015.962-2.362 1.446-3.748 1.375-106.658-5.707-201.222 15.259-212.841 17.957-11.629-2.7-106.193-23.664-212.84-17.957-1.413.074-2.735-.414-3.749-1.375-1.002-.95-1.554-2.233-1.554-3.614v-240.726c0-2.656 2.068-4.851 4.709-4.997 5.723-.316 11.563-.56 17.424-.732v99.006c0 2.761 2.238 5 5 5s5-2.239 5-5v-116.92c0-2.663 2.07-4.857 4.71-4.997 13.386-.697 27.322-.923 41.49-.682v72.439c0 6.96 4.73 12.957 11.503 14.582l121.309 29.11c2.289.55 4.644.825 6.998.825s4.709-.275 6.997-.825l65.239-15.653c-.123.986-.194 1.988-.194 3.007 0 7.903 3.82 14.93 9.71 19.333-9.331 8.658-9.548 25.933-9.653 34.658-.031 2.69.993 5.226 2.885 7.139 1.894 1.916 4.421 2.971 7.116 2.971h28.131c2.695 0 5.223-1.055 7.116-2.971 1.892-1.913 2.916-4.448 2.885-7.14-.104-8.724-.322-25.998-9.653-34.656 5.89-4.403 9.71-11.43 9.71-19.333 0-5.015-1.54-9.677-4.169-13.54l12.186-2.923c6.772-1.625 11.503-7.622 11.503-14.582v-72.439c14.167-.241 28.104-.015 41.486.682 2.644.14 4.714 2.334 4.714 4.997v226.79c0 1.378-.549 2.659-1.544 3.605-1.012.962-2.34 1.451-3.755 1.381-88.4-4.44-170.2 12.747-180.71 15.059-10.511-2.312-92.312-19.5-180.712-15.061-1.412.068-2.743-.419-3.754-1.381-.995-.947-1.544-2.227-1.544-3.605v-80.33c0-2.761-2.238-5-5-5s-5 2.239-5 5v80.33c0 4.146 1.652 8 4.654 10.853 2.973 2.826 7.026 4.327 11.146 4.121 92.794-4.659 178.226 14.869 179.078 15.067.372.086.751.129 1.131.129s.759-.043 1.131-.129c.853-.198 86.292-19.724 179.077-15.067 4.1.211 8.175-1.294 11.147-4.121 3.002-2.854 4.654-6.708 4.654-10.853v-208.875c5.862.172 11.704.415 17.424.731 2.641.146 4.709 2.341 4.709 4.997v240.726z" fill="#2626bb"/></g><g><path d="m463.762 74.702c-2.762 0-5-2.239-5-5 0-3.492-2.842-6.333-6.334-6.333-2.762 0-5-2.239-5-5s2.238-5 5-5c3.492 0 6.334-2.841 6.334-6.333 0-2.761 2.238-5 5-5s5 2.239 5 5c0 3.492 2.841 6.333 6.333 6.333 2.762 0 5 2.239 5 5s-2.238 5-5 5c-3.492 0-6.333 2.841-6.333 6.333 0 2.761-2.239 5-5 5z" fill="#01eba4"/></g><g><path d="m436.015 496.782c-2.762 0-5-2.239-5-5 0-3.492-2.841-6.333-6.333-6.333-2.762 0-5-2.239-5-5s2.238-5 5-5c3.492 0 6.333-2.841 6.333-6.333 0-2.761 2.238-5 5-5s5 2.239 5 5c0 3.492 2.841 6.333 6.333 6.333 2.762 0 5 2.239 5 5s-2.238 5-5 5c-3.492 0-6.333 2.841-6.333 6.333 0 2.761-2.239 5-5 5z" fill="#6582fd"/></g><g><path d="m184.057 492.449c-1.279 0-2.56-.488-3.535-1.464l-5.465-5.464-5.465 5.464c-1.951 1.952-5.119 1.952-7.07 0-1.953-1.953-1.953-5.119 0-7.071l9-9c1.951-1.952 5.119-1.952 7.07 0l9 9c1.953 1.953 1.953 5.118 0 7.071-.976.975-2.256 1.464-3.535 1.464z" fill="#01eba4"/></g><g><path d="m405.02 42.925c-1.279 0-2.56-.488-3.535-1.464l-5.465-5.464-5.465 5.464c-1.951 1.952-5.119 1.952-7.07 0-1.953-1.953-1.953-5.119 0-7.071l9-9c1.951-1.952 5.119-1.952 7.07 0l9 9c1.953 1.953 1.953 5.119 0 7.071-.976.976-2.256 1.464-3.535 1.464z" fill="#6582fd"/></g><g><path d="m121.189 46.058c-1.279 0-2.56-.488-3.535-1.464l-5.465-5.464-5.465 5.464c-1.951 1.952-5.119 1.952-7.07 0-1.953-1.953-1.953-5.119 0-7.071l9-9c1.951-1.952 5.119-1.952 7.07 0l9 9c1.953 1.953 1.953 5.119 0 7.071-.975.976-2.255 1.464-3.535 1.464z" fill="#ff7eb7"/></g></g></g></svg>