<?xml version="1.0" encoding="UTF-8"?>
<svg xmlns="http://www.w3.org/2000/svg" xmlns:xlink="http://www.w3.org/1999/xlink" version="1.1" id="Capa_1" x="0px" y="0px" viewBox="0 0 512 512" style="enable-background:new 0 0 512 512;" xml:space="preserve" width="512" height="512">
<g>
	<g>
		<linearGradient id="SVGID_1_" gradientUnits="userSpaceOnUse" x1="-23.2996" y1="426.3107" x2="400.2706" y2="2.7405">
			<stop offset="0" style="stop-color:#FFFFFF;stop-opacity:0"/>
			<stop offset="1" style="stop-color:#B6C4FF"/>
		</linearGradient>
		<path style="fill:url(#SVGID_1_);" d="M507.651,185.023c-17.325,61.921-102.154,102.413-157.364,133.402&#10;&#9;&#9;&#9;c-52.307,29.359-52.574,75.362-108.698,130.137c-79.237,77.331-213.141,84.608-238.856-17.672&#10;&#9;&#9;&#9;c-16.263-64.688,44.885-118.684,56.45-180.11c11.976-63.606-35.671-130.681-13.624-192.644&#10;&#9;&#9;&#9;c16.817-47.263,83.66-67.09,130.356-42.975c70.262,36.286,151.7,50.826,230.733,48.223&#10;&#9;&#9;&#9;C498.245,60.366,523.314,129.041,507.651,185.023z"/>
	</g>
	<g>
		<g>
			<g style="opacity:0.1;">
				<path style="fill:#2626BC;" d="M473.076,318.657l-55.224-104.454h11.599c7.51,0,13.597-6.088,13.597-13.597&#10;&#9;&#9;&#9;&#9;&#9;c0-4.176-1.887-7.908-4.85-10.403h1.252c7.51,0,13.597-6.088,13.597-13.597v0c0-7.51-6.088-13.597-13.597-13.597h-25.817&#10;&#9;&#9;&#9;&#9;&#9;l0-23.093h5.173c3.473,0,6.288-2.815,6.288-6.288v-12.968c0-3.473-2.815-6.288-6.288-6.288l-57.106,0&#10;&#9;&#9;&#9;&#9;&#9;c-3.473,0-6.288,2.815-6.288,6.288v12.968c0,3.473,2.815,6.289,6.288,6.289h5.174v23.093h-68.594v-6.047c0-2.761-2.239-5-5-5&#10;&#9;&#9;&#9;&#9;&#9;h-12.638v-12.637c0-2.761-2.239-5-5-5h-6.047V82.012c0-7.51-6.088-13.597-13.597-13.597s-13.597,6.088-13.597,13.597v52.312&#10;&#9;&#9;&#9;&#9;&#9;h-6.047c-2.761,0-5,2.239-5,5v12.637h-12.638c-2.761,0-5,2.239-5,5v6.047h-68.594l0-23.093h5.174&#10;&#9;&#9;&#9;&#9;&#9;c3.473,0,6.288-2.815,6.288-6.289l0-12.968c0-3.473-2.815-6.288-6.288-6.288l-57.106,0c-3.473,0-6.288,2.815-6.288,6.288&#10;&#9;&#9;&#9;&#9;&#9;l0,12.968c0,3.473,2.815,6.288,6.288,6.288h5.173v23.093H72.549c-7.51,0-13.597,6.088-13.597,13.597v0&#10;&#9;&#9;&#9;&#9;&#9;c0,7.51,6.088,13.597,13.597,13.597h1.252c-2.963,2.494-4.85,6.227-4.85,10.403c0,7.51,6.088,13.597,13.597,13.597h11.599&#10;&#9;&#9;&#9;&#9;&#9;L38.924,318.657c-7.042,13.32,2.615,29.348,17.681,29.348l130.28,0c15.067,0,24.723-16.028,17.681-29.348l-59.442-112.431&#10;&#9;&#9;&#9;&#9;&#9;v-16.023h68.594v6.047c0,2.761,2.239,5,5,5h12.638v12.637c0,2.761,2.239,5,5,5h6.047v196.068l-40,28.746h-89.771&#10;&#9;&#9;&#9;&#9;&#9;c-2.761,0-5,2.239-5,5v17.885c0,2.761,2.239,5,5,5h286.736c2.761,0,5-2.239,5-5V448.7c0-2.761-2.239-5-5-5h-89.771l-40-28.746&#10;&#9;&#9;&#9;&#9;&#9;V218.887h6.047c2.761,0,5-2.239,5-5v-12.637h12.638c2.761,0,5-2.239,5-5v-6.047h68.594v16.023l-59.442,112.431&#10;&#9;&#9;&#9;&#9;&#9;c-7.042,13.32,2.614,29.348,17.681,29.348l130.28,0C470.461,348.005,480.118,331.976,473.076,318.657z"/>
				<path style="fill:#2626BC;" d="M139.991,385c0-2.762-2.239-5-5-5h-32.66c-2.761,0-5,2.238-5,5s2.239,5,5,5h32.66&#10;&#9;&#9;&#9;&#9;&#9;C137.752,390,139.991,387.762,139.991,385z"/>
				<path style="fill:#2626BC;" d="M89.574,400.295H73.627c-2.761,0-5,2.238-5,5s2.239,5,5,5h15.946c2.761,0,5-2.238,5-5&#10;&#9;&#9;&#9;&#9;&#9;S92.335,400.295,89.574,400.295z"/>
				<path style="fill:#2626BC;" d="M134.991,410.295c2.761,0,5-2.238,5-5s-2.239-5-5-5h-24.276c-2.761,0-5,2.238-5,5s2.239,5,5,5&#10;&#9;&#9;&#9;&#9;&#9;H134.991z"/>
				<path style="fill:#2626BC;" d="M157.218,387.98l0.099,0.057c0.785,0.451,1.641,0.665,2.485,0.665&#10;&#9;&#9;&#9;&#9;&#9;c1.732,0,3.417-0.901,4.341-2.511c1.375-2.395,0.549-5.451-1.846-6.826l-0.099-0.057c-2.394-1.376-5.451-0.548-6.826,1.846&#10;&#9;&#9;&#9;&#9;&#9;C153.997,383.549,154.823,386.605,157.218,387.98z"/>
				<path style="fill:#2626BC;" d="M182.119,402.357l0.099,0.057c0.785,0.451,1.641,0.665,2.485,0.665&#10;&#9;&#9;&#9;&#9;&#9;c1.732,0,3.417-0.901,4.341-2.511c1.375-2.395,0.549-5.451-1.846-6.826l-0.099-0.057c-2.395-1.377-5.45-0.547-6.826,1.846&#10;&#9;&#9;&#9;&#9;&#9;C178.898,397.926,179.724,400.982,182.119,402.357z"/>
				<path style="fill:#2626BC;" d="M184.614,388.702c0.844,0,1.7-0.215,2.485-0.665l0.099-0.057&#10;&#9;&#9;&#9;&#9;&#9;c2.395-1.375,3.221-4.432,1.846-6.826c-1.375-2.394-4.431-3.22-6.826-1.846l-0.099,0.057c-2.395,1.375-3.221,4.432-1.846,6.826&#10;&#9;&#9;&#9;&#9;&#9;C181.197,387.801,182.881,388.702,184.614,388.702z"/>
				<path style="fill:#2626BC;" d="M155.372,400.568c0.924,1.609,2.608,2.511,4.341,2.511c0.844,0,1.7-0.215,2.485-0.665&#10;&#9;&#9;&#9;&#9;&#9;l0.099-0.057c2.395-1.375,3.221-4.432,1.846-6.826c-1.375-2.394-4.431-3.221-6.826-1.846l-0.099,0.057&#10;&#9;&#9;&#9;&#9;&#9;C154.823,395.117,153.997,398.174,155.372,400.568z"/>
				<path style="fill:#2626BC;" d="M172.208,381.541c2.761,0,5-2.238,5-5v-0.113c0-2.762-2.239-5-5-5s-5,2.238-5,5v0.113&#10;&#9;&#9;&#9;&#9;&#9;C167.208,379.303,169.446,381.541,172.208,381.541z"/>
				<path style="fill:#2626BC;" d="M167.208,405.295c0,2.762,2.239,5,5,5s5-2.238,5-5v-0.114c0-2.762-2.239-5-5-5s-5,2.238-5,5&#10;&#9;&#9;&#9;&#9;&#9;V405.295z"/>
				<path style="fill:#2626BC;" d="M409.669,380h-32.66c-2.761,0-5,2.238-5,5s2.239,5,5,5h32.66c2.761,0,5-2.238,5-5&#10;&#9;&#9;&#9;&#9;&#9;S412.43,380,409.669,380z"/>
				<path style="fill:#2626BC;" d="M438.373,400.295h-15.946c-2.761,0-5,2.238-5,5s2.239,5,5,5h15.946c2.761,0,5-2.238,5-5&#10;&#9;&#9;&#9;&#9;&#9;S441.134,400.295,438.373,400.295z"/>
				<path style="fill:#2626BC;" d="M401.285,400.295h-24.276c-2.761,0-5,2.238-5,5s2.239,5,5,5h24.276c2.761,0,5-2.238,5-5&#10;&#9;&#9;&#9;&#9;&#9;S404.046,400.295,401.285,400.295z"/>
				<path style="fill:#2626BC;" d="M356.628,381.154c-1.375-2.394-4.43-3.22-6.826-1.846l-0.099,0.057&#10;&#9;&#9;&#9;&#9;&#9;c-2.395,1.375-3.221,4.432-1.846,6.826c0.924,1.609,2.608,2.511,4.341,2.511c0.844,0,1.7-0.215,2.485-0.665l0.099-0.057&#10;&#9;&#9;&#9;&#9;&#9;C357.177,386.605,358.003,383.549,356.628,381.154z"/>
				<path style="fill:#2626BC;" d="M324.901,393.686l-0.099,0.057c-2.395,1.375-3.221,4.432-1.846,6.826&#10;&#9;&#9;&#9;&#9;&#9;c0.924,1.609,2.608,2.511,4.341,2.511c0.844,0,1.7-0.215,2.485-0.665l0.099-0.057c2.395-1.375,3.221-4.432,1.846-6.826&#10;&#9;&#9;&#9;&#9;&#9;C330.353,393.138,327.296,392.311,324.901,393.686z"/>
				<path style="fill:#2626BC;" d="M329.881,379.365l-0.099-0.057c-2.395-1.376-5.451-0.548-6.826,1.846&#10;&#9;&#9;&#9;&#9;&#9;c-1.375,2.395-0.549,5.451,1.846,6.826l0.099,0.057c0.785,0.451,1.641,0.665,2.485,0.665c1.732,0,3.417-0.901,4.341-2.511&#10;&#9;&#9;&#9;&#9;&#9;C333.102,383.797,332.276,380.74,329.881,379.365z"/>
				<path style="fill:#2626BC;" d="M354.782,393.742l-0.099-0.057c-2.394-1.377-5.451-0.547-6.826,1.846&#10;&#9;&#9;&#9;&#9;&#9;c-1.375,2.395-0.549,5.451,1.846,6.826l0.099,0.057c0.785,0.451,1.641,0.665,2.485,0.665c1.732,0,3.417-0.901,4.341-2.511&#10;&#9;&#9;&#9;&#9;&#9;C358.003,398.174,357.177,395.117,354.782,393.742z"/>
				<path style="fill:#2626BC;" d="M344.792,376.428c0-2.762-2.239-5-5-5s-5,2.238-5,5v0.113c0,2.762,2.239,5,5,5s5-2.238,5-5&#10;&#9;&#9;&#9;&#9;&#9;V376.428z"/>
				<path style="fill:#2626BC;" d="M339.792,400.181c-2.761,0-5,2.238-5,5v0.114c0,2.762,2.239,5,5,5s5-2.238,5-5v-0.114&#10;&#9;&#9;&#9;&#9;&#9;C344.792,402.419,342.554,400.181,339.792,400.181z"/>
			</g>
			<g>
				<g>
					<g>
						<g>
							<g>
								<path style="fill:#4369FC;" d="M109.751,163.008H82.549c-7.51,0-13.597,6.088-13.597,13.597s6.088,13.597,13.597,13.597&#10;&#9;&#9;&#9;&#9;&#9;&#9;&#9;&#9;&#9;h27.202V163.008z"/>
								<path style="fill:#4369FC;" d="M429.451,163.008h-25.714v27.195h25.714c7.51,0,13.597-6.088,13.597-13.597&#10;&#9;&#9;&#9;&#9;&#9;&#9;&#9;&#9;&#9;S436.961,163.008,429.451,163.008z"/>
								
									<path style="fill:none;stroke:#2626BC;stroke-width:10;stroke-linecap:round;stroke-linejoin:round;stroke-miterlimit:10;" d="&#10;&#9;&#9;&#9;&#9;&#9;&#9;&#9;&#9;&#9;M109.751,163.008H82.549c-7.51,0-13.597,6.088-13.597,13.597s6.088,13.597,13.597,13.597h27.202V163.008z"/>
								
									<path style="fill:none;stroke:#2626BC;stroke-width:10;stroke-linecap:round;stroke-linejoin:round;stroke-miterlimit:10;" d="&#10;&#9;&#9;&#9;&#9;&#9;&#9;&#9;&#9;&#9;M429.451,163.008h-25.714v27.195h25.714c7.51,0,13.597-6.088,13.597-13.597S436.961,163.008,429.451,163.008z"/>
							</g>
						</g>
					</g>
					<g>
						<g>
							<g>
								<g>
									<g>
										<g>
											<path style="fill:#9EAFFD;" d="M307.434,294.657l59.442-112.431l0-82.749l46.759,0l0,82.749l59.441,112.431&#10;&#9;&#9;&#9;&#9;&#9;&#9;&#9;&#9;&#9;&#9;&#9;&#9;c7.042,13.32-2.615,29.348-17.681,29.348l-130.28,0C310.048,324.004,300.392,307.976,307.434,294.657z"/>
											<polygon style="fill:#8298FD;" points="417.85,190.203 362.66,190.203 366.88,182.223 366.88,99.473 413.63,99.473 &#10;&#9;&#9;&#9;&#9;&#9;&#9;&#9;&#9;&#9;&#9;&#9;&#9;413.63,182.223 &#9;&#9;&#9;&#9;&#9;&#9;&#9;&#9;&#9;&#9;&#9;"/>
											<polygon style="fill:#D1DDFF;" points="418.464,271.64 347.621,250.74 381.88,185.95 381.88,114.48 398.63,114.48 &#10;&#9;&#9;&#9;&#9;&#9;&#9;&#9;&#9;&#9;&#9;&#9;&#9;398.63,185.95 431.07,247.308 &#9;&#9;&#9;&#9;&#9;&#9;&#9;&#9;&#9;&#9;&#9;"/>
											<polygon style="fill:#B6C4FF;" points="400.88,190.203 379.63,190.203 381.88,185.953 381.88,114.483 398.63,114.483 &#10;&#9;&#9;&#9;&#9;&#9;&#9;&#9;&#9;&#9;&#9;&#9;&#9;398.63,185.953 &#9;&#9;&#9;&#9;&#9;&#9;&#9;&#9;&#9;&#9;&#9;"/>
											<path style="fill:#FF5BA7;" d="M351.257,264.163c0,0,37.85-40.152,79.811-16.855v16.855H351.257z"/>
											<path style="fill:#FF7EB7;" d="M459.678,306.588c-0.55,0.9-1.83,2.42-4.29,2.42l-130.28-0.01&#10;&#9;&#9;&#9;&#9;&#9;&#9;&#9;&#9;&#9;&#9;&#9;&#9;c-2.45,0-3.73-1.51-4.28-2.42c-0.54-0.9-1.28-2.74-0.14-4.91l26.93-50.93c6.69-1.23,14.95-0.64,24.9,3.6&#10;&#9;&#9;&#9;&#9;&#9;&#9;&#9;&#9;&#9;&#9;&#9;&#9;c30.51,13.01,50.41,4.78,58.55-7.03l28.74,54.36C460.958,303.838,460.218,305.678,459.678,306.588z"/>
											
												<path style="fill:none;stroke:#2626BC;stroke-width:10;stroke-linecap:round;stroke-linejoin:round;stroke-miterlimit:10;" d="&#10;&#9;&#9;&#9;&#9;&#9;&#9;&#9;&#9;&#9;&#9;&#9;&#9;M307.434,294.657l59.442-112.431l0-82.749l46.759,0l0,82.749l59.441,112.431c7.042,13.32-2.615,29.348-17.681,29.348&#10;&#9;&#9;&#9;&#9;&#9;&#9;&#9;&#9;&#9;&#9;&#9;&#9;l-130.28,0C310.048,324.004,300.392,307.976,307.434,294.657z"/>
										</g>
									</g>
									<g>
										
											<line style="fill:none;stroke:#FFFFFF;stroke-width:10;stroke-linecap:round;stroke-linejoin:round;stroke-miterlimit:10;" x1="404.547" y1="230.389" x2="401.5" y2="230.389"/>
										
											<line style="fill:none;stroke:#FFFFFF;stroke-width:10;stroke-linecap:round;stroke-linejoin:round;stroke-miterlimit:10;" x1="404.547" y1="251.014" x2="401.5" y2="251.014"/>
										
											<line style="fill:none;stroke:#FFFFFF;stroke-width:10;stroke-linecap:round;stroke-linejoin:round;stroke-miterlimit:10;" x1="404.547" y1="271.64" x2="401.5" y2="271.64"/>
										
											<line style="fill:none;stroke:#FFFFFF;stroke-width:10;stroke-linecap:round;stroke-linejoin:round;stroke-miterlimit:10;" x1="404.547" y1="292.265" x2="401.5" y2="292.265"/>
									</g>
								</g>
							</g>
							<g>
								<path style="fill:#B6C4FF;" d="M355.413,109.626l0-12.968c0-3.473,2.815-6.288,6.288-6.288l57.106,0&#10;&#9;&#9;&#9;&#9;&#9;&#9;&#9;&#9;&#9;c3.473,0,6.288,2.815,6.288,6.288l0,12.968c0,3.473-2.815,6.288-6.288,6.288l-57.106,0&#10;&#9;&#9;&#9;&#9;&#9;&#9;&#9;&#9;&#9;C358.229,115.915,355.413,113.099,355.413,109.626z"/>
							</g>
							<g>
								
									<path style="fill:none;stroke:#2626BC;stroke-width:10;stroke-linecap:round;stroke-linejoin:round;stroke-miterlimit:10;" d="&#10;&#9;&#9;&#9;&#9;&#9;&#9;&#9;&#9;&#9;M355.413,109.626l0-12.968c0-3.473,2.815-6.288,6.288-6.288l57.106,0c3.473,0,6.288,2.815,6.288,6.288l0,12.968&#10;&#9;&#9;&#9;&#9;&#9;&#9;&#9;&#9;&#9;c0,3.473-2.815,6.288-6.288,6.288l-57.106,0C358.229,115.915,355.413,113.099,355.413,109.626z"/>
							</g>
						</g>
						<g>
							<g>
								<g>
									<g>
										<g>
											<path style="fill:#9EAFFD;" d="M204.566,294.657l-59.442-112.431l0-82.749l-46.759,0l0,82.749L38.924,294.657&#10;&#9;&#9;&#9;&#9;&#9;&#9;&#9;&#9;&#9;&#9;&#9;&#9;c-7.042,13.32,2.614,29.348,17.681,29.348l130.28,0C201.952,324.004,211.608,307.976,204.566,294.657z"/>
											<polygon style="fill:#8298FD;" points="149.34,190.203 94.15,190.203 98.37,182.223 98.37,99.473 145.12,99.473 &#10;&#9;&#9;&#9;&#9;&#9;&#9;&#9;&#9;&#9;&#9;&#9;&#9;145.12,182.223 &#9;&#9;&#9;&#9;&#9;&#9;&#9;&#9;&#9;&#9;&#9;"/>
											<polygon style="fill:#D1DDFF;" points="91.786,271.64 164.379,250.74 130.12,185.95 130.12,114.48 113.37,114.48 &#10;&#9;&#9;&#9;&#9;&#9;&#9;&#9;&#9;&#9;&#9;&#9;&#9;113.37,185.95 80.93,247.308 &#9;&#9;&#9;&#9;&#9;&#9;&#9;&#9;&#9;&#9;&#9;"/>
											<polygon style="fill:#B6C4FF;" points="132.37,190.203 111.12,190.203 113.37,185.953 113.37,114.483 130.12,114.483 &#10;&#9;&#9;&#9;&#9;&#9;&#9;&#9;&#9;&#9;&#9;&#9;&#9;130.12,185.953 &#9;&#9;&#9;&#9;&#9;&#9;&#9;&#9;&#9;&#9;&#9;"/>
											<path style="fill:#01EBA4;" d="M160.743,264.163c0,0-37.85-40.152-79.811-16.855v16.855H160.743z"/>
											<path style="fill:#02FFB2;" d="M52.322,306.588c0.55,0.9,1.83,2.42,4.29,2.42l130.28-0.01c2.45,0,3.73-1.51,4.28-2.42&#10;&#9;&#9;&#9;&#9;&#9;&#9;&#9;&#9;&#9;&#9;&#9;&#9;c0.54-0.9,1.28-2.74,0.14-4.91l-26.93-50.93c-6.69-1.23-14.95-0.64-24.9,3.6c-30.51,13.01-50.41,4.78-58.55-7.03&#10;&#9;&#9;&#9;&#9;&#9;&#9;&#9;&#9;&#9;&#9;&#9;&#9;l-28.74,54.36C51.042,303.838,51.782,305.678,52.322,306.588z"/>
											
												<path style="fill:none;stroke:#2626BC;stroke-width:10;stroke-linecap:round;stroke-linejoin:round;stroke-miterlimit:10;" d="&#10;&#9;&#9;&#9;&#9;&#9;&#9;&#9;&#9;&#9;&#9;&#9;&#9;M165.596,220.946l-20.471-38.72l0-82.749H98.365l0,82.749L38.924,294.657c-7.042,13.32,2.615,29.348,17.681,29.348&#10;&#9;&#9;&#9;&#9;&#9;&#9;&#9;&#9;&#9;&#9;&#9;&#9;l130.28,0c15.067,0,24.723-16.028,17.681-29.348l-25.688-48.587"/>
										</g>
									</g>
									<g>
										
											<line style="fill:none;stroke:#FFFFFF;stroke-width:10;stroke-linecap:round;stroke-linejoin:round;stroke-miterlimit:10;" x1="107.453" y1="230.389" x2="110.5" y2="230.389"/>
										
											<line style="fill:none;stroke:#FFFFFF;stroke-width:10;stroke-linecap:round;stroke-linejoin:round;stroke-miterlimit:10;" x1="107.453" y1="251.014" x2="110.5" y2="251.014"/>
										
											<line style="fill:none;stroke:#FFFFFF;stroke-width:10;stroke-linecap:round;stroke-linejoin:round;stroke-miterlimit:10;" x1="107.453" y1="271.64" x2="110.5" y2="271.64"/>
										
											<line style="fill:none;stroke:#FFFFFF;stroke-width:10;stroke-linecap:round;stroke-linejoin:round;stroke-miterlimit:10;" x1="107.453" y1="292.265" x2="110.5" y2="292.265"/>
									</g>
								</g>
							</g>
							<g>
								<path style="fill:#B6C4FF;" d="M156.587,109.626l0-12.968c0-3.473-2.815-6.288-6.288-6.288l-57.106,0&#10;&#9;&#9;&#9;&#9;&#9;&#9;&#9;&#9;&#9;c-3.473,0-6.288,2.815-6.288,6.288l0,12.968c0,3.473,2.815,6.288,6.288,6.288l57.106,0&#10;&#9;&#9;&#9;&#9;&#9;&#9;&#9;&#9;&#9;C153.771,115.915,156.587,113.099,156.587,109.626z"/>
							</g>
							<g>
								
									<path style="fill:none;stroke:#2626BC;stroke-width:10;stroke-linecap:round;stroke-linejoin:round;stroke-miterlimit:10;" d="&#10;&#9;&#9;&#9;&#9;&#9;&#9;&#9;&#9;&#9;M156.587,109.626l0-12.968c0-3.473-2.815-6.288-6.288-6.288l-57.106,0c-3.473,0-6.288,2.815-6.288,6.288l0,12.968&#10;&#9;&#9;&#9;&#9;&#9;&#9;&#9;&#9;&#9;c0,3.473,2.815,6.288,6.288,6.288l57.106,0C153.771,115.915,156.587,113.099,156.587,109.626z"/>
							</g>
						</g>
					</g>
					<g>
						<g>
							<g>
								<g>
									<path style="fill:#FF7EB7;" d="M269.597,414.511h-27.195v-356.5c0-7.51,6.088-13.597,13.597-13.597h0&#10;&#9;&#9;&#9;&#9;&#9;&#9;&#9;&#9;&#9;&#9;c7.51,0,13.597,6.088,13.597,13.597V414.511z"/>
									<rect x="242.403" y="314.985" style="fill:#FFC3DE;" width="27.195" height="18.04"/>
									<rect x="242.403" y="343.521" style="fill:#FFC3DE;" width="27.195" height="18.04"/>
									<rect x="242.403" y="134.323" style="fill:#FF5BA7;" width="27.195" height="84.563"/>
									
										<path style="fill:none;stroke:#2626BC;stroke-width:10;stroke-linecap:round;stroke-linejoin:round;stroke-miterlimit:10;" d="&#10;&#9;&#9;&#9;&#9;&#9;&#9;&#9;&#9;&#9;&#9;M269.597,414.511h-27.195v-356.5c0-7.51,6.088-13.597,13.597-13.597h0c7.51,0,13.597,6.088,13.597,13.597V414.511z"/>
								</g>
							</g>
						</g>
						<g>
							<g>
								<polygon style="fill:#8298FD;" points="309.597,419.7 202.403,419.7 242.403,390.954 269.597,390.954 &#9;&#9;&#9;&#9;&#9;&#9;&#9;&#9;"/>
								
									<polygon style="fill:none;stroke:#2626BC;stroke-width:10;stroke-linecap:round;stroke-linejoin:round;stroke-miterlimit:10;" points="&#10;&#9;&#9;&#9;&#9;&#9;&#9;&#9;&#9;&#9;309.597,419.7 202.403,419.7 242.403,390.954 269.597,390.954 &#9;&#9;&#9;&#9;&#9;&#9;&#9;&#9;"/>
							</g>
							<g>
								<path style="fill:#B6C4FF;" d="M399.368,447.585H112.632c-2.761,0-5-2.239-5-5V424.7c0-2.761,2.239-5,5-5h286.736&#10;&#9;&#9;&#9;&#9;&#9;&#9;&#9;&#9;&#9;c2.761,0,5,2.239,5,5v17.885C404.368,445.347,402.129,447.585,399.368,447.585z"/>
								
									<path style="fill:none;stroke:#2626BC;stroke-width:10;stroke-linecap:round;stroke-linejoin:round;stroke-miterlimit:10;" d="&#10;&#9;&#9;&#9;&#9;&#9;&#9;&#9;&#9;&#9;M399.368,447.585H112.632c-2.761,0-5-2.239-5-5V424.7c0-2.761,2.239-5,5-5h286.736c2.761,0,5,2.239,5,5v17.885&#10;&#9;&#9;&#9;&#9;&#9;&#9;&#9;&#9;&#9;C404.368,445.347,402.129,447.585,399.368,447.585z"/>
							</g>
						</g>
					</g>
					<g>
						<g>
							<g>
								<path style="fill:#6582FD;" d="M58.952,152.605L58.952,152.605c0-7.51,6.088-13.597,13.597-13.597h366.902&#10;&#9;&#9;&#9;&#9;&#9;&#9;&#9;&#9;&#9;c7.51,0,13.597,6.088,13.597,13.597v0c0,7.51-6.088,13.597-13.597,13.597H72.549&#10;&#9;&#9;&#9;&#9;&#9;&#9;&#9;&#9;&#9;C65.039,166.202,58.952,160.115,58.952,152.605z"/>
								
									<path style="fill:none;stroke:#2626BC;stroke-width:10;stroke-linecap:round;stroke-linejoin:round;stroke-miterlimit:10;" d="&#10;&#9;&#9;&#9;&#9;&#9;&#9;&#9;&#9;&#9;M213.718,139.008H72.549c-7.51,0-13.597,6.088-13.597,13.597v0c0,7.51,6.088,13.597,13.597,13.597h366.902&#10;&#9;&#9;&#9;&#9;&#9;&#9;&#9;&#9;&#9;c7.51,0,13.597-6.088,13.597-13.597v0c0-7.51-6.088-13.597-13.597-13.597H327.714"/>
							</g>
						</g>
					</g>
					<path style="fill:#FFC3DE;" d="M293.282,127.961h-12.638v-12.637c0-2.761-2.239-5-5-5h-39.289c-2.761,0-5,2.239-5,5v12.637&#10;&#9;&#9;&#9;&#9;&#9;&#9;h-12.638c-2.761,0-5,2.239-5,5v39.289c0,2.761,2.239,5,5,5h12.638v12.637c0,2.761,2.239,5,5,5h39.289c2.761,0,5-2.239,5-5&#10;&#9;&#9;&#9;&#9;&#9;&#9;v-12.637h12.638c2.761,0,5-2.239,5-5v-39.289C298.282,130.199,296.043,127.961,293.282,127.961z"/>
					<path style="fill:none;stroke:#2626BC;stroke-width:10;stroke-linecap:round;stroke-linejoin:round;stroke-miterlimit:10;" d="&#10;&#9;&#9;&#9;&#9;&#9;&#9;M293.282,127.961h-12.638v-12.637c0-2.761-2.239-5-5-5h-39.289c-2.761,0-5,2.239-5,5v12.637h-12.638c-2.761,0-5,2.239-5,5&#10;&#9;&#9;&#9;&#9;&#9;&#9;v39.289c0,2.761,2.239,5,5,5h12.638v12.637c0,2.761,2.239,5,5,5h39.289c2.761,0,5-2.239,5-5v-12.637h12.638&#10;&#9;&#9;&#9;&#9;&#9;&#9;c2.761,0,5-2.239,5-5v-39.289C298.282,130.199,296.043,127.961,293.282,127.961z"/>
					<g>
						<g>
							<g>
								
									<line style="fill:none;stroke:#8298FD;stroke-width:10;stroke-linecap:round;stroke-linejoin:round;stroke-miterlimit:10;" x1="80.932" y1="152.548" x2="80.932" y2="152.663"/>
							</g>
						</g>
						<g>
							
								<line style="fill:none;stroke:#8298FD;stroke-width:10;stroke-linecap:round;stroke-linejoin:round;stroke-miterlimit:10;" x1="431.068" y1="152.548" x2="431.068" y2="152.663"/>
						</g>
					</g>
				</g>
				<g>
					<g>
						<g>
							<g>
								
									<line style="fill:none;stroke:#2626BC;stroke-width:10;stroke-linecap:round;stroke-linejoin:round;stroke-miterlimit:10;" x1="134.991" y1="361" x2="102.331" y2="361"/>
								
									<line style="fill:none;stroke:#2626BC;stroke-width:10;stroke-linecap:round;stroke-linejoin:round;stroke-miterlimit:10;" x1="89.574" y1="381.295" x2="73.628" y2="381.295"/>
								
									<line style="fill:none;stroke:#2626BC;stroke-width:10;stroke-linecap:round;stroke-linejoin:round;stroke-miterlimit:10;" x1="134.991" y1="381.295" x2="110.715" y2="381.295"/>
							</g>
						</g>
						<g>
							<g>
								
									<line style="fill:none;stroke:#2626BC;stroke-width:10;stroke-linecap:round;stroke-linejoin:round;stroke-miterlimit:10;" x1="159.707" y1="359.644" x2="159.806" y2="359.701"/>
								
									<line style="fill:none;stroke:#2626BC;stroke-width:10;stroke-linecap:round;stroke-linejoin:round;stroke-miterlimit:10;" x1="184.609" y1="374.021" x2="184.707" y2="374.078"/>
							</g>
							<g>
								
									<line style="fill:none;stroke:#2626BC;stroke-width:10;stroke-linecap:round;stroke-linejoin:round;stroke-miterlimit:10;" x1="184.707" y1="359.644" x2="184.609" y2="359.701"/>
								
									<line style="fill:none;stroke:#2626BC;stroke-width:10;stroke-linecap:round;stroke-linejoin:round;stroke-miterlimit:10;" x1="159.806" y1="374.021" x2="159.707" y2="374.078"/>
							</g>
							<g>
								
									<line style="fill:none;stroke:#2626BC;stroke-width:10;stroke-linecap:round;stroke-linejoin:round;stroke-miterlimit:10;" x1="184.707" y1="359.644" x2="184.609" y2="359.701"/>
								
									<line style="fill:none;stroke:#2626BC;stroke-width:10;stroke-linecap:round;stroke-linejoin:round;stroke-miterlimit:10;" x1="159.806" y1="374.021" x2="159.707" y2="374.078"/>
							</g>
							<g>
								
									<line style="fill:none;stroke:#2626BC;stroke-width:10;stroke-linecap:round;stroke-linejoin:round;stroke-miterlimit:10;" x1="172.207" y1="352.427" x2="172.207" y2="352.541"/>
								
									<line style="fill:none;stroke:#2626BC;stroke-width:10;stroke-linecap:round;stroke-linejoin:round;stroke-miterlimit:10;" x1="172.207" y1="381.181" x2="172.207" y2="381.295"/>
							</g>
						</g>
					</g>
					<g>
						<g>
							<g>
								
									<line style="fill:none;stroke:#2626BC;stroke-width:10;stroke-linecap:round;stroke-linejoin:round;stroke-miterlimit:10;" x1="377.009" y1="361" x2="409.669" y2="361"/>
								
									<line style="fill:none;stroke:#2626BC;stroke-width:10;stroke-linecap:round;stroke-linejoin:round;stroke-miterlimit:10;" x1="422.426" y1="381.295" x2="438.372" y2="381.295"/>
								
									<line style="fill:none;stroke:#2626BC;stroke-width:10;stroke-linecap:round;stroke-linejoin:round;stroke-miterlimit:10;" x1="377.009" y1="381.295" x2="401.285" y2="381.295"/>
							</g>
						</g>
						<g>
							<g>
								
									<line style="fill:none;stroke:#2626BC;stroke-width:10;stroke-linecap:round;stroke-linejoin:round;stroke-miterlimit:10;" x1="352.293" y1="359.644" x2="352.194" y2="359.701"/>
								
									<line style="fill:none;stroke:#2626BC;stroke-width:10;stroke-linecap:round;stroke-linejoin:round;stroke-miterlimit:10;" x1="327.391" y1="374.021" x2="327.293" y2="374.078"/>
							</g>
							<g>
								
									<line style="fill:none;stroke:#2626BC;stroke-width:10;stroke-linecap:round;stroke-linejoin:round;stroke-miterlimit:10;" x1="327.293" y1="359.644" x2="327.391" y2="359.701"/>
								
									<line style="fill:none;stroke:#2626BC;stroke-width:10;stroke-linecap:round;stroke-linejoin:round;stroke-miterlimit:10;" x1="352.194" y1="374.021" x2="352.293" y2="374.078"/>
							</g>
							<g>
								
									<line style="fill:none;stroke:#2626BC;stroke-width:10;stroke-linecap:round;stroke-linejoin:round;stroke-miterlimit:10;" x1="339.793" y1="352.427" x2="339.793" y2="352.541"/>
								
									<line style="fill:none;stroke:#2626BC;stroke-width:10;stroke-linecap:round;stroke-linejoin:round;stroke-miterlimit:10;" x1="339.793" y1="381.181" x2="339.793" y2="381.295"/>
							</g>
						</g>
					</g>
				</g>
			</g>
		</g>
		
			<rect x="56.042" y="420.752" transform="matrix(0.7071 0.7071 -0.7071 0.7071 321.3557 80.5327)" style="fill:none;stroke:#01EBA4;stroke-width:10;stroke-linecap:round;stroke-linejoin:round;stroke-miterlimit:10;" width="14.849" height="14.849"/>
		
			<rect x="314.867" y="21.694" transform="matrix(0.7071 0.7071 -0.7071 0.7071 114.9872 -219.3659)" style="fill:none;stroke:#01EBA4;stroke-width:10;stroke-linecap:round;stroke-linejoin:round;stroke-miterlimit:10;" width="14.849" height="14.849"/>
		<g>
			
				<line style="fill:none;stroke:#6582FD;stroke-width:10;stroke-linecap:round;stroke-linejoin:round;stroke-miterlimit:10;" x1="199.336" y1="77.82" x2="184.487" y2="92.67"/>
			
				<line style="fill:none;stroke:#6582FD;stroke-width:10;stroke-linecap:round;stroke-linejoin:round;stroke-miterlimit:10;" x1="199.336" y1="92.67" x2="184.487" y2="77.82"/>
		</g>
		<g>
			
				<line style="fill:none;stroke:#01EBA4;stroke-width:10;stroke-linecap:round;stroke-linejoin:round;stroke-miterlimit:10;" x1="455.914" y1="428.599" x2="441.065" y2="443.449"/>
			
				<line style="fill:none;stroke:#01EBA4;stroke-width:10;stroke-linecap:round;stroke-linejoin:round;stroke-miterlimit:10;" x1="455.914" y1="443.449" x2="441.065" y2="428.599"/>
		</g>
		<g>
			
				<line style="fill:none;stroke:#FF5BA7;stroke-width:10;stroke-linecap:round;stroke-linejoin:round;stroke-miterlimit:10;" x1="481.498" y1="362.606" x2="466.649" y2="377.455"/>
			
				<line style="fill:none;stroke:#FF5BA7;stroke-width:10;stroke-linecap:round;stroke-linejoin:round;stroke-miterlimit:10;" x1="481.498" y1="377.455" x2="466.649" y2="362.606"/>
		</g>
	</g>
</g>















</svg>
