<?xml version="1.0" encoding="UTF-8"?>
<svg xmlns="http://www.w3.org/2000/svg" xmlns:xlink="http://www.w3.org/1999/xlink" version="1.1" id="Capa_1" x="0px" y="0px" viewBox="0 0 512 512" style="enable-background:new 0 0 512 512;" xml:space="preserve" width="512" height="512">
<g>
	<g>
		<linearGradient id="SVGID_1_" gradientUnits="userSpaceOnUse" x1="61.9501" y1="482.8164" x2="490.4394" y2="54.3271">
			<stop offset="0" style="stop-color:#FFFFFF;stop-opacity:0"/>
			<stop offset="1" style="stop-color:#B6C4FF"/>
		</linearGradient>
		<path style="fill:url(#SVGID_1_);" d="M468.117,330.006c-107.645-58.563,105.516-213,2.423-294.676&#10;&#9;&#9;&#9;c-73.435-58.179-183.066,10.377-236.172,69.723c-80.427,89.878-189.385-25.81-228.619,35.031&#10;&#9;&#9;&#9;c-21.854,33.89,27.754,67.53-1.55,190.333c-16.496,69.128,29.537,155.483,99.731,166.004&#10;&#9;&#9;&#9;c104.728,15.697,201.937-54.309,304.251-17.453C488.612,507.942,561.6,380.864,468.117,330.006z"/>
	</g>
	<g>
		<g>
			<g>
				<path style="opacity:0.1;fill:#2626BC;" d="M413.76,298.31h-20.694v-36.615c0-0.003-0.001-0.005-0.001-0.008h20.695&#10;&#9;&#9;&#9;&#9;&#9;c5.355,0,9.696-4.341,9.696-9.695V106.466c0-5.355-4.341-9.695-9.696-9.695h-113.98c-5.354,0-9.695,4.341-9.695,9.695v36.467&#10;&#9;&#9;&#9;&#9;&#9;c0,0,0,0,0,0h-68.17c0,0,0,0,0,0v-36.467c0-5.355-4.341-9.695-9.695-9.695H98.24c-5.355,0-9.696,4.341-9.696,9.695v145.526&#10;&#9;&#9;&#9;&#9;&#9;c0,5.355,4.341,9.695,9.696,9.695h20.695c0,0.003-0.001,0.005-0.001,0.008v36.615H98.24c-5.36,0-9.7,4.34-9.7,9.7l0.004,145.524&#10;&#9;&#9;&#9;&#9;&#9;c0,5.355,4.341,9.695,9.696,9.695h113.98c5.354,0,9.695-4.341,9.695-9.695v-36.467c0,0,0,0,0,0h68.17c0,0,0,0,0,0v36.467&#10;&#9;&#9;&#9;&#9;&#9;c0,5.355,4.341,9.695,9.695,9.695h113.98c5.355,0,9.696-4.341,9.696-9.695l0.004-145.524&#10;&#9;&#9;&#9;&#9;&#9;C423.46,302.65,419.12,298.31,413.76,298.31z M221.915,152.933h68.17c0,0,0,0,0,0v87.154&#10;&#9;&#9;&#9;&#9;&#9;C280.912,232.245,269.014,227.5,256,227.5s-24.912,4.745-34.085,12.587L221.915,152.933&#10;&#9;&#9;&#9;&#9;&#9;C221.915,152.933,221.915,152.933,221.915,152.933z M128.933,261.688h77.856c-2.123,5.702-3.289,11.87-3.289,18.312&#10;&#9;&#9;&#9;&#9;&#9;c0,6.441,1.165,12.608,3.288,18.31h-77.854v-36.615C128.934,261.693,128.933,261.69,128.933,261.688z M290.085,407.067h-68.17&#10;&#9;&#9;&#9;&#9;&#9;c0,0,0,0,0,0l-0.004-87.157c9.174,7.843,21.074,12.59,34.09,12.59s24.916-4.747,34.09-12.59L290.085,407.067&#10;&#9;&#9;&#9;&#9;&#9;C290.085,407.067,290.085,407.067,290.085,407.067z M383.066,261.695v36.615h-77.854c2.122-5.702,3.288-11.869,3.288-18.31&#10;&#9;&#9;&#9;&#9;&#9;c0-6.442-1.166-12.61-3.289-18.312h77.856C383.067,261.69,383.066,261.693,383.066,261.695z"/>
				<g>
					<g>
						<g>
							<g>
								<g>
									<path style="fill:#FF5BA7;" d="M98.239,237.688h113.98c5.355,0,9.695-4.341,9.695-9.695v-51.929&#10;&#9;&#9;&#9;&#9;&#9;&#9;&#9;&#9;&#9;&#9;c0-5.355-4.341-9.695-9.695-9.695H98.239c-5.355,0-9.695,4.341-9.695,9.695v51.929&#10;&#9;&#9;&#9;&#9;&#9;&#9;&#9;&#9;&#9;&#9;C88.544,233.347,92.885,237.688,98.239,237.688z"/>
									<rect x="117.368" y="206.142" style="fill:#FD2C8E;" width="36.028" height="31.546"/>
									
										<path style="fill:none;stroke:#2626BC;stroke-width:10;stroke-linecap:round;stroke-linejoin:round;stroke-miterlimit:10;" d="&#10;&#9;&#9;&#9;&#9;&#9;&#9;&#9;&#9;&#9;&#9;M88.544,194.063v33.929c0,5.355,4.341,9.695,9.695,9.695h113.98c5.355,0,9.695-4.341,9.695-9.695v-51.929"/>
								</g>
								<g>
									<path style="fill:#FFA7CE;" d="M98.239,206.142h113.98c5.355,0,9.695-4.341,9.695-9.695V82.466&#10;&#9;&#9;&#9;&#9;&#9;&#9;&#9;&#9;&#9;&#9;c0-5.355-4.341-9.695-9.695-9.695H98.239c-5.355,0-9.695,4.341-9.695,9.695v113.98&#10;&#9;&#9;&#9;&#9;&#9;&#9;&#9;&#9;&#9;&#9;C88.544,201.801,92.885,206.142,98.239,206.142z"/>
									
										<path style="fill:none;stroke:#2626BC;stroke-width:10;stroke-linecap:round;stroke-linejoin:round;stroke-miterlimit:10;" d="&#10;&#9;&#9;&#9;&#9;&#9;&#9;&#9;&#9;&#9;&#9;M88.544,176.8v19.646c0,5.355,4.341,9.695,9.696,9.695h113.98c5.354,0,9.695-4.341,9.695-9.695V82.466&#10;&#9;&#9;&#9;&#9;&#9;&#9;&#9;&#9;&#9;&#9;c0-5.355-4.341-9.695-9.695-9.695H98.24c-5.355,0-9.696,4.341-9.696,9.695v61.01"/>
								</g>
							</g>
						</g>
						<g>
							<g>
								<g>
									<path style="fill:#4369FC;" d="M98.239,439.229h113.98c5.355,0,9.695-4.341,9.695-9.695v-51.929&#10;&#9;&#9;&#9;&#9;&#9;&#9;&#9;&#9;&#9;&#9;c0-5.355-4.341-9.695-9.695-9.695H98.239c-5.355,0-9.695,4.341-9.695,9.695v51.929&#10;&#9;&#9;&#9;&#9;&#9;&#9;&#9;&#9;&#9;&#9;C88.544,434.888,92.885,439.229,98.239,439.229z"/>
									<rect x="117.368" y="407.68" style="fill:#2D58DF;" width="36.028" height="31.546"/>
									
										<path style="fill:none;stroke:#2626BC;stroke-width:10;stroke-linecap:round;stroke-linejoin:round;stroke-miterlimit:10;" d="&#10;&#9;&#9;&#9;&#9;&#9;&#9;&#9;&#9;&#9;&#9;M98.239,439.229h113.98c5.355,0,9.695-4.341,9.695-9.695v-51.929c0-5.355-4.341-9.695-9.695-9.695H98.239&#10;&#9;&#9;&#9;&#9;&#9;&#9;&#9;&#9;&#9;&#9;c-5.355,0-9.695,4.341-9.695,9.695v51.929C88.544,434.888,92.885,439.229,98.239,439.229z"/>
								</g>
								<g>
									<path style="fill:#8298FD;" d="M221.91,284.01v113.98c0,5.35-4.34,9.69-9.69,9.69H98.24c-5.36,0-9.7-4.34-9.7-9.69V284.01&#10;&#9;&#9;&#9;&#9;&#9;&#9;&#9;&#9;&#9;&#9;c0-5.36,4.34-9.7,9.7-9.7h113.98C217.57,274.31,221.91,278.65,221.91,284.01z"/>
									<path style="fill:#6582FD;" d="M221.91,284.01v35.9c-11.27-9.62-18.41-23.93-18.41-39.91c0-1.92,0.1-3.82,0.31-5.69h8.41&#10;&#9;&#9;&#9;&#9;&#9;&#9;&#9;&#9;&#9;&#9;C217.57,274.31,221.91,278.65,221.91,284.01z"/>
									
										<path style="fill:none;stroke:#2626BC;stroke-width:10;stroke-linecap:round;stroke-linejoin:round;stroke-miterlimit:10;" d="&#10;&#9;&#9;&#9;&#9;&#9;&#9;&#9;&#9;&#9;&#9;M98.239,407.683h113.98c5.355,0,9.695-4.341,9.695-9.695v-113.98c0-5.355-4.341-9.695-9.695-9.695H98.239&#10;&#9;&#9;&#9;&#9;&#9;&#9;&#9;&#9;&#9;&#9;c-5.355,0-9.695,4.341-9.695,9.695v113.98C88.544,403.342,92.885,407.683,98.239,407.683z"/>
								</g>
							</g>
						</g>
					</g>
					<g>
						<g>
							<g>
								<g>
									<path style="fill:#00D78F;" d="M299.781,237.688h113.98c5.355,0,9.695-4.341,9.695-9.695v-51.929&#10;&#9;&#9;&#9;&#9;&#9;&#9;&#9;&#9;&#9;&#9;c0-5.355-4.341-9.695-9.695-9.695h-113.98c-5.355,0-9.695,4.341-9.695,9.695v51.929&#10;&#9;&#9;&#9;&#9;&#9;&#9;&#9;&#9;&#9;&#9;C290.085,233.347,294.426,237.688,299.781,237.688z"/>
									<rect x="318.913" y="206.142" style="fill:#00B474;" width="36.028" height="31.546"/>
									
										<path style="fill:none;stroke:#2626BC;stroke-width:10;stroke-linecap:round;stroke-linejoin:round;stroke-miterlimit:10;" d="&#10;&#9;&#9;&#9;&#9;&#9;&#9;&#9;&#9;&#9;&#9;M299.781,237.688h113.98c5.355,0,9.695-4.341,9.695-9.695v-51.929c0-5.355-4.341-9.695-9.695-9.695h-113.98&#10;&#9;&#9;&#9;&#9;&#9;&#9;&#9;&#9;&#9;&#9;c-5.355,0-9.695,4.341-9.695,9.695v51.929C290.085,233.347,294.426,237.688,299.781,237.688z"/>
								</g>
								<g>
									<path style="fill:#02FFB2;" d="M299.781,206.142h113.98c5.355,0,9.695-4.341,9.695-9.695V82.466&#10;&#9;&#9;&#9;&#9;&#9;&#9;&#9;&#9;&#9;&#9;c0-5.355-4.341-9.695-9.695-9.695h-113.98c-5.355,0-9.695,4.341-9.695,9.695v113.98&#10;&#9;&#9;&#9;&#9;&#9;&#9;&#9;&#9;&#9;&#9;C290.085,201.801,294.426,206.142,299.781,206.142z"/>
									
										<path style="fill:none;stroke:#2626BC;stroke-width:10;stroke-linecap:round;stroke-linejoin:round;stroke-miterlimit:10;" d="&#10;&#9;&#9;&#9;&#9;&#9;&#9;&#9;&#9;&#9;&#9;M299.781,206.142h113.98c5.355,0,9.695-4.341,9.695-9.695V82.466c0-5.355-4.341-9.695-9.695-9.695h-113.98&#10;&#9;&#9;&#9;&#9;&#9;&#9;&#9;&#9;&#9;&#9;c-5.355,0-9.695,4.341-9.695,9.695v113.98C290.085,201.801,294.426,206.142,299.781,206.142z"/>
								</g>
							</g>
						</g>
						<g>
							<g>
								<g>
									<path style="fill:#FF5BA7;" d="M299.781,439.229h113.98c5.355,0,9.695-4.341,9.695-9.695v-51.929&#10;&#9;&#9;&#9;&#9;&#9;&#9;&#9;&#9;&#9;&#9;c0-5.355-4.341-9.695-9.695-9.695h-113.98c-5.355,0-9.695,4.341-9.695,9.695v51.929&#10;&#9;&#9;&#9;&#9;&#9;&#9;&#9;&#9;&#9;&#9;C290.085,434.888,294.426,439.229,299.781,439.229z"/>
									<rect x="318.913" y="407.68" style="fill:#FD2C8E;" width="36.028" height="31.546"/>
									
										<path style="fill:none;stroke:#2626BC;stroke-width:10;stroke-linecap:round;stroke-linejoin:round;stroke-miterlimit:10;" d="&#10;&#9;&#9;&#9;&#9;&#9;&#9;&#9;&#9;&#9;&#9;M299.781,439.229h113.98c5.355,0,9.695-4.341,9.695-9.695v-51.929c0-5.355-4.341-9.695-9.695-9.695h-113.98&#10;&#9;&#9;&#9;&#9;&#9;&#9;&#9;&#9;&#9;&#9;c-5.355,0-9.695,4.341-9.695,9.695v51.929C290.085,434.888,294.426,439.229,299.781,439.229z"/>
								</g>
								<g>
									<path style="fill:#FFA7CE;" d="M423.46,284.01v113.98c0,5.35-4.34,9.69-9.7,9.69H299.78c-5.35,0-9.69-4.34-9.69-9.69&#10;&#9;&#9;&#9;&#9;&#9;&#9;&#9;&#9;&#9;&#9;V284.01c0-5.36,4.34-9.7,9.69-9.7h113.98C419.12,274.31,423.46,278.65,423.46,284.01z"/>
									<path style="fill:#FF7EB7;" d="M308.5,280c0,15.98-7.14,30.29-18.41,39.91v-35.9c0-5.36,4.34-9.7,9.69-9.7h8.41&#10;&#9;&#9;&#9;&#9;&#9;&#9;&#9;&#9;&#9;&#9;C308.4,276.18,308.5,278.08,308.5,280z"/>
									
										<path style="fill:none;stroke:#2626BC;stroke-width:10;stroke-linecap:round;stroke-linejoin:round;stroke-miterlimit:10;" d="&#10;&#9;&#9;&#9;&#9;&#9;&#9;&#9;&#9;&#9;&#9;M290.085,284.008v113.98c0,5.355,4.341,9.695,9.695,9.695h113.98c5.355,0,9.696-4.341,9.696-9.695v-113.98&#10;&#9;&#9;&#9;&#9;&#9;&#9;&#9;&#9;&#9;&#9;c0-5.355-4.341-9.695-9.696-9.695h-75.741"/>
								</g>
							</g>
						</g>
					</g>
				</g>
				<g>
					<g>
						<g>
							<g>
								<circle style="fill:#8298FD;" cx="256" cy="256" r="52.5"/>
								
									<circle style="fill:none;stroke:#2626BC;stroke-width:10;stroke-linecap:round;stroke-linejoin:round;stroke-miterlimit:10;" cx="256" cy="256" r="52.5"/>
							</g>
						</g>
					</g>
					<g>
						<g>
							<circle style="fill:#FFFFFF;" cx="251.745" cy="282.194" r="5.96"/>
						</g>
						
							<path style="fill:none;stroke:#FFFFFF;stroke-width:10;stroke-linecap:round;stroke-linejoin:round;stroke-miterlimit:10;" d="&#10;&#9;&#9;&#9;&#9;&#9;&#9;&#9;M235.222,239.673L235.222,239.673c0-5.738,4.651-10.389,10.389-10.389h20.779c5.738,0,10.389,4.651,10.389,10.389v5.874&#10;&#9;&#9;&#9;&#9;&#9;&#9;&#9;c0,5.738-4.651,10.389-10.389,10.389h-9.645c-2.761,0-5,2.239-5,5v4.764"/>
					</g>
				</g>
				<g>
					
						<line style="fill:none;stroke:#2626BC;stroke-width:10;stroke-linecap:round;stroke-linejoin:round;stroke-miterlimit:10;" x1="221.915" y1="123.933" x2="290.085" y2="123.933"/>
					
						<line style="fill:none;stroke:#2626BC;stroke-width:10;stroke-linecap:round;stroke-linejoin:round;stroke-miterlimit:10;" x1="221.915" y1="388.067" x2="290.085" y2="388.067"/>
				</g>
				<g>
					
						<line style="fill:none;stroke:#2626BC;stroke-width:10;stroke-linecap:round;stroke-linejoin:round;stroke-miterlimit:10;" x1="388.067" y1="237.695" x2="388.067" y2="274.42"/>
					
						<line style="fill:none;stroke:#2626BC;stroke-width:10;stroke-linecap:round;stroke-linejoin:round;stroke-miterlimit:10;" x1="123.933" y1="237.695" x2="123.933" y2="274.42"/>
				</g>
				<g>
					<path style="fill:#FFFFFF;" d="M148.514,99.456h13.431c1.855,0,3.358,1.504,3.358,3.358v26.568h26.568&#10;&#9;&#9;&#9;&#9;&#9;&#9;c1.855,0,3.358,1.504,3.358,3.358v13.431c0,1.855-1.503,3.358-3.358,3.358l-26.569,0.002l0,26.566&#10;&#9;&#9;&#9;&#9;&#9;&#9;c0,1.855-1.504,3.359-3.359,3.358l-13.435-0.003c-1.855,0-3.358-1.504-3.358-3.359l0.002-26.561l-26.561,0.002&#10;&#9;&#9;&#9;&#9;&#9;&#9;c-1.855,0-3.358-1.503-3.359-3.358l-0.003-13.435c0-1.855,1.503-3.359,3.358-3.359l26.566,0l0.002-26.569&#10;&#9;&#9;&#9;&#9;&#9;&#9;C145.156,100.959,146.659,99.456,148.514,99.456z"/>
				</g>
				<path style="fill:#FFFFFF;" d="M393.245,128.88h-72.948c-1.948,0-3.526,1.579-3.526,3.527l0.003,14.106&#10;&#9;&#9;&#9;&#9;&#9;c0,1.947,1.579,3.525,3.526,3.525l72.945-0.005c1.947,0,3.526-1.579,3.526-3.526v-14.101&#10;&#9;&#9;&#9;&#9;&#9;C396.771,130.458,395.193,128.88,393.245,128.88z"/>
				<g>
					<path style="fill:#FFFFFF;" d="M393.316,313.149h-73.09c-1.951,0-3.533,1.582-3.533,3.534l0.003,14.133&#10;&#9;&#9;&#9;&#9;&#9;&#9;c0,1.951,1.582,3.532,3.533,3.532l73.086-0.005c1.951,0,3.533-1.582,3.533-3.533v-14.128&#10;&#9;&#9;&#9;&#9;&#9;&#9;C396.849,314.731,395.267,313.149,393.316,313.149z"/>
					<path style="fill:#FFFFFF;" d="M393.316,347.647h-73.09c-1.951,0-3.533,1.582-3.533,3.534l0.003,14.133&#10;&#9;&#9;&#9;&#9;&#9;&#9;c0,1.951,1.582,3.532,3.533,3.532l73.086-0.005c1.951,0,3.533-1.582,3.533-3.533V351.18&#10;&#9;&#9;&#9;&#9;&#9;&#9;C396.849,349.229,395.267,347.647,393.316,347.647z"/>
				</g>
				<path style="fill:#FFFFFF;" d="M191.703,330.419h-72.948c-1.948,0-3.526,1.579-3.526,3.527l0.003,14.106&#10;&#9;&#9;&#9;&#9;&#9;c0,1.947,1.579,3.525,3.526,3.525l72.945-0.005c1.947,0,3.526-1.579,3.526-3.526v-14.101&#10;&#9;&#9;&#9;&#9;&#9;C195.229,331.997,193.65,330.419,191.703,330.419z"/>
				<g>
					<circle style="fill:#FFFFFF;" cx="141.759" cy="306.567" r="13.474"/>
					<circle style="fill:#FFFFFF;" cx="168.706" cy="375.428" r="13.474"/>
				</g>
			</g>
			<g>
				
					<line style="fill:none;stroke:#FFDAEC;stroke-width:10;stroke-linecap:round;stroke-linejoin:round;stroke-miterlimit:10;" x1="108.54" y1="186.771" x2="117.368" y2="186.771"/>
				
					<line style="fill:none;stroke:#DBFCED;stroke-width:10;stroke-linecap:round;stroke-linejoin:round;stroke-miterlimit:10;" x1="310.085" y1="186.771" x2="318.913" y2="186.771"/>
			</g>
			<g>
				
					<line style="fill:none;stroke:#D1DDFF;stroke-width:10;stroke-linecap:round;stroke-linejoin:round;stroke-miterlimit:10;" x1="108.54" y1="388.31" x2="117.368" y2="388.31"/>
				
					<line style="fill:none;stroke:#FFDAEC;stroke-width:10;stroke-linecap:round;stroke-linejoin:round;stroke-miterlimit:10;" x1="310.085" y1="388.31" x2="318.913" y2="388.31"/>
			</g>
		</g>
		<path style="fill:none;stroke:#01EBA4;stroke-width:10;stroke-linecap:round;stroke-linejoin:round;stroke-miterlimit:10;" d="&#10;&#9;&#9;&#9;M45.219,150.708c0,6.259-5.074,11.333-11.333,11.333c6.259,0,11.333,5.074,11.333,11.333c0-6.259,5.074-11.333,11.333-11.333&#10;&#9;&#9;&#9;C50.293,162.041,45.219,156.967,45.219,150.708z"/>
		<path style="fill:none;stroke:#8298FD;stroke-width:10;stroke-linecap:round;stroke-linejoin:round;stroke-miterlimit:10;" d="&#10;&#9;&#9;&#9;M467.621,320.268c0,6.259-5.074,11.333-11.333,11.333c6.259,0,11.333,5.074,11.333,11.333c0-6.259,5.074-11.333,11.333-11.333&#10;&#9;&#9;&#9;C472.695,331.601,467.621,326.527,467.621,320.268z"/>
		<path style="fill:none;stroke:#FF7EB7;stroke-width:10;stroke-linecap:round;stroke-linejoin:round;stroke-miterlimit:10;" d="&#10;&#9;&#9;&#9;M471.743,258.901c0,6.259-5.074,11.333-11.333,11.333c6.259,0,11.333,5.074,11.333,11.333c0-6.259,5.074-11.333,11.333-11.333&#10;&#9;&#9;&#9;C476.817,270.235,471.743,265.16,471.743,258.901z"/>
		
			<circle style="fill:none;stroke:#FF7EB7;stroke-width:10;stroke-linecap:round;stroke-linejoin:round;stroke-miterlimit:10;" cx="243" cy="43.629" r="10"/>
		
			<circle style="fill:none;stroke:#01EBA4;stroke-width:10;stroke-linecap:round;stroke-linejoin:round;stroke-miterlimit:10;" cx="264.781" cy="473.32" r="10"/>
	</g>
</g>















</svg>
