<svg id="Capa_1" enable-background="new 0 0 512 512" height="512" viewBox="0 0 512 512" width="512" xmlns="http://www.w3.org/2000/svg" xmlns:xlink="http://www.w3.org/1999/xlink"><linearGradient id="SVGID_1_" gradientUnits="userSpaceOnUse" x1="94.825" x2="426.712" y1="383.433" y2="51.546"><stop offset="0" stop-color="#ffd8d8" stop-opacity="0"/><stop offset=".9981" stop-color="#ffb2b2"/></linearGradient><g><g><path d="m459.398 90.151c-50.715-88.004-99.409 12.401-206.33-43.54-31.131-16.288-62.852-31.657-96.379-42.168-125.128-39.229-228.853 194.167 24.24 195.997 29.034.21 59.65-12.467 85.462.807 55.734 36.922-38.845 73.953-65.592 92.752-130.974 92.059-28.885 215.482 99.42 217.972 65.663 1.274 120.427-38.294 108.052-106.21-35.626-195.517 144.435-153.698 51.127-315.61z" fill="url(#SVGID_1_)"/></g><g><g><g><path d="m398.502 339.188c-2.934-8.062-3.854-15.66-3.57-22.54.606-14.663 7.061-28.483 17.524-38.773l-.009.003.008-.006c29.759-29.261 36.977-70.82 19.248-119.529-25.353-69.656-92.128-127.557-161.792-102.201-27.473 9.999-46.272 29.633-57.419 54.013-7.789-1.979-16.016-3.046-24.675-3.046-74.135 0-117.08 77.248-117.08 151.374 0 51.836 20.997 88.419 58.969 105.737l.01.003h-.01c13.352 6.091 24.144 16.87 29.728 30.441 2.62 6.368 4.355 13.823 4.355 22.402 0 25.912-3.174 58.383-5.11 75.782-.735 6.601 4.437 12.37 11.078 12.37h36.121c6.641 0 11.813-5.77 11.078-12.37-1.936-17.399-5.11-49.87-5.11-75.782 0-8.579 1.734-16.034 4.355-22.402 5.584-13.571 16.377-24.35 29.728-30.441h-.01l.01-.003c21.701-9.897 37.845-26.097 47.707-47.829 3.145.551 6.343.973 9.606 1.231l.01-.001-.01.004c14.63 1.157 28.458 7.595 38.347 18.438 4.64 5.088 8.82 11.5 11.754 19.562 8.863 24.35 16.986 55.948 21.117 72.959 1.567 6.454 8.4 10.107 14.641 7.835l33.943-12.354c6.241-2.271 9.127-9.462 6.179-15.413-7.771-15.687-21.858-45.114-30.721-69.464z" fill="#0000cb" opacity=".1"/><g><g><path d="m431.703 134.343c17.729 48.71 10.511 90.268-19.248 119.529l-49.191 34.756-60.023 4.995c-41.605-3.287-73.848-30.483-91.577-79.192-25.353-69.656-11.418-156.933 58.246-182.289s136.44 32.545 161.793 102.201z" fill="#6c6cff"/><circle cx="292.933" cy="214.999" fill="#4d4dff" r="43.49"/><path d="m412.456 253.875-109.215 39.751c14.63 1.157 28.458 7.595 38.347 18.438 4.64 5.088 8.82 11.5 11.754 19.562 8.863 24.35 16.986 55.948 21.117 72.959 1.567 6.454 8.4 10.107 14.641 7.835l33.943-12.354c6.241-2.271 9.127-9.462 6.179-15.413-7.77-15.687-21.858-45.114-30.721-69.464-2.934-8.061-3.854-15.66-3.57-22.54.607-14.664 7.062-28.484 17.525-38.774z" fill="#ffc498"/><path d="m412.455 253.872c-10.459 10.294-16.916 24.113-17.519 38.775-.287 6.883.634 14.477 3.569 22.541l-11.384-31.277c-.827-2.273-2.373-4.215-4.403-5.531l-13.519-8.765z" fill="#fa6"/><path d="m346.497 277.879-4.722 15.404c-.709 2.313-.645 4.794.182 7.067l11.384 31.277c-2.935-8.065-7.111-14.473-11.755-19.562-9.887-10.844-23.716-17.28-38.345-18.442z" fill="#fa6"/><circle cx="397.696" cy="383.23" fill="#8282ff" r="7.593"/></g><g><path d="m363.264 288.628c-3.001 1.092-4.549 4.411-3.457 7.413l22.268 61.182c1.092 3.001 4.411 4.549 7.413 3.457 3.001-1.092 4.549-4.411 3.457-7.413l-22.268-61.182c-1.093-3.002-4.411-4.549-7.413-3.457z" fill="#fff"/></g></g><g><g><path d="m304.897 234.484c0 51.836-20.997 88.419-58.969 105.737l-58.111 15.835-58.111-15.835c-37.972-17.319-58.969-53.902-58.969-105.737 0-74.127 42.945-151.374 117.08-151.374 74.135-.001 117.08 77.247 117.08 151.374z" fill="#ff4d4d"/><path d="m304.899 234.48c0 7.94-.49 15.52-1.46 22.73-3.36.84-6.89 1.28-10.51 1.28-24.01 0-43.49-19.47-43.49-43.49s19.48-43.49 43.49-43.49c.52 0 1.03.01 1.54.03 6.86 19.95 10.43 41.58 10.43 62.94z" fill="#ff2c2c"/><path d="m245.928 340.224h-116.224c13.352 6.091 24.144 16.87 29.728 30.441 2.62 6.368 4.355 13.823 4.355 22.402 0 25.912-3.174 58.383-5.11 75.782-.735 6.6 4.437 12.37 11.078 12.37h36.121c6.641 0 11.813-5.77 11.078-12.37-1.936-17.399-5.11-49.87-5.11-75.782 0-8.579 1.734-16.034 4.355-22.402 5.585-13.571 16.378-24.35 29.729-30.441z" fill="#ffc498"/><path d="m245.928 340.221c-13.349 6.096-24.143 16.873-29.724 30.445-2.624 6.37-4.355 13.821-4.355 22.403v-33.284c0-2.419-.788-4.772-2.246-6.703l-9.706-12.86h46.031z" fill="#fa6"/><path d="m175.737 340.221-9.706 12.86c-1.457 1.931-2.246 4.284-2.246 6.703v33.284c0-8.582-1.732-16.033-4.355-22.403-5.581-13.572-16.375-24.349-29.724-30.445z" fill="#fa6"/><circle cx="187.817" cy="456.729" fill="#8282ff" r="7.593"/></g><g><path d="m187.817 356.056c-3.194 0-5.783 2.589-5.783 5.783v65.108c0 3.194 2.589 5.783 5.783 5.783 3.194 0 5.783-2.589 5.783-5.783v-65.108c0-3.193-2.589-5.783-5.783-5.783z" fill="#fff"/></g></g><g><g><circle cx="292.933" cy="190.999" fill="#ff9c33" r="43.49"/><path d="m415.962 257.44c.038-.037.075-.075.111-.113 15.594-15.376 25.265-33.918 28.748-55.116 3.489-21.234.656-44.644-8.419-69.578-13.29-36.515-37.386-68.996-66.109-89.116-32.249-22.589-68.507-28.299-102.092-16.074-17.641 6.421-32.562 16.879-44.352 31.086-1.764 2.125-1.47 5.277.655 7.041s5.277 1.47 7.041-.655c10.642-12.823 24.125-22.269 40.077-28.075 39.001-14.196 72.065.25 92.935 14.868 27.083 18.97 49.844 49.712 62.45 84.345 16.902 46.438 10.694 85.908-17.954 114.154-.095.087-.186.178-.272.272-11.505 11.397-18.194 26.29-18.842 41.962-.341 8.241.96 16.47 3.867 24.457 8.97 24.646 23.234 54.419 30.939 69.973.785 1.584.854 3.361.197 5.003-.659 1.646-1.94 2.886-3.606 3.493l-33.943 12.354c-1.667.606-3.445.479-5.007-.357-1.559-.835-2.647-2.241-3.064-3.959-4.098-16.872-12.312-48.854-21.278-73.489-2.906-7.985-7.199-15.125-12.758-21.221-10.58-11.6-25.294-18.711-41.449-20.037-.089-.011-.179-.019-.269-.025-.939-.075-1.873-.177-2.807-.278 5.871-15.215 8.924-32.611 9.117-51.926 18.406-6.887 31.548-24.65 31.548-45.429 0-26.737-21.752-48.49-48.49-48.49-1.886 0-3.756.113-5.603.331-10.359-19.04-23.464-34.3-39.002-45.38-18.009-12.841-38.367-19.351-60.511-19.351-35.742 0-67.86 17.765-90.438 50.023-20.109 28.729-31.642 67.491-31.642 106.347 0 26.536 5.343 49.502 15.882 68.26 10.544 18.769 26.022 32.909 46.004 42.029 12.501 5.699 22.154 15.569 27.18 27.792 2.644 6.428 3.984 13.328 3.984 20.508 0 25.605-3.183 58.124-5.079 75.223-.511 4.554.948 9.125 4.003 12.542 3.06 3.422 7.45 5.385 12.045 5.385h36.12c4.586 0 8.971-1.959 12.03-5.376 3.058-3.415 4.523-7.987 4.019-12.548-1.897-17.013-5.079-49.41-5.079-75.226 0-7.197 1.337-14.096 3.975-20.508 5.024-12.218 14.677-22.088 27.181-27.793 19.98-9.114 35.459-23.253 46.007-42.024.887-1.579 1.724-3.199 2.538-4.838 2.022.279 4.065.521 6.121.687.058.007.116.013.175.017 13.694 1.083 26.141 7.057 35.047 16.822 4.675 5.126 8.292 11.15 10.75 17.902 8.801 24.182 16.908 55.759 20.957 72.429 1.082 4.454 4.019 8.25 8.06 10.415 2.369 1.269 4.994 1.912 7.628 1.912 1.865 0 3.734-.322 5.521-.973l33.943-12.354c4.312-1.569 7.763-4.912 9.469-9.171 1.704-4.256 1.515-9.052-.52-13.159-7.612-15.368-21.698-44.763-30.502-68.955-2.458-6.754-3.56-13.693-3.273-20.624.548-13.205 6.242-25.782 16.036-35.414zm-172.107 78.231c-14.822 6.762-26.286 18.513-32.279 33.087-3.136 7.624-4.726 15.804-4.726 24.312 0 26.299 3.221 59.114 5.14 76.33.194 1.759-.349 3.454-1.53 4.773-1.182 1.32-2.809 2.047-4.581 2.047h-36.12c-1.778 0-3.409-.728-4.591-2.05-1.177-1.316-1.717-3.007-1.519-4.768 1.919-17.311 5.14-50.245 5.14-76.332 0-8.491-1.593-16.67-4.735-24.311-5.996-14.582-17.46-26.333-32.278-33.088-36.659-16.731-56.036-51.722-56.036-101.191 0-36.853 10.874-73.525 29.833-100.613 14.611-20.875 40.74-45.757 82.246-45.757 36.927 0 68.459 20.216 89.365 57.071-13.321 4.625-24.369 14.951-29.553 28.522-.985 2.58.307 5.469 2.887 6.455 2.58.984 5.469-.307 6.455-2.887 5.658-14.811 20.109-24.762 35.959-24.762 21.223 0 38.49 17.267 38.49 38.49s-17.267 38.49-38.49 38.49c-16.228 0-30.797-10.266-36.253-25.546-.929-2.601-3.79-3.956-6.391-3.027s-3.956 3.79-3.027 6.391c6.875 19.25 25.228 32.183 45.671 32.183 2.347 0 4.652-.177 6.911-.501-1.148 47.093-20.447 80.469-55.988 96.682z" fill="#0000cb"/></g><g fill="#ff4d4d"><path d="m303.907 211.529h-21.947c-2.761 0-5-2.239-5-5 0-2.761 2.239-5 5-5h21.947c2.761 0 5 2.239 5 5 0 2.762-2.239 5-5 5z"/><path d="m295.907 194.999h-5.947c-2.761 0-5-2.239-5-5 0-2.761 2.239-5 5-5h5.947c2.761 0 5 2.239 5 5 0 2.762-2.239 5-5 5z"/></g></g></g><g fill="#ff2c2c"><g><circle cx="209.478" cy="282.324" r="5"/><circle cx="229.867" cy="282.324" r="5"/><circle cx="250.256" cy="282.324" r="5"/><circle cx="270.645" cy="282.324" r="5"/></g><g><circle cx="195.577" cy="298.753" r="5"/><circle cx="215.966" cy="298.753" r="5"/><circle cx="236.355" cy="298.753" r="5"/><circle cx="256.744" cy="298.753" r="5"/></g><g><circle cx="181.676" cy="315.183" r="5"/><circle cx="202.065" cy="315.183" r="5"/><circle cx="222.454" cy="315.183" r="5"/><circle cx="242.843" cy="315.183" r="5"/></g></g><g fill="#4d4dff"><g><circle cx="360.556" cy="209.267" r="5"/><circle cx="379.716" cy="202.294" r="5"/><circle cx="398.875" cy="195.32" r="5"/><circle cx="418.034" cy="188.347" r="5"/></g><g><circle cx="353.112" cy="229.461" r="5"/><circle cx="372.272" cy="222.487" r="5"/><circle cx="391.431" cy="215.514" r="5"/><circle cx="410.591" cy="208.54" r="5"/></g><g><circle cx="345.669" cy="249.654" r="5"/><circle cx="364.828" cy="242.68" r="5"/><circle cx="383.988" cy="235.707" r="5"/><circle cx="403.147" cy="228.733" r="5"/></g></g></g><g><path d="m55.075 352.43c-1.28 0-2.559-.488-3.536-1.464-1.953-1.953-1.953-5.119 0-7.071l10-10c1.953-1.952 5.118-1.952 7.071 0 1.953 1.953 1.953 5.119 0 7.071l-10 10c-.976.976-2.256 1.464-3.535 1.464z" fill="#ff9c33"/></g><g><path d="m98.811 391.968c-2.761 0-5-2.239-5-5 0-3.492-2.841-6.333-6.333-6.333-2.761 0-5-2.239-5-5s2.239-5 5-5c3.492 0 6.333-2.841 6.333-6.333 0-2.761 2.239-5 5-5s5 2.239 5 5c0 3.492 2.841 6.333 6.333 6.333 2.761 0 5 2.239 5 5s-2.239 5-5 5c-3.492 0-6.333 2.841-6.333 6.333 0 2.761-2.239 5-5 5z" fill="#6c6cff"/></g><g><path d="m110.144 76.248c-2.761 0-5-2.239-5-5 0-3.492-2.841-6.333-6.333-6.333-2.761 0-5-2.239-5-5s2.239-5 5-5c3.492 0 6.333-2.841 6.333-6.333 0-2.761 2.239-5 5-5s5 2.239 5 5c0 3.492 2.841 6.333 6.333 6.333 2.761 0 5 2.239 5 5s-2.239 5-5 5c-3.492 0-6.333 2.841-6.333 6.333 0 2.761-2.239 5-5 5z" fill="#ff9c33"/></g><g><path d="m454.014 312.197c-2.761 0-5-2.239-5-5 0-3.492-2.841-6.333-6.333-6.333-2.761 0-5-2.239-5-5s2.239-5 5-5c3.492 0 6.333-2.841 6.333-6.333 0-2.761 2.239-5 5-5s5 2.239 5 5c0 3.492 2.841 6.333 6.333 6.333 2.761 0 5 2.239 5 5s-2.239 5-5 5c-3.492 0-6.333 2.841-6.333 6.333 0 2.761-2.239 5-5 5z" fill="#ff9c33"/></g><g><path d="m465.363 253.374c-2.761 0-5-2.239-5-5 0-3.492-2.841-6.333-6.333-6.333-2.761 0-5-2.239-5-5s2.239-5 5-5c3.492 0 6.333-2.841 6.333-6.333 0-2.761 2.239-5 5-5s5 2.239 5 5c0 3.492 2.841 6.333 6.333 6.333 2.761 0 5 2.239 5 5s-2.239 5-5 5c-3.492 0-6.333 2.841-6.333 6.333 0 2.761-2.238 5-5 5z" fill="#ff6c6c"/></g></g></g></svg>