<?xml version="1.0" encoding="UTF-8"?>
<svg xmlns="http://www.w3.org/2000/svg" xmlns:xlink="http://www.w3.org/1999/xlink" version="1.1" id="Capa_1" x="0px" y="0px" viewBox="0 0 512 512" style="enable-background:new 0 0 512 512;" xml:space="preserve" width="512" height="512">
<g>
	<g>
		<linearGradient id="SVGID_1_" gradientUnits="userSpaceOnUse" x1="-85.4423" y1="546.8566" x2="245.868" y2="215.5463">
			<stop offset="0" style="stop-color:#FFFFFF;stop-opacity:0"/>
			<stop offset="0.2617" style="stop-color:#EDEDFF;stop-opacity:0.4161"/>
			<stop offset="0.629" style="stop-color:#D8D8FF"/>
		</linearGradient>
		<path style="fill:url(#SVGID_1_);" d="M471.476,124.825c-65.417-50.293-128.867-9.306-199.64-23.797&#10;&#9;&#9;&#9;C200.551,86.431,172.151,37.827,90.96,60.262C19.038,80.136-24.602,159.813,14.936,226.52&#10;&#9;&#9;&#9;c11.267,19.009,30.461,33.35,38.305,54.619c12.653,34.311-6.607,60.653-2.85,94.372c15.612,140.101,229.574,85.834,308.303,42.245&#10;&#9;&#9;&#9;C482.164,349.396,565.692,197.26,471.476,124.825z"/>
	</g>
	<g>
		<g>
			<g style="opacity:0.1;">
				<path style="fill:#0000CB;" d="M387.474,330.692c30.376,0,55-24.624,55-55s-24.624-55-55-55&#10;&#9;&#9;&#9;&#9;&#9;c-28.613,0-52.115,21.853-54.746,49.777h-19.404c1.813-1.841,2.309-4.757,0.918-7.166l-49.426-85.608&#10;&#9;&#9;&#9;&#9;&#9;c-1.837-3.181-6.085-3.961-8.932-1.639l-42.124,34.359v-56.71h51.89c5.523,0,10-4.477,10-10V77.692c0-5.523-4.477-10-10-10&#10;&#9;&#9;&#9;&#9;&#9;h-66.013c-5.523,0-10,4.477-10,10v62.955h-51.89c-5.523,0-10,4.477-10,10v66.013c0,5.523,4.477,10,10,10h56.097l-50.708,41.36&#10;&#9;&#9;&#9;&#9;&#9;c-0.929,0.758-1.769,1.586-2.556,2.45h-24.594c-3.003,0-5.438,2.435-5.438,5.438v123.625h-36.02c-2.761,0-5,2.239-5,5v74.805&#10;&#9;&#9;&#9;&#9;&#9;c0,2.761,2.239,5,5,5h55.235c2.761,0,5-2.239,5-5v-45.129h62.145v32.785l-9.331,13.96c-0.966,1.445,0.07,3.384,1.809,3.384&#10;&#9;&#9;&#9;&#9;&#9;h85.172c1.739,0,2.775-1.939,1.809-3.384l-9.331-13.96v-32.785h62.145v45.129c0,2.761,2.239,5,5,5h55.235c2.761,0,5-2.239,5-5&#10;&#9;&#9;&#9;&#9;&#9;v-74.805c0-2.761-2.239-5-5-5h-36.02v-80.688C362.765,326.255,374.598,330.692,387.474,330.692z"/>
				<path style="fill:#0000CB;" d="M310.571,208.35c0.926,1.604,2.606,2.501,4.335,2.501c0.848,0,1.708-0.217,2.495-0.671&#10;&#9;&#9;&#9;&#9;&#9;l10.731-6.196c2.392-1.381,3.211-4.438,1.83-6.83c-1.38-2.392-4.438-3.211-6.83-1.83l-10.731,6.196&#10;&#9;&#9;&#9;&#9;&#9;C310.01,202.901,309.19,205.959,310.571,208.35z"/>
				<path style="fill:#0000CB;" d="M299.289,195.348c0.787,0.455,1.647,0.671,2.495,0.671c1.729,0,3.409-0.896,4.335-2.501&#10;&#9;&#9;&#9;&#9;&#9;l6.196-10.731c1.381-2.392,0.562-5.449-1.83-6.83c-2.393-1.384-5.451-0.562-6.83,1.83l-6.196,10.731&#10;&#9;&#9;&#9;&#9;&#9;C296.078,190.91,296.897,193.968,299.289,195.348z"/>
				<path style="fill:#0000CB;" d="M321.189,219.621c-2.762,0-5,2.238-5,5s2.238,5,5,5h12.393c2.762,0,5-2.238,5-5s-2.238-5-5-5&#10;&#9;&#9;&#9;&#9;&#9;H321.189z"/>
				<path style="fill:#0000CB;" d="M341.632,176.108h66.013c5.523,0,10-4.477,10-10v-66.013c0-5.523-4.477-10-10-10h-66.013&#10;&#9;&#9;&#9;&#9;&#9;c-5.523,0-10,4.477-10,10v66.013C331.632,171.631,336.109,176.108,341.632,176.108z"/>
			</g>
			<g>
				<g>
					<g>
						<g>
							<circle style="fill:#FFAA66;" cx="387.474" cy="251.692" r="55"/>
							<circle style="fill:#FF9C33;" cx="387.474" cy="251.692" r="38.5"/>
						</g>
						
							<circle style="fill:none;stroke:#0000CB;stroke-width:10;stroke-linecap:round;stroke-linejoin:round;stroke-miterlimit:10;" cx="387.474" cy="251.692" r="55"/>
					</g>
					<path style="fill:#B2B2FF;" d="M387.49,251.711c0,0,0-0.001,0-0.001c-0.011-0.013-0.022-0.025-0.033-0.038&#10;&#9;&#9;&#9;&#9;&#9;&#9;C387.468,251.685,387.479,251.699,387.49,251.711z"/>
					<g>
						<g>
							
								<circle style="fill:none;stroke:#FFFFFF;stroke-width:10;stroke-linecap:round;stroke-linejoin:round;stroke-miterlimit:10;" cx="387.474" cy="245.885" r="11.613"/>
						</g>
						<g>
							
								<path style="fill:none;stroke:#FFFFFF;stroke-width:10;stroke-linecap:round;stroke-linejoin:round;stroke-miterlimit:10;" d="&#10;&#9;&#9;&#9;&#9;&#9;&#9;&#9;&#9;M399.087,269.112c0-6.414-5.199-11.613-11.613-11.613s-11.613,5.199-11.613,11.613"/>
						</g>
					</g>
				</g>
				<g>
					<g>
						<g>
							<g>
								<g>
									<rect x="196.906" y="410.209" style="fill:#FFB2B2;" width="70.128" height="32.785"/>
									<rect x="196.906" y="410.209" style="fill:#FF9393;" width="70.128" height="16.392"/>
									
										<rect x="196.906" y="410.209" style="fill:none;stroke:#0000CB;stroke-width:10;stroke-linecap:round;stroke-linejoin:round;stroke-miterlimit:10;" width="70.128" height="32.785"/>
									<path style="fill:#FF6C6C;" d="M353.39,251.9v129.08l-121.42,5l-121.42-5V251.9c0-3,2.43-5.44,5.44-5.44h231.97&#10;&#9;&#9;&#9;&#9;&#9;&#9;&#9;&#9;&#9;&#9;C350.96,246.46,353.39,248.9,353.39,251.9z"/>
									<path style="fill:#FF4D4D;" d="M311.19,271.854l-102.82,39.06l15.94,27.6c1.64,2.85,0.67,6.5-2.19,8.15l-11.69,6.75&#10;&#9;&#9;&#9;&#9;&#9;&#9;&#9;&#9;&#9;&#9;c-2.86,1.65-6.5,0.67-8.15-2.18l-18-31.17l-9.1,3.46c-10.94,4.15-23.27-0.24-29.12-10.38l-8.51-14.72&#10;&#9;&#9;&#9;&#9;&#9;&#9;&#9;&#9;&#9;&#9;c-5.84-10.13-3.48-23.01,5.58-30.4l26.43-21.56h134.96l9.72,16.84C316.08,266.484,314.63,270.555,311.19,271.854z"/>
									<g>
										
											<line style="fill:none;stroke:#FFFFFF;stroke-width:10;stroke-linecap:round;stroke-linejoin:round;stroke-miterlimit:10;" x1="325.744" y1="337.298" x2="310.764" y2="337.298"/>
										
											<line style="fill:none;stroke:#FFFFFF;stroke-width:10;stroke-linecap:round;stroke-linejoin:round;stroke-miterlimit:10;" x1="325.744" y1="355.11" x2="295.503" y2="355.11"/>
									</g>
									<path style="fill:#FFD8D8;" d="M347.955,410.209h-231.97c-3.003,0-5.438-2.435-5.438-5.438v-23.795h242.847v23.795&#10;&#9;&#9;&#9;&#9;&#9;&#9;&#9;&#9;&#9;&#9;C353.393,407.774,350.959,410.209,347.955,410.209z"/>
									
										<path style="fill:none;stroke:#0000CB;stroke-width:10;stroke-linecap:round;stroke-linejoin:round;stroke-miterlimit:10;" d="&#10;&#9;&#9;&#9;&#9;&#9;&#9;&#9;&#9;&#9;&#9;M165.557,410.208h182.398c3.003,0,5.438-2.435,5.438-5.438V251.908c0-3.003-2.435-5.438-5.438-5.438h-231.97&#10;&#9;&#9;&#9;&#9;&#9;&#9;&#9;&#9;&#9;&#9;c-3.003,0-5.438,2.435-5.438,5.438v121.625"/>
									<path style="fill:#FFEDED;" d="M274.556,460.338h-85.172c-1.739,0-2.775-1.939-1.809-3.384l9.331-13.96h70.128l9.331,13.96&#10;&#9;&#9;&#9;&#9;&#9;&#9;&#9;&#9;&#9;&#9;C277.331,458.399,276.295,460.338,274.556,460.338z"/>
									
										<path style="fill:none;stroke:#0000CB;stroke-width:10;stroke-linecap:round;stroke-linejoin:round;stroke-miterlimit:10;" d="&#10;&#9;&#9;&#9;&#9;&#9;&#9;&#9;&#9;&#9;&#9;M274.556,460.338h-85.172c-1.739,0-2.775-1.939-1.809-3.384l9.331-13.96h70.128l9.331,13.96&#10;&#9;&#9;&#9;&#9;&#9;&#9;&#9;&#9;&#9;&#9;C277.331,458.399,276.295,460.338,274.556,460.338z"/>
								</g>
							</g>
						</g>
					</g>
					<g>
						<g>
							<g>
								<path style="fill:#D8D8FF;" d="M129.761,460.338H74.526c-2.761,0-5-2.239-5-5v-74.805c0-2.761,2.239-5,5-5h55.235&#10;&#9;&#9;&#9;&#9;&#9;&#9;&#9;&#9;&#9;c2.761,0,5,2.239,5,5v74.805C134.761,458.099,132.523,460.338,129.761,460.338z"/>
								
									<path style="fill:none;stroke:#0000CB;stroke-width:10;stroke-linecap:round;stroke-linejoin:round;stroke-miterlimit:10;" d="&#10;&#9;&#9;&#9;&#9;&#9;&#9;&#9;&#9;&#9;M129.761,460.338H74.526c-2.761,0-5-2.239-5-5v-74.805c0-2.761,2.239-5,5-5h55.235c2.761,0,5,2.239,5,5v74.805&#10;&#9;&#9;&#9;&#9;&#9;&#9;&#9;&#9;&#9;C134.761,458.099,132.523,460.338,129.761,460.338z"/>
								<g>
									<g>
										
											<line style="fill:none;stroke:#FFAA66;stroke-width:10;stroke-linecap:round;stroke-linejoin:round;stroke-miterlimit:10;" x1="94.251" y1="398.089" x2="94.251" y2="398.205"/>
										
											<line style="fill:none;stroke:#FFAA66;stroke-width:10;stroke-linecap:round;stroke-linejoin:round;stroke-miterlimit:10;" x1="110.036" y1="398.089" x2="110.036" y2="398.205"/>
									</g>
									<g>
										
											<line style="fill:none;stroke:#8282FF;stroke-width:10;stroke-linecap:round;stroke-linejoin:round;stroke-miterlimit:10;" x1="87.506" y1="420.908" x2="116.781" y2="420.908"/>
										
											<line style="fill:none;stroke:#8282FF;stroke-width:10;stroke-linecap:round;stroke-linejoin:round;stroke-miterlimit:10;" x1="87.506" y1="437.781" x2="116.781" y2="437.781"/>
									</g>
								</g>
							</g>
						</g>
						<g>
							<g>
								<path style="fill:#D8D8FF;" d="M389.414,460.338h-55.235c-2.761,0-5-2.239-5-5v-74.805c0-2.761,2.239-5,5-5h55.235&#10;&#9;&#9;&#9;&#9;&#9;&#9;&#9;&#9;&#9;c2.761,0,5,2.239,5,5v74.805C394.414,458.099,392.175,460.338,389.414,460.338z"/>
								
									<path style="fill:none;stroke:#0000CB;stroke-width:10;stroke-linecap:round;stroke-linejoin:round;stroke-miterlimit:10;" d="&#10;&#9;&#9;&#9;&#9;&#9;&#9;&#9;&#9;&#9;M389.414,460.338h-55.235c-2.761,0-5-2.239-5-5v-74.805c0-2.761,2.239-5,5-5h55.235c2.761,0,5,2.239,5,5v74.805&#10;&#9;&#9;&#9;&#9;&#9;&#9;&#9;&#9;&#9;C394.414,458.099,392.175,460.338,389.414,460.338z"/>
								<g>
									<g>
										
											<line style="fill:none;stroke:#FFAA66;stroke-width:10;stroke-linecap:round;stroke-linejoin:round;stroke-miterlimit:10;" x1="353.904" y1="398.089" x2="353.904" y2="398.205"/>
										
											<line style="fill:none;stroke:#FFAA66;stroke-width:10;stroke-linecap:round;stroke-linejoin:round;stroke-miterlimit:10;" x1="369.689" y1="398.089" x2="369.689" y2="398.205"/>
									</g>
									<g>
										
											<line style="fill:none;stroke:#8282FF;stroke-width:10;stroke-linecap:round;stroke-linejoin:round;stroke-miterlimit:10;" x1="347.159" y1="420.908" x2="376.434" y2="420.908"/>
										
											<line style="fill:none;stroke:#8282FF;stroke-width:10;stroke-linecap:round;stroke-linejoin:round;stroke-miterlimit:10;" x1="347.159" y1="437.781" x2="376.434" y2="437.781"/>
									</g>
								</g>
							</g>
						</g>
					</g>
				</g>
				<g>
					<g>
						<g>
							<path style="fill:#FF6C6C;" d="M265.649,129.705h-66.013c-5.523,0-10-4.477-10-10V53.691c0-5.523,4.477-10,10-10h66.013&#10;&#9;&#9;&#9;&#9;&#9;&#9;&#9;&#9;c5.523,0,10,4.477,10,10v66.013C275.649,125.228,271.172,129.705,265.649,129.705z"/>
							
								<path style="fill:none;stroke:#0000CB;stroke-width:10;stroke-linecap:round;stroke-linejoin:round;stroke-miterlimit:10;" d="&#10;&#9;&#9;&#9;&#9;&#9;&#9;&#9;&#9;M199.636,129.705h66.013c5.523,0,10-4.477,10-10V53.692c0-5.523-4.477-10-10-10h-66.013c-5.523,0-10,4.477-10,10v32.003"/>
						</g>
					</g>
					<path style="fill:#FFFFFF;" d="M214.045,100.433v-27.47c0-3.615,3.804-5.965,7.037-4.349l27.47,13.735&#10;&#9;&#9;&#9;&#9;&#9;&#9;c3.584,1.792,3.584,6.906,0,8.698l-27.47,13.735C217.849,106.398,214.045,104.048,214.045,100.433z"/>
				</g>
				<g>
					<g>
						<g>
							<path style="fill:#9393FF;" d="M222.124,322.662l-11.699,6.754c-2.852,1.646-6.498,0.669-8.144-2.182l-21.507-37.252&#10;&#9;&#9;&#9;&#9;&#9;&#9;&#9;&#9;l22.025-12.716l21.507,37.252C225.953,317.369,224.975,321.016,222.124,322.662z"/>
							
								<path style="fill:none;stroke:#0000CB;stroke-width:10;stroke-linecap:round;stroke-linejoin:round;stroke-miterlimit:10;" d="&#10;&#9;&#9;&#9;&#9;&#9;&#9;&#9;&#9;M222.124,322.662l-11.699,6.754c-2.852,1.646-6.498,0.669-8.144-2.182l-21.507-37.252l22.025-12.716l21.507,37.252&#10;&#9;&#9;&#9;&#9;&#9;&#9;&#9;&#9;C225.953,317.369,224.975,321.016,222.124,322.662z"/>
						</g>
						<path style="fill:#D8D8FF;" d="M311.195,247.858L175.177,299.52c-10.937,4.154-23.272-0.239-29.121-10.37l-8.502-14.725&#10;&#9;&#9;&#9;&#9;&#9;&#9;&#9;c-5.849-10.132-3.486-23.01,5.58-30.405l112.749-91.963c2.846-2.322,7.095-1.542,8.932,1.639l49.426,85.608&#10;&#9;&#9;&#9;&#9;&#9;&#9;&#9;C316.078,242.484,314.628,246.554,311.195,247.858z"/>
						<path style="fill:#B2B2FF;" d="M213.759,186.415l-49.341,40.245h39.341c5.523,0,10-4.477,10-10V186.415z"/>
						<path style="fill:#B2B2FF;" d="M311.19,247.861l-13.33,5.06l-53.03-91.85l11.05-9.01c2.85-2.33,7.1-1.55,8.93,1.63&#10;&#9;&#9;&#9;&#9;&#9;&#9;&#9;l49.43,85.61C316.08,242.481,314.63,246.551,311.19,247.861z"/>
						<path style="fill:#FFAA66;" d="M170.648,221.579l-27.513,22.441c-9.066,7.395-11.429,20.273-5.58,30.405l8.501,14.725&#10;&#9;&#9;&#9;&#9;&#9;&#9;&#9;c5.85,10.132,18.184,14.524,29.121,10.37l33.191-12.607L170.648,221.579z"/>
						
							<path style="fill:none;stroke:#0000CB;stroke-width:10;stroke-linecap:round;stroke-linejoin:round;stroke-miterlimit:10;" d="&#10;&#9;&#9;&#9;&#9;&#9;&#9;&#9;M311.195,247.858L175.177,299.52c-10.937,4.154-23.272-0.239-29.121-10.37l-8.502-14.725&#10;&#9;&#9;&#9;&#9;&#9;&#9;&#9;c-5.849-10.132-3.486-23.01,5.58-30.405l112.749-91.963c2.846-2.322,7.095-1.542,8.932,1.639l49.426,85.608&#10;&#9;&#9;&#9;&#9;&#9;&#9;&#9;C316.078,242.484,314.628,246.554,311.195,247.858z"/>
						<g>
							
								<line style="fill:none;stroke:#8282FF;stroke-width:10;stroke-linecap:round;stroke-linejoin:round;stroke-miterlimit:10;" x1="169.325" y1="255.013" x2="184.794" y2="246.082"/>
							
								<line style="fill:none;stroke:#8282FF;stroke-width:10;stroke-linecap:round;stroke-linejoin:round;stroke-miterlimit:10;" x1="178.753" y1="271.341" x2="194.222" y2="262.41"/>
						</g>
					</g>
					<g>
						
							<line style="fill:none;stroke:#0000CB;stroke-width:10;stroke-linecap:round;stroke-linejoin:round;stroke-miterlimit:10;" x1="325.633" y1="175.654" x2="314.901" y2="181.85"/>
						<g>
							
								<line style="fill:none;stroke:#0000CB;stroke-width:10;stroke-linecap:round;stroke-linejoin:round;stroke-miterlimit:10;" x1="307.986" y1="156.287" x2="301.789" y2="167.019"/>
							
								<line style="fill:none;stroke:#0000CB;stroke-width:10;stroke-linecap:round;stroke-linejoin:round;stroke-miterlimit:10;" x1="333.582" y1="200.621" x2="321.19" y2="200.621"/>
						</g>
					</g>
				</g>
				<g>
					<g>
						<path style="fill:#FF9C33;" d="M203.759,202.659h-66.013c-5.523,0-10-4.477-10-10v-66.013c0-5.523,4.477-10,10-10h66.013&#10;&#9;&#9;&#9;&#9;&#9;&#9;&#9;c5.523,0,10,4.477,10,10v66.013C213.759,198.182,209.282,202.659,203.759,202.659z"/>
						<path style="fill:#9393FF;" d="M213.759,159.653v-33.007c0-5.523-4.477-10-10-10h-66.013c-5.523,0-10,4.477-10,10v33.007&#10;&#9;&#9;&#9;&#9;&#9;&#9;&#9;H213.759z"/>
						
							<path style="fill:none;stroke:#0000CB;stroke-width:10;stroke-linecap:round;stroke-linejoin:round;stroke-miterlimit:10;" d="&#10;&#9;&#9;&#9;&#9;&#9;&#9;&#9;M203.759,202.659h-66.013c-5.523,0-10-4.477-10-10v-66.013c0-5.523,4.477-10,10-10h66.013c5.523,0,10,4.477,10,10v66.013&#10;&#9;&#9;&#9;&#9;&#9;&#9;&#9;C213.759,198.182,209.282,202.659,203.759,202.659z"/>
					</g>
					<circle style="fill:#FFFFFF;" cx="170.753" cy="159.653" r="23.195"/>
					<circle style="fill:#9393FF;" cx="170.753" cy="159.653" r="12.573"/>
					
						<line style="fill:none;stroke:#FFFFFF;stroke-width:10;stroke-linecap:round;stroke-linejoin:round;stroke-miterlimit:10;" x1="197.008" y1="184.358" x2="197.008" y2="184.473"/>
				</g>
				<g>
					<g>
						<g>
							<g>
								<path style="fill:#9393FF;" d="M407.645,152.108h-66.013c-5.523,0-10-4.477-10-10V76.095c0-5.523,4.477-10,10-10h66.013&#10;&#9;&#9;&#9;&#9;&#9;&#9;&#9;&#9;&#9;c5.523,0,10,4.477,10,10v66.013C417.645,147.631,413.168,152.108,407.645,152.108z"/>
								
									<path style="fill:none;stroke:#0000CB;stroke-width:10;stroke-linecap:round;stroke-linejoin:round;stroke-miterlimit:10;" d="&#10;&#9;&#9;&#9;&#9;&#9;&#9;&#9;&#9;&#9;M407.645,152.108h-66.013c-5.523,0-10-4.477-10-10V76.095c0-5.523,4.477-10,10-10h66.013c5.523,0,10,4.477,10,10v66.013&#10;&#9;&#9;&#9;&#9;&#9;&#9;&#9;&#9;&#9;C417.645,147.631,413.168,152.108,407.645,152.108z"/>
							</g>
						</g>
					</g>
					
						<line style="fill:none;stroke:#FFFFFF;stroke-width:10;stroke-linecap:round;stroke-linejoin:round;stroke-miterlimit:10;" x1="354.666" y1="90.193" x2="394.612" y2="90.193"/>
					
						<line style="fill:none;stroke:#FFFFFF;stroke-width:10;stroke-linecap:round;stroke-linejoin:round;stroke-miterlimit:10;" x1="354.666" y1="109.101" x2="394.612" y2="109.101"/>
					
						<line style="fill:none;stroke:#FFFFFF;stroke-width:10;stroke-linecap:round;stroke-linejoin:round;stroke-miterlimit:10;" x1="354.666" y1="128.01" x2="394.612" y2="128.01"/>
				</g>
			</g>
		</g>
		
			<circle style="fill:none;stroke:#FF6C6C;stroke-width:10;stroke-linecap:round;stroke-linejoin:round;stroke-miterlimit:10;" cx="85.494" cy="165.227" r="10.5"/>
		
			<circle style="fill:none;stroke:#6C6CFF;stroke-width:10;stroke-linecap:round;stroke-linejoin:round;stroke-miterlimit:10;" cx="457.474" cy="168.215" r="10.5"/>
		
			<circle style="fill:none;stroke:#FF9C33;stroke-width:10;stroke-linecap:round;stroke-linejoin:round;stroke-miterlimit:10;" cx="310.764" cy="43.163" r="10.5"/>
		
			<circle style="fill:none;stroke:#FF6C6C;stroke-width:10;stroke-linecap:round;stroke-linejoin:round;stroke-miterlimit:10;" cx="436.474" cy="416.499" r="10.5"/>
		
			<line style="fill:none;stroke:#6C6CFF;stroke-width:10;stroke-linecap:round;stroke-linejoin:round;stroke-miterlimit:10;" x1="85.494" y1="214.621" x2="75.494" y2="224.621"/>
	</g>
</g>















</svg>
