<?xml version="1.0" encoding="UTF-8"?>
<svg xmlns="http://www.w3.org/2000/svg" xmlns:xlink="http://www.w3.org/1999/xlink" version="1.1" id="Capa_1" x="0px" y="0px" viewBox="0 0 512 512" style="enable-background:new 0 0 512 512;" xml:space="preserve" width="512" height="512">
<g>
	<g>
		<linearGradient id="SVGID_1_" gradientUnits="userSpaceOnUse" x1="97.3207" y1="457.8962" x2="457.033" y2="98.1839">
			<stop offset="0" style="stop-color:#FFFFFF;stop-opacity:0"/>
			<stop offset="1" style="stop-color:#B5C3FF"/>
		</linearGradient>
		<path style="fill:url(#SVGID_1_);" d="M508.085,355.567c-11.92-72.544-60.715-138.969-55.953-214.203&#10;&#9;&#9;&#9;C459.839,19.602,308.591,37.369,247.426,12.41C127.025-36.723,0.54,106.495,0.013,220.224&#10;&#9;&#9;&#9;c-0.468,100.981,11.037,192.351,105.275,222.86c120.304,38.948,83.622-37.809,265.124,47.906&#10;&#9;&#9;&#9;C509.462,556.655,520.753,432.661,508.085,355.567z"/>
	</g>
	<g>
		<g>
			<g style="opacity:0.1;">
				<path style="fill:#2626BC;" d="M339.094,164.676c2.56,19.623,19.329,34.779,39.65,34.779c22.091,0,40-17.909,40-40&#10;&#9;&#9;&#9;&#9;&#9;c0-22.092-17.909-40-40-40c-7.424,0-14.372,2.03-20.33,5.554c0.556-3.667,0.846-7.421,0.846-11.243&#10;&#9;&#9;&#9;&#9;&#9;c0-41.098-33.316-74.414-74.414-74.414s-74.414,33.316-74.414,74.414c0,2.808,0.169,5.574,0.472,8.301H103.257&#10;&#9;&#9;&#9;&#9;&#9;c-5.523,0-10,4.477-10,10v134.94c0,5.523,4.477,10,10,10h118.617l7.372,22.406l1.879-0.618&#10;&#9;&#9;&#9;&#9;&#9;c-10.959,17.427,6.307,40.884,6.307,40.884l7.93,23.991c0.755,2.284,2.255,4.163,4.173,5.419h0c0,0-0.306,14.469,10.782,21.424&#10;&#9;&#9;&#9;&#9;&#9;v15.755h-3.591c-9.693,0-17.946,7.931-17.784,17.622c0.158,9.419,7.869,17.032,17.324,17.032h4.05v4.854h-3.591&#10;&#9;&#9;&#9;&#9;&#9;c-9.692,0-17.945,7.93-17.784,17.621c0.157,9.419,7.868,17.033,17.324,17.033h4.05v12.248c0,2.761,2.239,5,5,5h13.752&#10;&#9;&#9;&#9;&#9;&#9;c2.761,0,5-2.239,5-5v-12.248h22.144v12.248c0,2.761,2.239,5,5,5h48.74c2.761,0,5-2.239,5-5V411.1&#10;&#9;&#9;&#9;&#9;&#9;c4.441-0.806,7.946-4.442,8.455-9.072l10.792-98.137h0c0-5.69-0.861-10.509-2.805-14.688l5.155-23.851&#10;&#9;&#9;&#9;&#9;&#9;c1.578-7.303-3.244-13.279-10.716-13.279h0c-4.545-0.982-9.045,0.495-12.128,3.531l0.34-4.009&#10;&#9;&#9;&#9;&#9;&#9;c0.611-7.214-4.484-13.855-11.676-14.681c-4.692-0.539-9.057,1.426-11.815,4.802c-0.424-6.441-5.485-11.785-12.113-12.346&#10;&#9;&#9;&#9;&#9;&#9;h-0.107c-7.271,0-13.722,5.927-14.335,13.172v-49.829c1.637-2.497,2.596-5.478,2.596-8.686c0-0.974-0.098-1.924-0.267-2.85&#10;&#9;&#9;&#9;&#9;&#9;C324.939,177.142,332.662,171.527,339.094,164.676z M260.317,470.431h-4.05c-4.04,0-7.327-3.286-7.327-7.326&#10;&#9;&#9;&#9;&#9;&#9;s3.287-7.327,7.327-7.327h4.05V470.431z M260.317,430.924h-4.05c-4.04,0-7.327-3.287-7.327-7.327s3.287-7.327,7.327-7.327h4.05&#10;&#9;&#9;&#9;&#9;&#9;V430.924z M306.213,470.431h-22.144v-29.507h22.144V470.431z M306.213,430.924h-22.144V392.73c3.501-1.198,6.133-3.049,8.1-5.21&#10;&#9;&#9;&#9;&#9;&#9;l7.1,17.312c1.252,3.051,3.853,5.267,6.944,6.086V430.924z M287.441,192.711v68.445c-12.922,3.956-16.474,13.678-17.359,20.116&#10;&#9;&#9;&#9;&#9;&#9;c-3.746,0.411-7.168,0.951-10.321,1.594l-17.382-30.63c0.509-2.81,0.252-5.598-0.653-8.133l7.863-32.466&#10;&#9;&#9;&#9;&#9;&#9;c1.97-8.133-2.631-14.9-10.406-16.051v-23.085c12.608,9.816,28.446,15.679,45.663,15.679c0.188,0,0.372-0.013,0.56-0.015&#10;&#9;&#9;&#9;&#9;&#9;C285.848,189.799,286.536,191.331,287.441,192.711z"/>
				<path style="fill:#2626BC;" d="M232.136,384.587c-2.761,0-5,2.238-5,5v0.129c0,2.762,2.239,5,5,5s5-2.238,5-5v-0.129&#10;&#9;&#9;&#9;&#9;&#9;C237.136,386.825,234.897,384.587,232.136,384.587z"/>
				<path style="fill:#2626BC;" d="M216.243,384.651h-23.652c-2.761,0-5,2.238-5,5s2.239,5,5,5h23.652c2.761,0,5-2.238,5-5&#10;&#9;&#9;&#9;&#9;&#9;S219.004,384.651,216.243,384.651z"/>
				<path style="fill:#2626BC;" d="M216.243,402.873h-23.652c-2.761,0-5,2.238-5,5s2.239,5,5,5h23.652c2.761,0,5-2.238,5-5&#10;&#9;&#9;&#9;&#9;&#9;S219.004,402.873,216.243,402.873z"/>
			</g>
			<g>
				<g>
					<g>
						<g>
							<path style="fill:#B6C4FF;" d="M229.183,253.008H103.257c-5.523,0-10-4.477-10-10v-134.94c0-5.523,4.477-10,10-10h125.926&#10;&#9;&#9;&#9;&#9;&#9;&#9;&#9;&#9;c5.523,0,10,4.477,10,10v134.94C239.183,248.531,234.705,253.008,229.183,253.008z"/>
							<path style="fill:#9EAFFD;" d="M229.183,98.068h-17.077c-1.088,5.062-1.674,10.311-1.674,15.699&#10;&#9;&#9;&#9;&#9;&#9;&#9;&#9;&#9;c0,23.881,11.262,45.119,28.751,58.735v-64.433C239.183,102.545,234.706,98.068,229.183,98.068z"/>
							
								<path style="fill:none;stroke:#2626BC;stroke-width:10;stroke-linecap:round;stroke-linejoin:round;stroke-miterlimit:10;" d="&#10;&#9;&#9;&#9;&#9;&#9;&#9;&#9;&#9;M153.557,253.008h75.626c5.523,0,10-4.477,10-10v-134.94c0-5.523-4.477-10-10-10H103.257c-5.523,0-10,4.477-10,10v134.94&#10;&#9;&#9;&#9;&#9;&#9;&#9;&#9;&#9;c0,5.523,4.477,10,10,10h22.617"/>
						</g>
						<g>
							<g>
								<circle style="fill:#02FFB2;" cx="284.845" cy="89.767" r="74.414"/>
								
									<line style="fill:none;stroke:#00D78F;stroke-width:10;stroke-linecap:round;stroke-linejoin:round;stroke-miterlimit:10;" x1="253.863" y1="93.789" x2="300.15" y2="119.604"/>
								
									<line style="fill:none;stroke:#00D78F;stroke-width:10;stroke-linecap:round;stroke-linejoin:round;stroke-miterlimit:10;" x1="253.863" y1="93.789" x2="311.013" y2="59.929"/>
								<g>
									<circle style="fill:#00B474;" cx="253.863" cy="93.789" r="18.462"/>
									<circle style="fill:#00B474;" cx="311.013" cy="59.929" r="13.746"/>
									
										<path style="fill:none;stroke:#2626BC;stroke-width:10;stroke-linecap:round;stroke-linejoin:round;stroke-miterlimit:10;" d="&#10;&#9;&#9;&#9;&#9;&#9;&#9;&#9;&#9;&#9;&#9;M304.915,119.604"/>
								</g>
								
									<circle style="fill:none;stroke:#2626BC;stroke-width:10;stroke-linecap:round;stroke-linejoin:round;stroke-miterlimit:10;" cx="284.845" cy="89.767" r="74.414"/>
							</g>
						</g>
						<g>
							<g>
								<polygon style="fill:#8298FD;" points="262.873,264.35 229.245,275.414 215.492,233.614 240.72,225.313 &#9;&#9;&#9;&#9;&#9;&#9;&#9;&#9;"/>
								<path style="fill:#6582FD;" d="M215.492,233.614l7.573,23.018c11.163,1.335,21.976-3.454,28.603-12.025l-10.949-19.293&#10;&#9;&#9;&#9;&#9;&#9;&#9;&#9;&#9;&#9;L215.492,233.614z"/>
								
									<polygon style="fill:none;stroke:#2626BC;stroke-width:10;stroke-linecap:round;stroke-linejoin:round;stroke-miterlimit:10;" points="&#10;&#9;&#9;&#9;&#9;&#9;&#9;&#9;&#9;&#9;262.873,264.35 229.245,275.414 215.492,233.614 240.72,225.313 &#9;&#9;&#9;&#9;&#9;&#9;&#9;&#9;"/>
								<path style="fill:#8298FD;" d="M240.851,223.715l-25.812-6.251l9.317-38.471c1.341-5.537,6.917-8.939,12.454-7.598h0&#10;&#9;&#9;&#9;&#9;&#9;&#9;&#9;&#9;&#9;c8.718,2.111,14.074,10.891,11.963,19.609L240.851,223.715z"/>
								
									<path style="fill:none;stroke:#2626BC;stroke-width:10;stroke-linecap:round;stroke-linejoin:round;stroke-miterlimit:10;" d="&#10;&#9;&#9;&#9;&#9;&#9;&#9;&#9;&#9;&#9;M240.851,223.715l-25.812-6.251l9.317-38.471c1.341-5.537,6.917-8.939,12.454-7.598h0&#10;&#9;&#9;&#9;&#9;&#9;&#9;&#9;&#9;&#9;c8.718,2.111,14.074,10.891,11.963,19.609L240.851,223.715z"/>
								<circle style="fill:#FFA7CE;" cx="226.775" cy="225.419" r="15.875"/>
								<g>
									
										<circle style="fill:none;stroke:#2626BC;stroke-width:10;stroke-linecap:round;stroke-linejoin:round;stroke-miterlimit:10;" cx="226.775" cy="225.419" r="15.875"/>
								</g>
							</g>
							<g>
								<g>
									<path style="fill:#6582FD;" d="M360.05,238.246l-12.936,59.857l25.959,5.61l12.936-59.857&#10;&#9;&#9;&#9;&#9;&#9;&#9;&#9;&#9;&#9;&#9;c1.549-7.168-3.006-14.235-10.174-15.785l0,0C368.666,226.523,361.599,231.078,360.05,238.246z"/>
									
										<path style="fill:none;stroke:#2626BC;stroke-width:10;stroke-linecap:round;stroke-linejoin:round;stroke-miterlimit:10;" d="&#10;&#9;&#9;&#9;&#9;&#9;&#9;&#9;&#9;&#9;&#9;M360.05,238.246l-12.936,59.857l25.959,5.61l12.936-59.857c1.549-7.168-3.006-14.235-10.174-15.785l0,0&#10;&#9;&#9;&#9;&#9;&#9;&#9;&#9;&#9;&#9;&#9;C368.666,226.523,361.599,231.078,360.05,238.246z"/>
								</g>
								<g>
									<path style="fill:#8298FD;" d="M337.614,224.983l-5.171,61.02l26.463,2.242l5.171-61.02&#10;&#9;&#9;&#9;&#9;&#9;&#9;&#9;&#9;&#9;&#9;c0.619-7.308-4.803-13.734-12.111-14.353l0,0C344.659,212.253,338.233,217.675,337.614,224.983z"/>
									
										<path style="fill:none;stroke:#2626BC;stroke-width:10;stroke-linecap:round;stroke-linejoin:round;stroke-miterlimit:10;" d="&#10;&#9;&#9;&#9;&#9;&#9;&#9;&#9;&#9;&#9;&#9;M337.614,224.983l-5.171,61.02l26.463,2.242l5.171-61.02c0.619-7.308-4.803-13.734-12.111-14.353l0,0&#10;&#9;&#9;&#9;&#9;&#9;&#9;&#9;&#9;&#9;&#9;C344.659,212.253,338.233,217.675,337.614,224.983z"/>
								</g>
								<g>
									<g>
										<g>
											<g>
												<g>
													<g>
														<path style="fill:#6582FD;" d="M314.089,217.479l-5.171,61.02l26.463,2.242l5.171-61.02&#10;&#9;&#9;&#9;&#9;&#9;&#9;&#9;&#9;&#9;&#9;&#9;&#9;&#9;&#9;&#9;c0.619-7.308-4.803-13.734-12.11-14.353h0C321.135,204.749,314.709,210.171,314.089,217.479z"/>
														
															<path style="fill:none;stroke:#2626BC;stroke-width:10;stroke-linecap:round;stroke-linejoin:round;stroke-miterlimit:10;" d="&#10;&#9;&#9;&#9;&#9;&#9;&#9;&#9;&#9;&#9;&#9;&#9;&#9;&#9;&#9;&#9;M314.089,217.479l-5.171,61.02l26.463,2.242l5.171-61.02c0.619-7.308-4.803-13.734-12.11-14.353h0&#10;&#9;&#9;&#9;&#9;&#9;&#9;&#9;&#9;&#9;&#9;&#9;&#9;&#9;&#9;&#9;C321.135,204.749,314.709,210.171,314.089,217.479z"/>
													</g>
												</g>
												<g>
													<rect x="287.441" y="161.92" style="fill:#8298FD;" width="26.558" height="78.518"/>
													<path style="fill:#6582FD;" d="M287.441,188.514c4.037,1.889,8.535,2.951,13.279,2.951&#10;&#9;&#9;&#9;&#9;&#9;&#9;&#9;&#9;&#9;&#9;&#9;&#9;&#9;&#9;c4.744,0,9.242-1.062,13.28-2.952V161.92h-26.558V188.514z"/>
													
														<polyline style="fill:none;stroke:#2626BC;stroke-width:10;stroke-linecap:round;stroke-linejoin:round;stroke-miterlimit:10;" points="&#10;&#9;&#9;&#9;&#9;&#9;&#9;&#9;&#9;&#9;&#9;&#9;&#9;&#9;&#9;313.999,240.438 313.999,161.919 287.441,161.919 287.441,209.257 &#9;&#9;&#9;&#9;&#9;&#9;&#9;&#9;&#9;&#9;&#9;&#9;&#9;"/>
													<path style="fill:#8298FD;" d="M287.441,150.991H314v-45.479c0-5.697-4.619-10.316-10.316-10.316h0&#10;&#9;&#9;&#9;&#9;&#9;&#9;&#9;&#9;&#9;&#9;&#9;&#9;&#9;&#9;c-8.97,0-16.242,7.272-16.242,16.242V150.991z"/>
													
														<path style="fill:none;stroke:#2626BC;stroke-width:10;stroke-linecap:round;stroke-linejoin:round;stroke-miterlimit:10;" d="&#10;&#9;&#9;&#9;&#9;&#9;&#9;&#9;&#9;&#9;&#9;&#9;&#9;&#9;&#9;M287.441,150.991H314v-45.479c0-5.697-4.619-10.316-10.316-10.316h0c-8.97,0-16.242,7.272-16.242,16.242V150.991z"/>
													<circle style="fill:#FFA7CE;" cx="300.72" cy="160.026" r="15.875"/>
													<g>
														
															<circle style="fill:none;stroke:#2626BC;stroke-width:10;stroke-linecap:round;stroke-linejoin:round;stroke-miterlimit:10;" cx="300.72" cy="160.026" r="15.875"/>
													</g>
												</g>
											</g>
											<g>
												<g>
													<rect x="260.317" y="322.271" style="fill:#FF7EB7;" width="23.752" height="151.407"/>
													<g>
														<path style="fill:#FF5BA7;" d="M284.069,362.189v23.659c-2.625,0.892-5.749,1.422-9.453,1.422&#10;&#9;&#9;&#9;&#9;&#9;&#9;&#9;&#9;&#9;&#9;&#9;&#9;&#9;&#9;&#9;c-6.153,0-10.792-1.442-14.299-3.642v-21.438H284.069z"/>
													</g>
													<g>
														<rect x="260.317" y="416.283" style="fill:#FF5BA7;" width="23.752" height="10.377"/>
													</g>
													<g>
														<rect x="260.317" y="455.797" style="fill:#FF5BA7;" width="23.752" height="10.377"/>
													</g>
													
														<polyline style="fill:none;stroke:#2626BC;stroke-width:10;stroke-linecap:round;stroke-linejoin:round;stroke-miterlimit:10;" points="&#10;&#9;&#9;&#9;&#9;&#9;&#9;&#9;&#9;&#9;&#9;&#9;&#9;&#9;&#9;260.318,473.678 260.318,322.267 284.071,322.267 284.071,473.678 &#9;&#9;&#9;&#9;&#9;&#9;&#9;&#9;&#9;&#9;&#9;&#9;&#9;"/>
												</g>
												<polygon style="fill:#4369FC;" points="306.213,473.678 341.556,473.678 353.255,470.678 364.953,473.678 &#10;&#9;&#9;&#9;&#9;&#9;&#9;&#9;&#9;&#9;&#9;&#9;&#9;&#9;364.953,355.981 306.213,355.981 &#9;&#9;&#9;&#9;&#9;&#9;&#9;&#9;&#9;&#9;&#9;&#9;"/>
												<rect x="341.556" y="355.981" style="fill:#6582FD;" width="23.397" height="117.697"/>
												<path style="fill:#2D58DF;" d="M306.213,411.821c0.854,0.227,1.744,0.353,2.656,0.353h32.687l11.698-3l9.839,3&#10;&#9;&#9;&#9;&#9;&#9;&#9;&#9;&#9;&#9;&#9;&#9;&#9;&#9;c0.634,0,1.255-0.061,1.859-0.17v-56.023h-58.74V411.821z"/>
												<path style="fill:#4369FC;" d="M341.556,355.981v56.193h21.537c0.634,0,1.255-0.061,1.859-0.17v-56.023H341.556z"/>
												
													<polyline style="fill:none;stroke:#2626BC;stroke-width:10;stroke-linecap:round;stroke-linejoin:round;stroke-miterlimit:10;" points="&#10;&#9;&#9;&#9;&#9;&#9;&#9;&#9;&#9;&#9;&#9;&#9;&#9;&#9;364.953,473.678 364.953,355.981 306.213,355.981 306.213,473.678 &#9;&#9;&#9;&#9;&#9;&#9;&#9;&#9;&#9;&#9;&#9;&#9;"/>
												<g>
													<g>
														<g>
															<path style="fill:#2D58DF;" d="M237.432,315.68c0,0-37.384-50.758,32.707-58.415l-4.625,43.226L237.432,315.68z"/>
														</g>
													</g>
													<g>
														<g>
															
																<path style="fill:none;stroke:#2626BC;stroke-width:10;stroke-linecap:round;stroke-linejoin:round;stroke-miterlimit:10;" d="&#10;&#9;&#9;&#9;&#9;&#9;&#9;&#9;&#9;&#9;&#9;&#9;&#9;&#9;&#9;&#9;&#9;M237.432,315.68c0,0-37.384-50.758,32.707-58.415l-4.625,43.226L237.432,315.68z"/>
														</g>
													</g>
													<g>
														<g>
															<g>
																<path style="fill:#2D58DF;" d="M269.918,263.404c0,0-4.63-36.141,46.966-26.33&#10;&#9;&#9;&#9;&#9;&#9;&#9;&#9;&#9;&#9;&#9;&#9;&#9;&#9;&#9;&#9;&#9;&#9;c51.596,9.811,67.316,18.292,67.316,42.816h-78.341L269.918,263.404z"/>
															</g>
															<g>
																
																	<path style="fill:none;stroke:#2626BC;stroke-width:10;stroke-linecap:round;stroke-linejoin:round;stroke-miterlimit:10;" d="&#10;&#9;&#9;&#9;&#9;&#9;&#9;&#9;&#9;&#9;&#9;&#9;&#9;&#9;&#9;&#9;&#9;&#9;M269.918,263.404c0,0-4.63-36.141,46.966-26.33c51.596,9.811,67.316,18.292,67.316,42.816h-78.341L269.918,263.404z&#10;&#9;&#9;&#9;&#9;&#9;&#9;&#9;&#9;&#9;&#9;&#9;&#9;&#9;&#9;&#9;&#9;&#9;"/>
															</g>
														</g>
														<g>
															<g>
																<path style="fill:#2D58DF;" d="M249.535,345.09c0,0-0.553,25.078,25.078,25.078&#10;&#9;&#9;&#9;&#9;&#9;&#9;&#9;&#9;&#9;&#9;&#9;&#9;&#9;&#9;&#9;&#9;&#9;c25.631,0,23.299-25.078,23.299-25.078H249.535z"/>
															</g>
															<g>
																
																	<path style="fill:none;stroke:#2626BC;stroke-width:10;stroke-linecap:round;stroke-linejoin:round;stroke-miterlimit:10;" d="&#10;&#9;&#9;&#9;&#9;&#9;&#9;&#9;&#9;&#9;&#9;&#9;&#9;&#9;&#9;&#9;&#9;&#9;M249.535,345.09c0,0-0.553,25.078,25.078,25.078c25.631,0,23.299-25.078,23.299-25.078H249.535z"/>
															</g>
															<path style="fill:#9EAFFD;" d="M270.139,257.265l-32.707,58.415l7.93,23.991c1.405,4.25,5.376,7.12,9.852,7.12&#10;&#9;&#9;&#9;&#9;&#9;&#9;&#9;&#9;&#9;&#9;&#9;&#9;&#9;&#9;&#9;&#9;h23.134c4.21,0,8.003,2.544,9.6,6.439l11.321,27.601c1.598,3.895,5.39,6.439,9.6,6.439h54.224&#10;&#9;&#9;&#9;&#9;&#9;&#9;&#9;&#9;&#9;&#9;&#9;&#9;&#9;&#9;&#9;&#9;c5.292,0,9.736-3.982,10.314-9.242l10.792-98.137C384.201,279.89,340.11,257.265,270.139,257.265z"/>
															
																<path style="fill:none;stroke:#2626BC;stroke-width:10;stroke-linecap:round;stroke-linejoin:round;stroke-miterlimit:10;" d="&#10;&#9;&#9;&#9;&#9;&#9;&#9;&#9;&#9;&#9;&#9;&#9;&#9;&#9;&#9;&#9;&#9;M270.139,257.265l-32.707,58.415l7.93,23.991c1.405,4.25,5.376,7.12,9.852,7.12h23.134c4.21,0,8.003,2.544,9.6,6.439&#10;&#9;&#9;&#9;&#9;&#9;&#9;&#9;&#9;&#9;&#9;&#9;&#9;&#9;&#9;&#9;&#9;l11.321,27.601c1.598,3.895,5.39,6.439,9.6,6.439h54.224c5.292,0,9.736-3.982,10.314-9.242l10.792-98.137&#10;&#9;&#9;&#9;&#9;&#9;&#9;&#9;&#9;&#9;&#9;&#9;&#9;&#9;&#9;&#9;&#9;C384.201,279.89,340.11,257.265,270.139,257.265z"/>
														</g>
													</g>
												</g>
												
													<path style="fill:none;stroke:#2626BC;stroke-width:10;stroke-linecap:round;stroke-linejoin:round;stroke-miterlimit:10;" d="&#10;&#9;&#9;&#9;&#9;&#9;&#9;&#9;&#9;&#9;&#9;&#9;&#9;&#9;M260.318,387.27h-4.051c-6.808,0-12.327,5.519-12.327,12.327l0,0c0,6.808,5.519,12.327,12.327,12.327h64.479"/>
												
													<path style="fill:none;stroke:#2626BC;stroke-width:10;stroke-linecap:round;stroke-linejoin:round;stroke-miterlimit:10;" d="&#10;&#9;&#9;&#9;&#9;&#9;&#9;&#9;&#9;&#9;&#9;&#9;&#9;&#9;M260.318,426.777h-4.051c-6.808,0-12.327,5.519-12.327,12.327l0,0c0,6.808,5.519,12.327,12.327,12.327h64.479"/>
											</g>
										</g>
										<g>
											
												<line style="fill:none;stroke:#D1DDFF;stroke-width:10;stroke-linecap:round;stroke-linejoin:round;stroke-miterlimit:10;" x1="316.595" y1="365.368" x2="316.595" y2="365.502"/>
											
												<line style="fill:none;stroke:#D1DDFF;stroke-width:10;stroke-linecap:round;stroke-linejoin:round;stroke-miterlimit:10;" x1="282.343" y1="275.414" x2="282.343" y2="275.548"/>
											
												<line style="fill:none;stroke:#D1DDFF;stroke-width:10;stroke-linecap:round;stroke-linejoin:round;stroke-miterlimit:10;" x1="364.953" y1="292.92" x2="364.953" y2="293.054"/>
										</g>
									</g>
									<g>
										
											<line style="fill:none;stroke:#6582FD;stroke-width:10;stroke-linecap:round;stroke-linejoin:round;stroke-miterlimit:10;" x1="262.754" y1="322.198" x2="276.747" y2="322.198"/>
										
											<line style="fill:none;stroke:#6582FD;stroke-width:10;stroke-linecap:round;stroke-linejoin:round;stroke-miterlimit:10;" x1="266.926" y1="305.283" x2="280.919" y2="305.283"/>
									</g>
								</g>
							</g>
						</g>
						<g>
							<circle style="fill:#FF5BA7;" cx="378.743" cy="135.455" r="40"/>
							<g>
								<path style="fill:#FFFFFF;" d="M366.007,121.468v27.749c0,2.702,2.908,4.404,5.264,3.082l24.725-13.875&#10;&#9;&#9;&#9;&#9;&#9;&#9;&#9;&#9;&#9;c2.406-1.35,2.406-4.814,0-6.165l-24.725-13.875C368.915,117.064,366.007,118.767,366.007,121.468z"/>
							</g>
							
								<circle style="fill:none;stroke:#2626BC;stroke-width:10;stroke-linecap:round;stroke-linejoin:round;stroke-miterlimit:10;" cx="378.743" cy="135.455" r="40"/>
						</g>
					</g>
					<g>
						<path style="fill:#6582FD;" d="M147.62,227.769h-26.676c-2.209,0-4-1.791-4-4v-89.693c0-2.209,1.791-4,4-4h26.676&#10;&#9;&#9;&#9;&#9;&#9;&#9;&#9;c2.209,0,4,1.791,4,4v89.693C151.62,225.979,149.829,227.769,147.62,227.769z"/>
						<path style="fill:#6582FD;" d="M194.005,227.769H167.33c-2.209,0-4-1.791-4-4v-40.846c0-2.209,1.791-4,4-4h26.676&#10;&#9;&#9;&#9;&#9;&#9;&#9;&#9;c2.209,0,4,1.791,4,4v40.846C198.005,225.979,196.215,227.769,194.005,227.769z"/>
					</g>
					<g>
						
							<line style="fill:none;stroke:#FFFFFF;stroke-width:10;stroke-linecap:round;stroke-linejoin:round;stroke-miterlimit:10;" x1="180.583" y1="144.215" x2="168.931" y2="144.215"/>
						
							<line style="fill:none;stroke:#FFFFFF;stroke-width:10;stroke-linecap:round;stroke-linejoin:round;stroke-miterlimit:10;" x1="180.583" y1="162.437" x2="168.931" y2="162.437"/>
					</g>
				</g>
				<g>
					
						<line style="fill:none;stroke:#2626BC;stroke-width:10;stroke-linecap:round;stroke-linejoin:round;stroke-miterlimit:10;" x1="232.136" y1="365.587" x2="232.136" y2="365.716"/>
					
						<line style="fill:none;stroke:#2626BC;stroke-width:10;stroke-linecap:round;stroke-linejoin:round;stroke-miterlimit:10;" x1="216.243" y1="365.651" x2="192.591" y2="365.651"/>
					
						<line style="fill:none;stroke:#2626BC;stroke-width:10;stroke-linecap:round;stroke-linejoin:round;stroke-miterlimit:10;" x1="216.243" y1="383.873" x2="192.591" y2="383.873"/>
				</g>
			</g>
		</g>
		<path style="fill:none;stroke:#01EBA4;stroke-width:10;stroke-linecap:round;stroke-linejoin:round;stroke-miterlimit:10;" d="&#10;&#9;&#9;&#9;M144.468,313.138c0,5.799-4.701,10.5-10.5,10.5c5.799,0,10.5,4.701,10.5,10.5c0-5.799,4.701-10.5,10.5-10.5&#10;&#9;&#9;&#9;C149.169,323.638,144.468,318.937,144.468,313.138z"/>
		
			<rect x="402.35" y="419.133" transform="matrix(0.7071 0.7071 -0.7071 0.7071 421.6418 -164.8189)" style="fill:none;stroke:#6582FD;stroke-width:10;stroke-linecap:round;stroke-linejoin:round;stroke-miterlimit:10;" width="14.849" height="14.849"/>
		
			<rect x="85.832" y="288.597" transform="matrix(0.7071 0.7071 -0.7071 0.7071 236.6333 20.7605)" style="fill:none;stroke:#FF7EB7;stroke-width:10;stroke-linecap:round;stroke-linejoin:round;stroke-miterlimit:10;" width="14.849" height="14.849"/>
		
			<rect x="417.159" y="361.264" transform="matrix(0.7071 0.7071 -0.7071 0.7071 385.0602 -192.2397)" style="fill:none;stroke:#FF7EB7;stroke-width:10;stroke-linecap:round;stroke-linejoin:round;stroke-miterlimit:10;" width="14.849" height="14.849"/>
		
			<rect x="441.508" y="38.758" transform="matrix(0.7071 0.7071 -0.7071 0.7071 164.1454 -303.9168)" style="fill:none;stroke:#01EBA4;stroke-width:10;stroke-linecap:round;stroke-linejoin:round;stroke-miterlimit:10;" width="14.849" height="14.849"/>
	</g>
</g>















</svg>
