<?xml version="1.0" encoding="UTF-8" standalone="no"?>
<!-- Created with Inkscape (http://www.inkscape.org/) -->

<svg
   version="1.1"
   id="svg5338"
   xml:space="preserve"
   width="682.66669"
   height="682.66669"
   viewBox="0 0 682.66669 682.66669"
   xmlns="http://www.w3.org/2000/svg"
   xmlns:svg="http://www.w3.org/2000/svg"><defs
     id="defs5342"><linearGradient
       x1="0"
       y1="0"
       x2="1"
       y2="0"
       gradientUnits="userSpaceOnUse"
       gradientTransform="matrix(335.24353,335.24353,335.24353,-335.24353,121.91134,99.600609)"
       spreadMethod="pad"
       id="linearGradient5368"><stop
         style="stop-opacity:1;stop-color:#ffdbed"
         offset="0"
         id="stop5358" /><stop
         style="stop-opacity:1;stop-color:#ffdbed"
         offset="0.048501"
         id="stop5360" /><stop
         style="stop-opacity:1;stop-color:#d2deff"
         offset="0.97145136"
         id="stop5362" /><stop
         style="stop-opacity:1;stop-color:#d2deff"
         offset="0.999306"
         id="stop5364" /><stop
         style="stop-opacity:1;stop-color:#d2deff"
         offset="1"
         id="stop5366" /></linearGradient><clipPath
       clipPathUnits="userSpaceOnUse"
       id="clipPath5378"><path
         d="M 0,512 H 512 V 0 H 0 Z"
         id="path5376" /></clipPath><clipPath
       clipPathUnits="userSpaceOnUse"
       id="clipPath5386"><path
         d="M 72.007,416.416 H 433.47 V 48.08 H 72.007 Z"
         id="path5384" /></clipPath></defs><g
     id="g5344"
     transform="matrix(1.3333333,0,0,-1.3333333,0,682.66667)"><g
       id="g5346"><g
         id="g5348"><g
           id="g5354"><g
             id="g5356"><path
               d="M 254.704,470.229 C 193.466,444.231 133.338,418.234 97.071,468.11 v 0 C 39.63,533.047 -0.014,429.466 0,305.357 v 0 C 0.024,88.234 255.412,95.782 411.997,26.852 v 0 C 466.504,2.857 511.875,4.5 512,47.296 v 0 0.357 c -0.035,12.305 -3.781,27.979 -12.08,47.385 v 0 c -23.421,54.774 -46.584,75.804 -124.144,135.196 v 0 c -52.998,40.584 -29.401,92.718 -9.407,112.711 v 0 c 58.876,58.875 83.995,82.063 59.47,119.965 v 0 c -18.013,27.837 -41.155,37.754 -67.02,37.755 v 0 c -32.044,10e-4 -68.269,-15.218 -104.115,-30.436"
               style="fill:url(#linearGradient5368);stroke:none"
               id="path5370" /></g></g></g></g><g
       id="g5372"><g
         id="g5374"
         clip-path="url(#clipPath5378)"><g
           id="g5380"><g
             id="g5382" /><g
             id="g5402"><g
               clip-path="url(#clipPath5386)"
               opacity="0.100006"
               id="g5400"><g
                 transform="translate(292.495,268.57)"
                 id="g5390"><path
                   d="M 0,0 V 80.341 C 38.202,68.39 68.417,38.192 80.391,0 Z m -79.515,-151.227 c -35.261,13.274 -62.834,42.365 -74.02,78.585 h 74.02 z M 123.865,0 h -5.917 C 104.164,58.218 58.228,104.135 0,117.891 v 12.848 c 0,9.448 -7.659,17.107 -17.107,17.107 h -186.274 c -9.448,0 -17.107,-7.659 -17.107,-17.107 V -55.535 c 0,-9.448 7.659,-17.107 17.107,-17.107 h 12.322 c 13.126,-56.26 56.262,-101.114 111.544,-116.702 v -14.036 c 0,-9.45 7.66,-17.11 17.11,-17.11 h 186.27 c 9.45,0 17.11,7.66 17.11,17.11 v 186.27 c 0,9.45 -7.66,17.11 -17.11,17.11"
                   style="fill:#2626bc;fill-opacity:1;fill-rule:nonzero;stroke:none"
                   id="path5388" /></g><g
                 transform="translate(388.933,383.4521)"
                 id="g5394"><path
                   d="m 0,0 36.826,-23.754 c 3.328,-2.147 7.711,0.242 7.711,4.201 v 47.509 c 0,3.959 -4.383,6.348 -7.711,4.202 L 0,8.403 C -3.053,6.434 -3.053,1.969 0,0"
                   style="fill:#2626bc;fill-opacity:1;fill-rule:nonzero;stroke:none"
                   id="path5392" /></g><g
                 transform="translate(116.5435,81.0455)"
                 id="g5398"><path
                   d="m 0,0 -36.826,23.754 c -3.328,2.147 -7.711,-0.242 -7.711,-4.201 v -47.509 c 0,-3.959 4.383,-6.348 7.711,-4.202 L 0,-8.403 C 3.053,-6.434 3.053,-1.969 0,0"
                   style="fill:#2626bc;fill-opacity:1;fill-rule:nonzero;stroke:none"
                   id="path5396" /></g></g></g></g><g
           id="g5404"
           transform="translate(256,378.4643)"><path
             d="m 0,0 c -67.527,0 -122.464,-54.938 -122.464,-122.464 0,-67.527 54.937,-122.465 122.464,-122.465 67.527,0 122.464,54.938 122.464,122.465 C 122.464,-54.938 67.527,0 0,0 m 0,-281.167 c -87.509,0 -158.703,71.194 -158.703,158.703 0,87.508 71.194,158.702 158.703,158.702 87.509,0 158.703,-71.194 158.703,-158.702 0,-87.509 -71.194,-158.703 -158.703,-158.703"
             style="fill:#01eca5;fill-opacity:1;fill-rule:nonzero;stroke:none"
             id="path5406" /></g><g
           id="g5408"
           transform="translate(139.488,293.7106)"><path
             d="m 0,0 h -37.649 c -2.958,-12.092 -4.539,-24.719 -4.539,-37.711 0,-21.25 4.2,-41.54 11.81,-60.07 h 40.2 c -10.04,17.76 -15.77,38.26 -15.77,60.07 0,13.154 2.093,25.826 5.948,37.711"
             style="fill:#00d890;fill-opacity:1;fill-rule:nonzero;stroke:none"
             id="path5410" /></g><g
           id="g5412"
           transform="translate(293.8147,372.4913)"><path
             d="m 0,0 c 49.079,-15.97 84.65,-62.155 84.65,-116.491 0,-67.527 -54.938,-122.465 -122.465,-122.465 -45.197,0 -84.751,24.615 -105.97,61.14 m 105.97,220.027 c -87.509,0 -158.702,-71.193 -158.702,-158.702 0,-87.509 71.193,-158.703 158.702,-158.703 87.509,0 158.703,71.194 158.703,158.703 0,87.509 -71.194,158.702 -158.703,158.702 z"
             style="fill:none;stroke:#2626bc;stroke-width:10;stroke-linecap:round;stroke-linejoin:round;stroke-miterlimit:10;stroke-dasharray:none;stroke-opacity:1"
             id="path5414" /></g><g
           id="g5416"
           transform="translate(433.47,275.46)"><path
             d="m 0,0 v -186.27 c 0,-9.45 -7.66,-17.11 -17.11,-17.11 h -186.27 c -9.45,0 -17.11,7.66 -17.11,17.11 V 0 c 0,9.45 7.66,17.11 17.11,17.11 H -17.11 C -7.66,17.11 0,9.45 0,0"
             style="fill:#ff7eb8;fill-opacity:1;fill-rule:nonzero;stroke:none"
             id="path5418" /></g><g
           id="g5420"
           transform="translate(251.6798,261.8712)"><path
             d="m 0,0 c 0,-5.562 -4.509,-10.071 -10.071,-10.071 -5.562,0 -10.072,4.509 -10.072,10.071 0,5.562 4.51,10.071 10.072,10.071 C -4.509,10.071 0,5.562 0,0"
             style="fill:#ffa8cf;fill-opacity:1;fill-rule:nonzero;stroke:none"
             id="path5422" /></g><g
           id="g5424"
           transform="translate(414.9127,261.8712)"><path
             d="m 0,0 c 0,-5.562 -4.509,-10.071 -10.071,-10.071 -5.562,0 -10.071,4.509 -10.071,10.071 0,5.562 4.509,10.071 10.071,10.071 C -4.509,10.071 0,5.562 0,0"
             style="fill:#ffa8cf;fill-opacity:1;fill-rule:nonzero;stroke:none"
             id="path5426" /></g><g
           id="g5428"
           transform="translate(292.49,292.57)"><path
             d="m 0,0 v -79.53 c 0,-9.45 -7.65,-17.11 -17.1,-17.11 h -62.41 v 79.53 c 0,9.45 7.66,17.11 17.11,17.11 z"
             style="fill:#ff5ba8;fill-opacity:1;fill-rule:nonzero;stroke:none"
             id="path5430" /></g><g
           id="g5432"
           transform="translate(399.9122,186.1752)"><path
             d="m 0,0 c 0,-40.73 -33.019,-73.749 -73.749,-73.749 -40.731,0 -73.749,33.019 -73.749,73.749 0,40.73 33.018,73.749 73.749,73.749 C -33.019,73.749 0,40.73 0,0"
             style="fill:#ffa8cf;fill-opacity:1;fill-rule:nonzero;stroke:none"
             id="path5434" /></g><g
           id="g5436"
           transform="translate(292.49,251.8)"><path
             d="m 0,0 v -38.76 c 0,-9.45 -7.65,-17.11 -17.1,-17.11 H -39.44 C -36.22,-31.46 -21.05,-10.82 0,0"
             style="fill:#ff7eb8;fill-opacity:1;fill-rule:nonzero;stroke:none"
             id="path5438" /></g><g
           id="g5440"
           transform="translate(212.9816,275.4623)"><path
             d="m 0,0 v -186.274 c 0,-9.448 7.659,-17.107 17.107,-17.107 h 186.274 c 9.448,0 17.107,7.659 17.107,17.107 V 0 c 0,9.448 -7.659,17.107 -17.107,17.107 h -93.509"
             style="fill:none;stroke:#2626bc;stroke-width:10;stroke-linecap:round;stroke-linejoin:round;stroke-miterlimit:10;stroke-dasharray:none;stroke-opacity:1"
             id="path5442" /></g><g
           id="g5444"
           transform="translate(387.1181,129.2979)"><path
             d="m 0,0 c -18.806,8.593 -33.32,18.802 -44.524,29.28 7.75,9.789 13.373,19.285 17.413,27.621 6.947,14.332 10.235,27.095 11.793,35.803 h 10.286 c 6.687,0 12.107,5.421 12.107,12.108 0,6.687 -5.42,12.107 -12.107,12.107 h -47.49 v 7.851 c 0,6.687 -5.421,12.107 -12.107,12.107 -6.687,0 -12.108,-5.42 -12.108,-12.107 v -7.851 h -40.141 c -6.687,0 -12.107,-5.42 -12.107,-12.107 0,-6.687 5.42,-12.108 12.107,-12.108 h 76.861 c -1.547,-6.894 -4.347,-16.121 -9.408,-26.312 -3.281,-6.605 -7.133,-12.862 -11.497,-18.794 -5.664,7.636 -9.831,14.992 -12.877,21.524 -2.826,6.06 -10.031,8.681 -16.09,5.857 -6.06,-2.826 -8.682,-10.03 -5.856,-16.09 4.17,-8.942 10.085,-19.178 18.416,-29.691 C -89.626,17.722 -104.503,7.953 -121.91,0 c -6.081,-2.779 -8.759,-9.963 -5.98,-16.045 2.034,-4.451 6.426,-7.078 11.02,-7.078 1.682,0 3.393,0.353 5.024,1.098 21.382,9.77 37.993,21.47 50.889,33.508 12.924,-12.064 29.533,-23.748 50.893,-33.508 1.631,-0.745 3.341,-1.098 5.024,-1.098 4.594,0 8.986,2.628 11.02,7.078 C 8.759,-9.963 6.081,-2.779 0,0"
             style="fill:#ffffff;fill-opacity:1;fill-rule:nonzero;stroke:none"
             id="path5446" /></g><g
           id="g5448"
           transform="translate(275.3879,219.9283)"><path
             d="m 0,0 h -186.274 c -9.448,0 -17.107,7.659 -17.107,17.107 v 186.274 c 0,9.448 7.659,17.107 17.107,17.107 H 0 c 9.448,0 17.107,-7.659 17.107,-17.107 V 17.107 C 17.107,7.659 9.448,0 0,0"
             style="fill:#6583fe;fill-opacity:1;fill-rule:nonzero;stroke:none"
             id="path5450" /></g><g
           id="g5452"
           transform="translate(256,330.1723)"><path
             d="m 0,0 c 0,-40.73 -33.019,-73.749 -73.749,-73.749 -40.731,0 -73.749,33.019 -73.749,73.749 0,40.73 33.018,73.749 73.749,73.749 C -33.019,73.749 0,40.73 0,0"
             style="fill:#8399fe;fill-opacity:1;fill-rule:nonzero;stroke:none"
             id="path5454" /></g><g
           id="g5456"
           transform="translate(161.5231,314.1132)"><path
             d="M 0,0 20.728,51.223 41.456,0 Z M 86.911,-47.121 32.066,88.415 c -1.87,4.619 -6.355,7.643 -11.338,7.643 -4.983,0 -9.468,-3.024 -11.337,-7.643 L -45.456,-47.121 c -2.534,-6.261 0.488,-13.391 6.75,-15.925 6.257,-2.534 13.39,0.489 15.925,6.75 l 12.883,31.835 h 61.252 l 12.883,-31.835 c 1.926,-4.759 6.505,-7.646 11.342,-7.646 1.527,0 3.081,0.288 4.583,0.896 6.262,2.534 9.283,9.663 6.749,15.925"
             style="fill:#ffffff;fill-opacity:1;fill-rule:nonzero;stroke:none"
             id="path5458" /></g><g
           id="g5460"
           transform="translate(275.3879,219.9283)"><path
             d="m 0,0 h -186.274 c -9.448,0 -17.107,7.659 -17.107,17.107 v 186.274 c 0,9.448 7.659,17.107 17.107,17.107 H 0 c 9.448,0 17.107,-7.659 17.107,-17.107 V 17.107 C 17.107,7.659 9.448,0 0,0 Z"
             style="fill:none;stroke:#2626bc;stroke-width:10;stroke-linecap:round;stroke-linejoin:round;stroke-miterlimit:10;stroke-dasharray:none;stroke-opacity:1"
             id="path5462" /></g><g
           id="g5464"
           transform="translate(388.933,407.4521)"><path
             d="m 0,0 36.826,-23.754 c 3.328,-2.147 7.711,0.242 7.711,4.201 v 47.509 c 0,3.959 -4.383,6.348 -7.711,4.202 L 0,8.403 C -3.053,6.434 -3.053,1.969 0,0"
             style="fill:#ff7eb8;fill-opacity:1;fill-rule:nonzero;stroke:none"
             id="path5466" /></g><g
           id="g5468"
           transform="translate(388.933,407.4521)"><path
             d="m 0,0 36.826,-23.754 c 3.328,-2.147 7.711,0.242 7.711,4.201 v 47.509 c 0,3.959 -4.383,6.348 -7.711,4.202 L 0,8.403 C -3.053,6.434 -3.053,1.969 0,0 Z"
             style="fill:none;stroke:#2626bc;stroke-width:10;stroke-linecap:round;stroke-linejoin:round;stroke-miterlimit:10;stroke-dasharray:none;stroke-opacity:1"
             id="path5470" /></g><g
           id="g5472"
           transform="translate(116.5435,105.0455)"><path
             d="m 0,0 -36.826,23.754 c -3.328,2.147 -7.711,-0.242 -7.711,-4.201 v -47.509 c 0,-3.959 4.383,-6.348 7.711,-4.202 L 0,-8.403 C 3.053,-6.434 3.053,-1.969 0,0"
             style="fill:#ff7eb8;fill-opacity:1;fill-rule:nonzero;stroke:none"
             id="path5474" /></g><g
           id="g5476"
           transform="translate(116.5435,105.0455)"><path
             d="m 0,0 -36.826,23.754 c -3.328,2.147 -7.711,-0.242 -7.711,-4.201 v -47.509 c 0,-3.959 4.383,-6.348 7.711,-4.202 L 0,-8.403 C 3.053,-6.434 3.053,-1.969 0,0 Z"
             style="fill:none;stroke:#2626bc;stroke-width:10;stroke-linecap:round;stroke-linejoin:round;stroke-miterlimit:10;stroke-dasharray:none;stroke-opacity:1"
             id="path5478" /></g><g
           id="g5480"
           transform="translate(110.7058,410.1709)"><path
             d="m 0,0 c 0,-5.562 -4.509,-10.071 -10.071,-10.071 -5.562,0 -10.072,4.509 -10.072,10.071 0,5.562 4.51,10.071 10.072,10.071 C -4.509,10.071 0,5.562 0,0"
             style="fill:#8399fe;fill-opacity:1;fill-rule:nonzero;stroke:none"
             id="path5482" /></g><g
           id="g5484"
           transform="translate(273.9387,410.1709)"><path
             d="m 0,0 c 0,-5.562 -4.509,-10.071 -10.071,-10.071 -5.562,0 -10.071,4.509 -10.071,10.071 0,5.562 4.509,10.071 10.071,10.071 C -4.509,10.071 0,5.562 0,0"
             style="fill:#8399fe;fill-opacity:1;fill-rule:nonzero;stroke:none"
             id="path5486" /></g><g
           id="g5488"
           transform="translate(332.7281,466.2999)"><path
             d="M 0,0 2.597,-7.992 H 11 l -6.798,-4.939 2.596,-7.992 -6.798,4.939 -6.798,-4.939 2.596,7.992 -6.798,4.939 h 8.403 z"
             style="fill:none;stroke:#ff7eb8;stroke-width:10;stroke-linecap:round;stroke-linejoin:round;stroke-miterlimit:10;stroke-dasharray:none;stroke-opacity:1"
             id="path5490" /></g><g
           id="g5492"
           transform="translate(475.2184,390.1234)"><path
             d="M 0,0 2.597,-7.992 H 11 l -6.798,-4.939 2.596,-7.992 -6.798,4.939 -6.798,-4.939 2.596,7.992 -6.798,4.939 h 8.403 z"
             style="fill:none;stroke:#01eca5;stroke-width:10;stroke-linecap:round;stroke-linejoin:round;stroke-miterlimit:10;stroke-dasharray:none;stroke-opacity:1"
             id="path5494" /></g><g
           id="g5496"
           transform="translate(154.2018,75.0018)"><path
             d="M 0,0 2.597,-7.992 H 11 l -6.798,-4.939 2.596,-7.992 -6.798,4.939 -6.798,-4.939 2.596,7.992 -6.798,4.939 h 8.403 z"
             style="fill:none;stroke:#01eca5;stroke-width:10;stroke-linecap:round;stroke-linejoin:round;stroke-miterlimit:10;stroke-dasharray:none;stroke-opacity:1"
             id="path5498" /></g><g
           id="g5500"
           transform="translate(456.2647,309.1723)"><path
             d="M 0,0 -10.5,10.5 0,21 10.5,10.5 Z"
             style="fill:none;stroke:#8399fe;stroke-width:10;stroke-linecap:round;stroke-linejoin:round;stroke-miterlimit:10;stroke-dasharray:none;stroke-opacity:1"
             id="path5502" /></g><g
           id="g5504"
           transform="translate(54.6471,171.825)"><path
             d="M 0,0 -10.5,10.5 0,21 10.5,10.5 Z"
             style="fill:none;stroke:#ff7eb8;stroke-width:10;stroke-linecap:round;stroke-linejoin:round;stroke-miterlimit:10;stroke-dasharray:none;stroke-opacity:1"
             id="path5506" /></g></g></g></g></svg>
