<?xml version="1.0" encoding="UTF-8" standalone="no"?>
<!-- Created with Inkscape (http://www.inkscape.org/) -->

<svg
   version="1.1"
   id="svg16089"
   xml:space="preserve"
   width="682.66669"
   height="682.66669"
   viewBox="0 0 682.66669 682.66669"
   xmlns="http://www.w3.org/2000/svg"
   xmlns:svg="http://www.w3.org/2000/svg"><defs
     id="defs16093"><clipPath
       clipPathUnits="userSpaceOnUse"
       id="clipPath16103"><path
         d="M 0,512 H 512 V 0 H 0 Z"
         id="path16101" /></clipPath><linearGradient
       x1="0"
       y1="0"
       x2="1"
       y2="0"
       gradientUnits="userSpaceOnUse"
       gradientTransform="matrix(374.34152,374.34152,374.34152,-374.34152,632.86279,46.363941)"
       spreadMethod="pad"
       id="linearGradient16125"><stop
         style="stop-opacity:1;stop-color:#d9faeb"
         offset="0"
         id="stop16117" /><stop
         style="stop-opacity:1;stop-color:#d9faeb"
         offset="0.0112179"
         id="stop16119" /><stop
         style="stop-opacity:1;stop-color:#d9faeb"
         offset="0.09210249"
         id="stop16121" /><stop
         style="stop-opacity:1;stop-color:#fed7ea"
         offset="1"
         id="stop16123" /></linearGradient><linearGradient
       x1="0"
       y1="0"
       x2="1"
       y2="0"
       gradientUnits="userSpaceOnUse"
       gradientTransform="matrix(349.29312,349.29312,349.29312,-349.29312,129.03973,19.981464)"
       spreadMethod="pad"
       id="linearGradient16149"><stop
         style="stop-opacity:1;stop-color:#fed7ea"
         offset="0"
         id="stop16141" /><stop
         style="stop-opacity:1;stop-color:#fed7ea"
         offset="0.00300481"
         id="stop16143" /><stop
         style="stop-opacity:1;stop-color:#c4cffd"
         offset="0.91844356"
         id="stop16145" /><stop
         style="stop-opacity:1;stop-color:#c4cffd"
         offset="1"
         id="stop16147" /></linearGradient><clipPath
       clipPathUnits="userSpaceOnUse"
       id="clipPath16159"><path
         d="M 0,512 H 512 V 0 H 0 Z"
         id="path16157" /></clipPath><clipPath
       clipPathUnits="userSpaceOnUse"
       id="clipPath16167"><path
         d="M 40.9717,471.133 H 422.34 V 35.7 H 40.9717 Z"
         id="path16165" /></clipPath><clipPath
       clipPathUnits="userSpaceOnUse"
       id="clipPath16341"><path
         d="M 0,512 H 512 V 0 H 0 Z"
         id="path16339" /></clipPath><linearGradient
       x1="0"
       y1="0"
       x2="1"
       y2="0"
       gradientUnits="userSpaceOnUse"
       gradientTransform="matrix(374.34152,374.34152,374.34152,-374.34152,100.8628,578.36395)"
       spreadMethod="pad"
       id="linearGradient16363"><stop
         style="stop-opacity:1;stop-color:#d9faeb"
         offset="0"
         id="stop16355" /><stop
         style="stop-opacity:1;stop-color:#d9faeb"
         offset="0.0112179"
         id="stop16357" /><stop
         style="stop-opacity:1;stop-color:#d9faeb"
         offset="0.09210249"
         id="stop16359" /><stop
         style="stop-opacity:1;stop-color:#fed7ea"
         offset="1"
         id="stop16361" /></linearGradient></defs><g
     id="g16095"
     transform="matrix(1.3333333,0,0,-1.3333333,0,682.66667)"><g
       id="g16097"><g
         id="g16099"
         clip-path="url(#clipPath16103)"><g
           id="g16105"><g
             id="g16107"><g
               id="g16113"><g
                 id="g16115"><path
                   d="m 1043.793,364.572 c -3.453,41.555 -56.171,72.804 -94.508,63.364 C 877.67,410.3 849.699,294.645 768.945,294.57 c -62.643,-0.057 -142.977,39.695 -182.701,12.901 -136.02,-91.744 10.342,-350.78 147.477,-143.554 67.728,102.346 244.39,-204.26 276.096,-22.865 3.666,20.972 -9.098,42.528 -24.428,57.309 -85.172,82.13 64.917,87.829 58.404,166.211"
                   style="fill:url(#linearGradient16125);stroke:none"
                   id="path16127" /></g></g></g></g></g></g><g
       id="g16129"><g
         id="g16131"><g
           id="g16137"><g
             id="g16139"><path
               d="M 174.017,357.371 C 152.944,278.819 -7.051,271.87 10.921,165.915 v 0 C 24.475,86.007 76.36,98.58 132.735,111.153 v 0 c 36.589,8.16 75.07,16.321 106.189,-0.804 v 0 c 52.27,-28.765 92.071,-76.443 146.82,-100.051 v 0 C 402.153,3.222 416.765,0.026 429.64,0 v 0 h 0.333 c 71.368,0.151 88.73,97.954 57.909,171.634 v 0 C 451.537,258.52 354.141,324.595 368.718,423.983 v 0 c 8.297,56.566 -19.523,88.022 -57.44,88.017 v 0 c -46.64,-0.006 -108.55,-47.61 -137.261,-154.629"
               style="fill:url(#linearGradient16149);stroke:none"
               id="path16151" /></g></g></g></g><g
       id="g16153"><g
         id="g16155"
         clip-path="url(#clipPath16159)"><g
           id="g16161"><g
             id="g16163" /><g
             id="g16175"><g
               clip-path="url(#clipPath16167)"
               opacity="0.100006"
               id="g16173"><g
                 transform="translate(412.3398,365.0303)"
                 id="g16171"><path
                   d="m 0,0 h -97.28 v 61.18 c 0,5.52 -4.47,10 -10,10 h -191.662 l -17.275,29.921 c -2.762,4.783 -8.877,6.421 -13.66,3.66 l -36.489,-21.067 c -4.783,-2.761 -6.422,-8.878 -3.661,-13.66 l 47.817,-82.822 V -248.15 c 0,-5.521 4.47,-10 10,-10 h 97.27 v -61.18 c 0,-5.53 4.48,-10 10,-10 H 0 c 5.52,0 10,4.47 10,10 V -10 C 10,-4.48 5.52,0 0,0"
                   style="fill:#2526ba;fill-opacity:1;fill-rule:nonzero;stroke:none"
                   id="path16169" /></g></g></g></g><g
           id="g16177"
           transform="translate(315.0601,450.21)"><path
             d="m 0,0 v -309.33 c 0,-5.521 -4.47,-10 -10,-10 h -204.93 c -5.53,0 -10,4.479 -10,10 V 0 c 0,5.33 4.16,9.69 9.42,9.99 0.19,0 0.39,0.01 0.58,0.01 H -10 C -4.47,10 0,5.521 0,0"
             style="fill:#ffdbed;fill-opacity:1;fill-rule:nonzero;stroke:none"
             id="path16179" /></g><g
           id="g16181"
           transform="translate(223.98,239.8398)"><path
             d="m 0,0 -2.35,-44.84 c -0.19,-3.609 -4.04,-5.83 -7.27,-4.189 l -40,20.379 c -2.58,1.32 -4.73,3.36 -6.18,5.871 L -133.85,112.4 v 97.97 c 0,5.33 4.16,9.691 9.42,9.99 L -1.99,8.29 C -0.54,5.77 0.15,2.9 0,0"
             style="fill:#ffc4e0;fill-opacity:1;fill-rule:nonzero;stroke:none"
             id="path16183" /></g><path
           d="m 90.126,429.842 h 224.938 v -72 H 90.126 Z"
           style="fill:#ffc4e0;fill-opacity:1;fill-rule:nonzero;stroke:none"
           id="path16185" /><g
           id="g16187"
           transform="translate(158.6499,357.8398)"><path
             d="m 0,0 h -68.52 v 72 h 26.95 z"
             style="fill:#ffa9d1;fill-opacity:1;fill-rule:nonzero;stroke:none"
             id="path16189" /></g><path
           d="m 90.126,331.545 h 224.938 v -72 H 90.126 Z"
           style="fill:#ffc4e0;fill-opacity:1;fill-rule:nonzero;stroke:none"
           id="path16191" /><g
           id="g16193"
           transform="translate(215.3999,259.5498)"><path
             d="m 0,0 h -71.75 l -41.57,72 h 71.75 z"
             style="fill:#ffa9d1;fill-opacity:1;fill-rule:nonzero;stroke:none"
             id="path16195" /></g><path
           d="m 90.126,233.248 h 224.938 v -72 H 90.126 Z"
           style="fill:#ffc4e0;fill-opacity:1;fill-rule:nonzero;stroke:none"
           id="path16197" /><g
           id="g16199"
           transform="translate(223.6299,233.25)"><path
             d="m 0,0 -2,-38.25 c -0.19,-3.609 -4.04,-5.83 -7.27,-4.189 l -40,20.378 c -2.58,1.321 -4.73,3.361 -6.18,5.872 L -64.8,0 Z"
             style="fill:#ffa9d1;fill-opacity:1;fill-rule:nonzero;stroke:none"
             id="path16201" /></g><g
           id="g16203"
           transform="translate(127.6201,460.21)"><path
             d="m 0,0 h 177.44 c 5.53,0 10,-4.479 10,-10 v -61.18"
             style="fill:none;stroke:#2526ba;stroke-width:10;stroke-linecap:round;stroke-linejoin:round;stroke-miterlimit:10;stroke-dasharray:none;stroke-opacity:1"
             id="path16205" /></g><g
           id="g16207"
           transform="translate(90.1299,400.8799)"><path
             d="m 0,0 v -260 c 0,-5.52 4.47,-10 10,-10 h 68.11"
             style="fill:none;stroke:#2526ba;stroke-width:10;stroke-linecap:round;stroke-linejoin:round;stroke-miterlimit:10;stroke-dasharray:none;stroke-opacity:1"
             id="path16209" /></g><g
           id="g16211"
           transform="translate(422.3398,379.0303)"><path
             d="m 0,0 v -309.33 c 0,-5.53 -4.48,-10 -10,-10 h -204.94 c -5.52,0 -10,4.47 -10,10 V 0 c 0,5.52 4.48,10 10,10 H -10 C -4.48,10 0,5.52 0,0"
             style="fill:#ffffff;fill-opacity:1;fill-rule:nonzero;stroke:none"
             id="path16213" /></g><g
           id="g16215"
           transform="translate(223.98,239.8398)"><path
             d="m 0,0 -2.35,-44.84 c -0.19,-3.609 -4.04,-5.83 -7.27,-4.189 l -16.96,8.639 V 50.88 L -1.99,8.29 C -0.54,5.77 0.15,2.9 0,0"
             style="fill:#ffdbed;fill-opacity:1;fill-rule:nonzero;stroke:none"
             id="path16217" /></g><path
           d="M 422.34,359.973 H 197.4 v -60.885 h 224.94 z"
           style="fill:#cddeff;fill-opacity:1;fill-rule:nonzero;stroke:none"
           id="path16219" /><path
           d="M 422.34,98.823 H 283.522 V 252.28 H 422.34 Z"
           style="fill:#cdfced;fill-opacity:1;fill-rule:nonzero;stroke:none"
           id="path16221" /><g
           id="g16223"
           transform="translate(373.9727,325.835)"><path
             d="m 0,0 c 3.646,0 6.613,-2.967 6.613,-6.613 0,-3.647 -2.967,-6.614 -6.613,-6.614 -3.646,0 -6.613,2.967 -6.613,6.614 C -6.613,-2.967 -3.646,0 0,0"
             style="fill:#ffffff;fill-opacity:1;fill-rule:nonzero;stroke:none"
             id="path16225" /></g><g
           id="g16227"
           transform="translate(422.3398,379.0303)"><path
             d="m 0,0 v -309.33 c 0,-5.53 -4.48,-10 -10,-10 h -204.94 c -5.52,0 -10,4.47 -10,10 v 153.94 l 36.96,-18.83 c 3.23,-1.64 7.08,0.58 7.27,4.19 l 2.35,44.84 c 0.15,2.9 -0.54,5.769 -1.99,8.29 l -44.59,77.229 V 0 c 0,5.52 4.48,10 10,10 L -10,10 C -4.48,10 0,5.52 0,0 Z"
             style="fill:none;stroke:#2526ba;stroke-width:10;stroke-linecap:round;stroke-linejoin:round;stroke-miterlimit:10;stroke-dasharray:none;stroke-opacity:1"
             id="path16229" /></g><g
           id="g16231"
           transform="translate(373.9727,325.835)"><path
             d="m 0,0 c 3.646,0 6.613,-2.967 6.613,-6.613 0,-3.647 -2.967,-6.614 -6.613,-6.614 -3.646,0 -6.613,2.967 -6.613,6.614 C -6.613,-2.967 -3.646,0 0,0 M 16.613,-6.613 C 16.613,2.548 9.16,10 0,10 -9.161,10 -16.613,2.548 -16.613,-6.613 c 0,-4.518 1.818,-8.616 4.754,-11.614 -2.936,-2.998 -4.754,-7.094 -4.754,-11.613 0,-2.761 2.238,-5 5,-5 2.761,0 5,2.239 5,5 0,3.647 2.967,6.613 6.613,6.613 3.646,0 6.613,-2.966 6.613,-6.613 0,-2.761 2.239,-5 5,-5 2.761,0 5,2.239 5,5 0,4.519 -1.818,8.615 -4.755,11.613 2.937,2.998 4.755,7.096 4.755,11.614"
             style="fill:#2469ff;fill-opacity:1;fill-rule:nonzero;stroke:none"
             id="path16233" /></g><g
           id="g16235"
           transform="translate(386.1611,354.6602)"><path
             d="m 0,0 h -92.583 c -2.761,0 -5,2.239 -5,5 0,2.762 2.239,5 5,5 H 0 C 2.761,10 5,7.762 5,5 5,2.239 2.761,0 0,0"
             style="fill:#ff7fba;fill-opacity:1;fill-rule:nonzero;stroke:none"
             id="path16237" /></g><g
           id="g16239"
           transform="translate(386.1611,266.6738)"><path
             d="m 0,0 h -92.583 c -2.761,0 -5,2.239 -5,5 0,2.762 2.239,5 5,5 H 0 C 2.761,10 5,7.762 5,5 5,2.239 2.761,0 0,0"
             style="fill:#7999ff;fill-opacity:1;fill-rule:nonzero;stroke:none"
             id="path16241" /></g><g
           id="g16243"
           transform="translate(386.1611,246.293)"><path
             d="m 0,0 h -152.583 c -2.761,0 -5,2.238 -5,5 0,2.761 2.239,5 5,5 H 0 C 2.761,10 5,7.761 5,5 5,2.238 2.761,0 0,0"
             style="fill:#7999ff;fill-opacity:1;fill-rule:nonzero;stroke:none"
             id="path16245" /></g><g
           id="g16247"
           transform="translate(386.1611,225.9111)"><path
             d="m 0,0 h -152.583 c -2.761,0 -5,2.238 -5,5 0,2.761 2.239,5 5,5 H 0 C 2.761,10 5,7.761 5,5 5,2.238 2.761,0 0,0"
             style="fill:#7999ff;fill-opacity:1;fill-rule:nonzero;stroke:none"
             id="path16249" /></g><g
           id="g16251"
           transform="translate(386.1611,199.8447)"><path
             d="m 0,0 h -92.583 c -2.761,0 -5,2.238 -5,5 0,2.761 2.239,5 5,5 H 0 C 2.761,10 5,7.761 5,5 5,2.238 2.761,0 0,0"
             style="fill:#ff7fba;fill-opacity:1;fill-rule:nonzero;stroke:none"
             id="path16253" /></g><g
           id="g16255"
           transform="translate(233.5781,266.6738)"><path
             d="M 0,0 C 2.762,0 5,2.239 5,5 5,7.762 2.762,10 0,10 -2.761,10 -5,7.762 -5,5 -5,2.239 -2.761,0 0,0"
             style="fill:#7999ff;fill-opacity:1;fill-rule:nonzero;stroke:none"
             id="path16257" /></g><g
           id="g16259"
           transform="translate(366.3594,429.8418)"><path
             d="M 0,0 -10,-10"
             style="fill:none;stroke:#7999ff;stroke-width:10;stroke-linecap:round;stroke-linejoin:round;stroke-miterlimit:10;stroke-dasharray:none;stroke-opacity:1"
             id="path16261" /></g><g
           id="g16263"
           transform="translate(455.8579,181.9268)"><path
             d="M 0,0 -10,-10"
             style="fill:none;stroke:#ff7fba;stroke-width:10;stroke-linecap:round;stroke-linejoin:round;stroke-miterlimit:10;stroke-dasharray:none;stroke-opacity:1"
             id="path16265" /></g><g
           id="g16267"
           transform="translate(177.5615,54.7002)"><path
             d="M 0,0 -10,-10"
             style="fill:none;stroke:#ff7fba;stroke-width:10;stroke-linecap:round;stroke-linejoin:round;stroke-miterlimit:10;stroke-dasharray:none;stroke-opacity:1"
             id="path16269" /></g><g
           id="g16271"
           transform="translate(392.4863,462.0029)"><path
             d="m 0,0 c 0,-6.26 -5.074,-11.333 -11.333,-11.333 6.259,0 11.333,-5.074 11.333,-11.334 0,6.26 5.074,11.334 11.333,11.334 C 5.074,-11.333 0,-6.26 0,0 Z"
             style="fill:none;stroke:#00ffaf;stroke-width:10;stroke-linecap:round;stroke-linejoin:round;stroke-miterlimit:10;stroke-dasharray:none;stroke-opacity:1"
             id="path16273" /></g><g
           id="g16275"
           transform="translate(56.3149,181.999)"><path
             d="M 0,0 C 0,-6.259 -5.074,-11.333 -11.333,-11.333 -5.074,-11.333 0,-16.407 0,-22.666 0,-16.407 5.074,-11.333 11.333,-11.333 5.074,-11.333 0,-6.259 0,0 Z"
             style="fill:none;stroke:#7999ff;stroke-width:10;stroke-linecap:round;stroke-linejoin:round;stroke-miterlimit:10;stroke-dasharray:none;stroke-opacity:1"
             id="path16277" /></g><g
           id="g16279"
           transform="translate(299.8696,86.7119)"><path
             d="m 0,0 h -58.778 c -5.522,0 -10,4.478 -10,10 v 17.415 c 0,5.523 4.478,10 10,10 H 0 c 5.523,0 10,-4.477 10,-10 L 10,10 C 10,4.478 5.523,0 0,0"
             style="fill:#00ffaf;fill-opacity:1;fill-rule:nonzero;stroke:none"
             id="path16281" /></g><g
           id="g16283"
           transform="translate(243.9771,253.8408)"><path
             d="m 0,0 -2.35,-44.837 c -0.189,-3.615 -4.038,-5.837 -7.263,-4.193 l -40.005,20.383 c -2.584,1.317 -4.731,3.354 -6.181,5.865 l -125.865,218.006 c -2.761,4.782 -1.123,10.898 3.661,13.66 l 36.488,21.066 c 4.784,2.762 10.899,1.123 13.661,-3.66 L -1.989,8.285 C -0.539,5.773 0.152,2.896 0,0"
             style="fill:#5583ff;fill-opacity:1;fill-rule:nonzero;stroke:none"
             id="path16285" /></g><g
           id="g16287"
           transform="translate(227.9307,244.5762)"><path
             d="m 0,0 11.348,-36.929 c 0.915,-2.977 -0.445,-3.761 -2.566,-1.481 l -26.307,28.292 c -1.7,1.827 -3.375,4.137 -4.826,6.647 l -130.865,226.666 19.007,10.973 L -3.344,7.503 C -1.895,4.991 -0.733,2.386 0,0"
             style="fill:#7999ff;fill-opacity:1;fill-rule:nonzero;stroke:none"
             id="path16289" /></g><g
           id="g16291"
           transform="translate(241.9888,262.1211)"><path
             d="M 0,0 C 1.45,-2.512 2.137,-5.383 1.984,-8.277 L -0.36,-53.116 c -0.186,-3.618 -4.04,-5.843 -7.266,-4.196 l -40.004,20.39 c -2.584,1.315 -4.726,3.345 -6.176,5.857 0,0 -5.715,9.898 21.192,25.433 C -5.715,9.898 0,0 0,0"
             style="fill:#ffc4e0;fill-opacity:1;fill-rule:nonzero;stroke:none"
             id="path16293" /></g><g
           id="g16295"
           transform="translate(219.1602,261.4805)"><path
             d="m 0,0 5.43,-9.405 c 1.45,-2.511 2.605,-5.113 3.335,-7.496 l 11.356,-36.93 c 0.457,-1.491 0.344,-2.435 -0.15,-2.72 -0.485,-0.28 -1.359,0.094 -2.422,1.235 l -26.303,28.299 c -1.701,1.825 -3.375,4.125 -4.825,6.637 l -5.43,9.405 c 2.539,1.882 5.586,3.884 9.224,5.984 3.637,2.1 6.886,3.733 9.785,4.991"
             style="fill:#ffdbed;fill-opacity:1;fill-rule:nonzero;stroke:none"
             id="path16297" /></g><g
           id="g16299"
           transform="translate(242.7637,230.6982)"><path
             d="m 0,0 -1.135,-21.693 c -0.186,-3.619 -4.04,-5.843 -7.266,-4.196 l -19.355,9.864 c 2.511,4.891 6.409,9.139 11.527,12.094 C -11.119,-0.98 -5.491,0.271 0,0"
             style="fill:#ffc4e0;fill-opacity:1;fill-rule:nonzero;stroke:none"
             id="path16301" /></g><g
           id="g16303"
           transform="translate(242.7637,230.6982)"><path
             d="m 0,0 -1.135,-21.693 c -0.186,-3.619 -4.04,-5.843 -7.266,-4.196 l -19.355,9.864 c 2.511,4.891 6.409,9.139 11.527,12.094 C -11.119,-0.98 -5.491,0.271 0,0"
             style="fill:#ff5bab;fill-opacity:1;fill-rule:nonzero;stroke:none"
             id="path16305" /></g><g
           id="g16307"
           transform="translate(169.0801,388.4102)"><path
             d="m 0,0 28.32,-49.05 44.59,-77.23 c 1.45,-2.52 2.14,-5.39 1.99,-8.29 l -2.35,-44.84 c -0.19,-3.611 -4.04,-5.83 -7.27,-4.191 l -36.96,18.83 -3.04,1.551 c -2.58,1.32 -4.73,3.36 -6.18,5.869 l -125.87,218 c -2.76,4.79 -1.12,10.901 3.66,13.661 l 36.49,21.07 c 4.79,2.76 10.9,1.12 13.66,-3.66 l 38.05,-65.91"
             style="fill:none;stroke:#2526ba;stroke-width:10;stroke-linecap:round;stroke-linejoin:round;stroke-miterlimit:10;stroke-dasharray:none;stroke-opacity:1"
             id="path16309" /></g><g
           id="g16311"
           transform="translate(118.3496,173.9268)"><path
             d="M 0,0 C 2.762,0 5,2.238 5,5 5,7.762 2.762,10 0,10 -2.761,10 -5,7.762 -5,5 -5,2.238 -2.761,0 0,0"
             style="fill:#7999ff;fill-opacity:1;fill-rule:nonzero;stroke:none"
             id="path16313" /></g><g
           id="g16315"
           transform="translate(135.8271,173.9268)"><path
             d="M 0,0 C 2.762,0 5,2.238 5,5 5,7.762 2.762,10 0,10 -2.761,10 -5,7.762 -5,5 -5,2.238 -2.761,0 0,0"
             style="fill:#7999ff;fill-opacity:1;fill-rule:nonzero;stroke:none"
             id="path16317" /></g><g
           id="g16319"
           transform="translate(153.3052,173.9268)"><path
             d="M 0,0 C 2.761,0 5,2.238 5,5 5,7.762 2.761,10 0,10 -2.762,10 -5,7.762 -5,5 -5,2.238 -2.762,0 0,0"
             style="fill:#7999ff;fill-opacity:1;fill-rule:nonzero;stroke:none"
             id="path16321" /></g><g
           id="g16323"
           transform="translate(259,403.7852)"><path
             d="M 0,0 C 2.761,0 5,2.238 5,5 5,7.762 2.761,10 0,10 -2.761,10 -5,7.762 -5,5 -5,2.238 -2.761,0 0,0"
             style="fill:#ff7fba;fill-opacity:1;fill-rule:nonzero;stroke:none"
             id="path16325" /></g><g
           id="g16327"
           transform="translate(276.4775,403.7852)"><path
             d="M 0,0 C 2.762,0 5,2.238 5,5 5,7.762 2.762,10 0,10 -2.761,10 -5,7.762 -5,5 -5,2.238 -2.761,0 0,0"
             style="fill:#ff7fba;fill-opacity:1;fill-rule:nonzero;stroke:none"
             id="path16329" /></g><g
           id="g16331"
           transform="translate(293.9551,403.7852)"><path
             d="M 0,0 C 2.762,0 5,2.238 5,5 5,7.762 2.762,10 0,10 -2.761,10 -5,7.762 -5,5 -5,2.238 -2.761,0 0,0"
             style="fill:#ff7fba;fill-opacity:1;fill-rule:nonzero;stroke:none"
             id="path16333" /></g></g></g><g
       id="g16335"><g
         id="g16337"
         clip-path="url(#clipPath16341)"><g
           id="g16343"><g
             id="g16345"><g
               id="g16351"><g
                 id="g16353"><path
                   d="m 511.793,896.572 c -3.453,41.555 -56.171,72.804 -94.507,63.364 C 345.669,942.3 317.699,826.645 236.945,826.57 174.302,826.513 93.968,866.265 54.244,839.471 -81.776,747.727 64.586,488.691 201.721,695.917 c 67.728,102.346 244.39,-204.26 276.096,-22.865 3.666,20.972 -9.099,42.528 -24.428,57.309 -85.172,82.13 64.917,87.829 58.404,166.211"
                   style="fill:url(#linearGradient16363);stroke:none"
                   id="path16365" /></g></g></g></g></g></g></g></svg>
