<svg width="40" height="45" viewBox="0 0 40 45" fill="none" xmlns="http://www.w3.org/2000/svg">
<path d="M39.8684 37.5C39.8684 39.0151 38.6745 40.426 36.6187 41.606C33.0581 43.6495 26.9145 45 19.9329 45C13.6602 45 8.06487 43.9093 4.41196 42.2048C1.65251 40.9188 0 39.2808 0 37.5C0 33.3573 8.92407 30 19.9329 30C30.9443 30 39.8684 33.3573 39.8684 37.5Z" fill="#7A4D9C"/>
<path opacity="0.3" d="M36.6188 41.606C33.0581 43.6495 26.9146 45 19.9329 45C13.6602 45 8.0649 43.9093 4.41199 42.2049C5.14731 40.436 8.40753 38.3934 19.527 38.3686C28.8227 38.3478 33.8751 39.9313 36.6188 41.606Z" fill="#451255"/>
<path opacity="0.3" d="M35.9759 34.3834C35.5489 36.1704 34.8688 37.5903 34.0745 38.6921C31.2458 38.8527 28.89 38.2378 28.89 38.2378L31.9119 34.5521C31.9119 34.5521 33.5223 34.835 35.2331 34.5493C35.3256 34.533 35.4181 34.5139 35.5132 34.495C35.6686 34.4624 35.8236 34.427 35.9759 34.3834Z" fill="#451255"/>
<path opacity="0.3" d="M6.22384 33.8993L12.9179 33.3606C12.9179 33.3606 10.3011 35.6073 7.68444 38.79C6.1693 37.5495 5.2935 36.1378 4.85828 35.2837C5.67194 34.3916 6.22384 33.8993 6.22384 33.8993Z" fill="#451255"/>
<path d="M35.715 29.735C35.2089 34.6257 33.452 38.9777 29.9078 40.2235C22.4305 42.8511 7.35301 41.4991 5.0602 33.0372C4.63847 31.4731 4.4127 29.7867 4.36125 28.0568C4.12732 20.4133 7.26895 11.8997 11.6946 9.2993C19.6262 4.63973 30.1476 8.81516 33.5231 14.9814C35.2986 18.2237 36.2751 24.311 35.715 29.735Z" fill="#9FC0E2"/>
<path d="M7.52056 20.2506C7.74339 21.4353 8.61848 22.4225 9.66813 22.9955C11.3863 23.9335 13.6481 23.8055 15.1929 22.5981C16.7376 21.3908 17.425 19.1381 16.7299 17.2938C14.7963 12.1623 6.55201 15.1055 7.52056 20.2506Z" fill="#451255"/>
<path d="M26.6345 23.4304C27.3111 23.678 28.0146 23.8793 28.7342 23.8937C30.4781 23.9291 32.1813 22.7413 32.7708 21.0784C34.1512 17.1849 29.6576 14.1943 26.2435 15.4821C22.5116 16.8899 23.2354 22.187 26.6345 23.4304Z" fill="#451255"/>
<path d="M18.4589 21.199C17.648 21.199 17.9019 24.1081 20.0553 24.1727C22.2086 24.2374 22.564 21.425 21.853 21.328C21.1419 21.231 21.4577 23.1381 20.1199 23.009C18.7822 22.8797 19.3642 21.199 18.4589 21.199Z" fill="#451255"/>
<path d="M28.4335 35.0051C28.4054 35.3061 28.3701 35.6022 28.3257 35.895C27.9527 38.4461 27.0088 40.6099 25.2847 41.2786C21.2305 42.8503 13.0556 42.0416 11.8124 36.9802C11.6841 36.4563 11.5897 35.9113 11.5278 35.35C11.4762 34.9073 11.4452 34.4568 11.4335 34.0013C14.0615 33.3373 22.2584 31.6859 28.4335 35.0051Z" fill="#FEFAFF" fill-opacity="0.43"/>
<path d="M13.6271 16.3033H11.9402V18.2714H13.6271V16.3033Z" fill="white"/>
<path d="M28.2471 16.3033H26.2791V18.2714H28.2471V16.3033Z" fill="white"/>
<path d="M6.65038 23.9169C7.14437 23.8877 7.63245 24.1668 7.89983 24.5832C8.16721 24.9996 8.22231 25.5338 8.09495 26.0118C8.04828 26.1864 7.97743 26.3573 7.86215 26.4965C7.74013 26.6435 7.57369 26.749 7.39684 26.8221C6.79799 27.0703 6.04421 26.9286 5.61235 26.4453C4.85408 25.5962 5.49962 23.9852 6.65038 23.9169Z" fill="#FF4F6C"/>
<path d="M33.1672 24.3699C32.6825 24.3412 32.2034 24.615 31.941 25.0238C31.6787 25.4326 31.6245 25.957 31.7496 26.4259C31.7954 26.5972 31.8651 26.765 31.9782 26.9016C32.0979 27.0462 32.2613 27.1493 32.4348 27.221C33.0227 27.4645 33.7624 27.3256 34.1861 26.851C34.93 26.0183 34.2966 24.4368 33.1672 24.3699Z" fill="#FF4F6C"/>
<path d="M11.7188 10.8579C11.5729 11.0471 11.4306 11.2729 11.4736 11.5079C11.5172 11.7458 11.7469 11.9139 11.9836 11.962C12.2204 12.0101 12.4653 11.9631 12.7023 11.9162C13.8303 11.6924 14.9585 11.4688 16.0865 11.245C16.6362 11.136 17.1875 11.0266 17.7186 10.8481C18.196 10.6875 18.7246 10.3754 18.7488 9.87217C18.7637 9.56121 18.5688 9.27387 18.3282 9.07622C17.5508 8.43744 16.0103 8.42366 15.0538 8.60388C13.7622 8.84736 12.5024 9.84265 11.7188 10.8579Z" fill="white"/>
<path d="M22.6077 10.023C22.6077 10.8694 21.4049 11.5555 19.9209 11.5555C18.4368 11.5555 17.234 10.8694 17.234 10.023C17.234 9.17659 18.4368 8.49048 19.9209 8.49048C21.4049 8.49048 22.6077 9.17659 22.6077 10.023Z" fill="#451255"/>
<path d="M19.9204 10.0229L19.9412 2.43591" stroke="#451255" stroke-width="0.413367" stroke-miterlimit="10"/>
<path d="M22.3778 2.43603C22.3778 1.09043 21.2869 0 19.9418 0C18.5962 0 17.5057 1.09092 17.5057 2.43603C17.5057 3.78164 18.5967 4.87205 19.9418 4.87205C21.2869 4.87205 22.3778 3.78115 22.3778 2.43603Z" fill="#AA6DAB"/>
</svg>
